<?xml version="1.0" encoding="UTF-8"?>
<svg id="Capa_1" data-name="Capa 1" xmlns="http://www.w3.org/2000/svg" xmlns:xlink="http://www.w3.org/1999/xlink" viewBox="0 0 489.88 500">
  <defs>
    <linearGradient id="Degradado_sin_nombre_12" data-name="Degradado sin nombre 12" x1="239.23" y1="499.22" x2="239.23" y2="87.85" gradientUnits="userSpaceOnUse">
      <stop offset="0" stop-color="#5ac1d8"/>
      <stop offset=".48" stop-color="#0c8c93"/>
      <stop offset="1" stop-color="#0c5b55"/>
    </linearGradient>
    <linearGradient id="Degradado_sin_nombre_12-2" data-name="Degradado sin nombre 12" x1="131.78" y1="500" x2="131.78" y2="288.94" xlink:href="#Degradado_sin_nombre_12"/>
    <linearGradient id="Degradado_sin_nombre_12-3" data-name="Degradado sin nombre 12" x1="363.76" y1="499.93" x2="363.76" y2="290.33" xlink:href="#Degradado_sin_nombre_12"/>
    <linearGradient id="Degradado_sin_nombre_12-4" data-name="Degradado sin nombre 12" x1="196.26" y1="80.05" x2="196.26" y2="15.42" xlink:href="#Degradado_sin_nombre_12"/>
    <linearGradient id="Degradado_sin_nombre_12-5" data-name="Degradado sin nombre 12" x1="454.42" y1="192.39" x2="454.42" y2="127.06" xlink:href="#Degradado_sin_nombre_12"/>
    <linearGradient id="Degradado_sin_nombre_12-6" data-name="Degradado sin nombre 12" x1="286.31" y1="51.54" x2="286.31" y2="0" xlink:href="#Degradado_sin_nombre_12"/>
    <linearGradient id="Degradado_sin_nombre_12-7" data-name="Degradado sin nombre 12" x1="381.4" y1="166.21" x2="381.4" y2="123.48" xlink:href="#Degradado_sin_nombre_12"/>
    <linearGradient id="Degradado_sin_nombre_12-8" data-name="Degradado sin nombre 12" x1="468.75" y1="273.31" x2="468.75" y2="228.9" xlink:href="#Degradado_sin_nombre_12"/>
    <linearGradient id="Degradado_sin_nombre_12-9" data-name="Degradado sin nombre 12" x1="110.02" y1="161.04" x2="110.02" y2="119.52" xlink:href="#Degradado_sin_nombre_12"/>
    <linearGradient id="Degradado_sin_nombre_12-10" data-name="Degradado sin nombre 12" x1="19.46" y1="269.98" x2="19.46" y2="229.34" xlink:href="#Degradado_sin_nombre_12"/>
    <linearGradient id="Degradado_sin_nombre_12-11" data-name="Degradado sin nombre 12" x1="320.77" y1="106.55" x2="320.77" y2="67.26" xlink:href="#Degradado_sin_nombre_12"/>
    <linearGradient id="Degradado_sin_nombre_12-12" data-name="Degradado sin nombre 12" x1="116.81" y1="87.86" x2="116.81" y2="47.67" xlink:href="#Degradado_sin_nombre_12"/>
    <linearGradient id="Degradado_sin_nombre_12-13" data-name="Degradado sin nombre 12" x1="33.91" y1="172.55" x2="33.91" y2="140.8" xlink:href="#Degradado_sin_nombre_12"/>
  </defs>
  <path d="M240.65,432.97c-.87-7.36-7.26-30.62-10.09-38.37-7.98-21.84-24.68-36.68-42.69-50.19-38.26-28.71-67.76-34.66-93.55-80.19-2.54-4.49-2.01-11.87-3.88-14.2-2.27-2.83-17.16-4.17-21.55-12.78-17.58-34.48,29.32-67.66,50.79-34.61,15.06,23.18-9.59,39.96-7.77,48.04.29,1.29,11.82,20.08,13.78,22.66,5.27,6.96,40.69,38.22,46.28,32.45-7.16-14.18,9.77-50.59,7.69-57.84-1.19-4.16-8.18-8.43-11.13-13.39-13.52-22.72-20.19-45.03-16.54-71.88.57-4.17,8.58-32.64,9.82-34.57,4.52-7.07,17.56-8.9,22.49-1.39,8.86,13.48-6.85,18.4-10.5,33.54-6.55,27.19,4.24,42.93,14.12,66.41,1.72,4.08,6.77,3.09,10.29,2.55,4.11-.64,39.91-62.4,41.55-71.64,4.83-27.25-11.15-23.98-14.69-40.33-5.2-24.04,25.56-39.77,41.73-21.29,13.29,15.18,2.04,22.7-1.03,35.13-3.84,15.57-4.85,29.79-11.01,45.51-21.07,53.72-90.07,93.31-44.24,157.3,10.26,14.33,30.63,24.8,34.19,44.58,4.04,5.17,24.44-21.38,24.45-26.23.02-9.23-27.53-23.86-23.8-47.5,6.91-43.69,73.26-73.98,68.15-130.28-.88-9.66-8.17-18.17-7.6-23.42,2.07-18.9,26.89-19.5,31.2-4.01,2.21,7.95-3.19,15.4-3.71,23.41-1.8,27.4,1.29,34.02-12.72,59.95-9.61,17.78-52.71,63.8-51.84,77.09s12.12,34.6,27.13,27.52c5.86-2.76,27.34-18.51,33.24-23.41,11.74-9.73,36.71-37.18,36.73-52.29.01-11.33-21.69-12.26-15.48-39.53,7.99-35.08,60.75-27.67,62.87,8.01,1.3,21.86-18.33,22.98-25.16,33.73-5.72,9-7.42,24.62-14.11,34.35-23.44,34.11-62.2,46.95-88.78,72.75-6.08,5.9-24.46,33.25-24.46,40.15v84.78c0,7.59-20.2,7.59-20.2,0,0-18.75,2.1-42.79,0-60.56Z" style="fill: url(#Degradado_sin_nombre_12);"/>
  <path d="M188.14,424.89c-5.18-30.34-62.13-55.77-86.11-71.39-13.71-8.93-30.06-20.18-43.02-29.67-20.36-14.9-2.49-43.77,20.16-32.23,8.9,4.53,6.52,15.09,10.09,22.19,14.56,28.94,81.73,44.69,104.77,76.96,15.7,22,22.11,72.21,18.43,98.82-2.3,16.64-24.31,9.77-24.31,3.96,0-19.52,2.97-51.23,0-68.63Z" style="fill: url(#Degradado_sin_nombre_12-2);"/>
  <path d="M313.36,493.53c-1.51,5.8-12.21,7.44-17.92,5.81-13.7-3.9-2.96-36.13-2.16-46.07,2.11-26.34-4.97-45.24,20.26-64.53,28.03-21.43,53.35-27.19,78.68-58.6,11.53-14.29,4.6-14.3,7.74-24.3,5.6-17.81,27.67-21.71,36.66-4.13,9.7,18.96-12.7,24.31-22.38,34.26-6.61,6.8-11.23,16.35-19.99,24.43-18.95,17.47-63.7,36.54-74.59,54.64-1.26,2.1-6.29,13.14-6.29,13.9,0,15.47,3.05,52.91,0,64.6Z" style="fill: url(#Degradado_sin_nombre_12-3);"/>
  <path d="M191.11,15.95c45.9-7.06,49.97,58.59,10.99,63.71-45.71,6-51.81-57.43-10.99-63.71Z" style="fill: url(#Degradado_sin_nombre_12-4);"/>
  <path d="M441.24,128.82c36.92-11.1,65.84,33.02,29.48,57.68-26.85,18.21-56.85-8.91-47.63-39.54,1.16-3.85,14.3-16.98,18.15-18.14Z" style="fill: url(#Degradado_sin_nombre_12-5);"/>
  <path d="M265.92,42.38c-19.36-21.87,15.57-59.68,39.49-33.46s-16.72,59.17-39.49,33.46Z" style="fill: url(#Degradado_sin_nombre_12-6);"/>
  <path d="M397.34,129c18.26,18.2-7.83,49.97-29.76,31.76-24.67-20.49,11.92-49.53,29.76-31.76Z" style="fill: url(#Degradado_sin_nombre_12-7);"/>
  <path d="M486.12,238.05c13.72,18.12-12.98,50.25-33.29,27.29-13.07-14.77.86-36.42,16.05-36.43,1.97,0,16.41,8.05,17.24,9.15Z" style="fill: url(#Degradado_sin_nombre_12-8);"/>
  <path d="M101.91,120.68c27.98-8.35,41.34,31.17,14.91,39.16-28.71,8.68-37.88-32.3-14.91-39.16Z" style="fill: url(#Degradado_sin_nombre_12-9);"/>
  <path d="M17.3,229.58c19.53-3.56,31.57,33.08,10.66,39.26-28.91,8.55-40.09-33.89-10.66-39.26Z" style="fill: url(#Degradado_sin_nombre_12-10);"/>
  <path d="M316.01,68.11c25.86-7.65,35.6,39.38,3.32,38.43-21.19-.62-24.2-32.25-3.32-38.43Z" style="fill: url(#Degradado_sin_nombre_12-11);"/>
  <path d="M114.25,47.91c17.48-3.22,32.04,26.36,9.26,37.99-22.89,11.69-38.16-32.66-9.26-37.99Z" style="fill: url(#Degradado_sin_nombre_12-12);"/>
  <path d="M18.86,168.17c-3.77-15.48,4.94-35.37,22.01-24.02,21.58,14.34.17,38.29-22.01,24.02Z" style="fill: url(#Degradado_sin_nombre_12-13);"/>
</svg>