<?xml version="1.0" encoding="UTF-8"?>
<svg id="Capa_1" data-name="Capa 1" xmlns="http://www.w3.org/2000/svg" xmlns:xlink="http://www.w3.org/1999/xlink" viewBox="0 0 458.06 500.74">
  <defs>
    <clipPath id="clippath">
      <path d="M343.63,53.17c23.14,13.34,51.57,27.3,72.88,42.57,17.49,12.48,27.35,19.55,32.88,33.05,8.26,20.12,7.47,91.46,6.84,141.78-.17,14.82-.28,27.81-.17,37.04l.23,14.13c.97,55.5,1.08,59.95-50.72,87.93-42.68,24.67-85.31,49.52-128.1,73.91l-2.11-110.73c24.33-23.54,48.66-47.18,73.11-70.61,19.49-4.96,38.98-9.8,58.47-14.65l1.2,1.14c1.48,1.54,3.31,2.73,5.3,3.53,1.94.8,4.04,1.2,6.27,1.2s4.39-.4,6.33-1.2c1.99-.86,3.82-2.11,5.36-3.59,1.54-1.54,2.73-3.36,3.59-5.41.8-1.88,1.25-4.04,1.25-6.27s-.46-4.39-1.25-6.33c-.86-2.05-2.05-3.88-3.59-5.36-1.54-1.54-3.36-2.73-5.41-3.59-1.88-.8-4.05-1.25-6.27-1.25s-4.33.46-6.27,1.25c-2.05.8-3.88,2.05-5.36,3.59h-.06c-1.54,1.54-2.74,3.36-3.59,5.36-.8,1.94-1.25,4.1-1.25,6.33v2.28l-14.87,3.7,22.06-42.68,1.65-.11c1.99-.11,3.93-.63,5.7-1.42,1.82-.8,3.48-1.94,4.9-3.36,1.54-1.54,2.73-3.36,3.59-5.36.8-1.94,1.25-4.1,1.25-6.33s-.46-4.39-1.25-6.33c-.86-1.99-2.05-3.82-3.59-5.36-1.54-1.48-3.36-2.74-5.36-3.59-1.94-.8-4.1-1.25-6.33-1.25s-4.33.46-6.27,1.25c-1.99.85-3.87,2.05-5.36,3.59l-.06.06c-1.48,1.48-2.74,3.31-3.59,5.36-.8,1.94-1.25,4.05-1.25,6.27s.46,4.39,1.25,6.27c.85,2.05,2.11,3.87,3.59,5.41l2.39,2.22c-8.32,16.07-16.64,32.14-24.9,48.27l-26.1,6.5-.57-34.31c9.74-17.32,19.55-34.71,29.35-52.03l1.65-.06c2.05-.11,4.05-.57,5.87-1.37,1.88-.86,3.59-2.05,5.01-3.48,1.48-1.48,2.74-3.31,3.59-5.36.8-1.94,1.25-4.05,1.25-6.32s-.46-4.39-1.25-6.27c-.85-2.05-2.11-3.88-3.59-5.36-1.54-1.54-3.36-2.79-5.41-3.59-1.94-.8-4.05-1.25-6.27-1.25s-4.33.4-6.27,1.2c-2.05.85-3.88,2.11-5.41,3.59v.06c-1.54,1.54-2.73,3.36-3.59,5.36-.8,1.94-1.25,4.05-1.25,6.27s.46,4.39,1.25,6.32c.85,1.99,2.05,3.82,3.53,5.36l2.17,2.05-20.86,37.1c-.57-32.42-1.08-64.79-1.6-97.22l1.82-.74c1.02-.46,1.99-.97,2.85-1.54.85-.57,1.65-1.25,2.45-2.05,1.54-1.48,2.73-3.31,3.59-5.36.8-1.94,1.25-4.05,1.25-6.27s-.46-4.39-1.25-6.33c-.86-2.05-2.11-3.88-3.59-5.36-1.54-1.54-3.36-2.79-5.41-3.59-1.94-.8-4.05-1.25-6.27-1.25s-4.33.46-6.27,1.25c-2.05.8-3.88,2.05-5.41,3.59h0c-1.54,1.54-2.73,3.36-3.59,5.36-.8,1.94-1.25,4.05-1.25,6.33s.46,4.33,1.25,6.27c.85,1.99,2.05,3.88,3.59,5.36.8.8,1.65,1.54,2.56,2.11.91.63,1.88,1.14,2.91,1.54l1.82.74c.8,51.06,1.59,102.06,2.45,153.12l-.91.86c-24.39,23.54-48.78,47.07-73.11,70.66l-1.43,1.31,2.28,119.27-1.65.8c-6.84,3.59-12.82,6.27-18.35,8.09-5.59,1.88-10.66,2.91-15.67,3.08l-2.96.11-2.11-139.9c24.05-24.85,48.15-49.64,72.37-74.37l1.54.28c.57.11,1.14.23,1.71.28.51.06,1.08.11,1.77.11,2.22,0,4.33-.46,6.27-1.25,2.05-.85,3.88-2.11,5.36-3.59,1.54-1.54,2.79-3.36,3.59-5.36.8-1.94,1.25-4.1,1.25-6.32s-.46-4.39-1.25-6.33c-.8-1.99-2.05-3.82-3.59-5.36-1.48-1.48-3.36-2.74-5.36-3.59-1.94-.8-4.04-1.25-6.27-1.25s-4.39.46-6.33,1.25c-1.99.86-3.82,2.05-5.36,3.59v.06c-1.54,1.48-2.79,3.31-3.59,5.36-.8,1.88-1.25,4.05-1.25,6.27,0,1.6.23,3.19.63,4.61.46,1.54,1.14,2.96,1.94,4.28l1.25,1.94-17.49,18.01.51-52.83,32.88-51-.57-92.77,1.88-.74c1.02-.4,2.05-.91,2.96-1.54.97-.57,1.82-1.31,2.68-2.11,1.48-1.54,2.74-3.36,3.59-5.41.8-1.88,1.2-4.05,1.2-6.27s-.4-4.39-1.25-6.33c-.8-2.05-2.05-3.88-3.59-5.36-1.48-1.54-3.3-2.74-5.36-3.59-1.94-.8-4.05-1.25-6.27-1.25s-4.39.46-6.33,1.25c-1.99.8-3.82,2.05-5.36,3.59-1.54,1.54-2.79,3.36-3.59,5.36-.8,1.94-1.25,4.05-1.25,6.33s.46,4.39,1.25,6.33c.8,1.99,2.05,3.82,3.59,5.36.74.74,1.59,1.42,2.39,1.99.8.57,1.77,1.03,2.74,1.48l1.77.74.17,31-20.06-21.31.86-1.77c.46-1.03.85-2.17,1.08-3.36.23-1.14.4-2.34.4-3.53,0-2.28-.46-4.39-1.25-6.33-.85-2.05-2.05-3.88-3.59-5.36-1.54-1.54-3.36-2.74-5.41-3.59-1.88-.8-4.04-1.25-6.27-1.25s-4.39.46-6.33,1.25c-1.99.8-3.82,2.05-5.36,3.59-1.54,1.54-2.73,3.36-3.59,5.36-.8,1.94-1.25,4.05-1.25,6.33s.46,4.39,1.25,6.33c.86,1.99,2.05,3.82,3.59,5.3,1.54,1.54,3.36,2.79,5.36,3.59,1.94.85,4.1,1.25,6.33,1.25,1.08,0,2.05-.06,2.96-.23.97-.17,1.88-.46,2.85-.8l1.82-.68,23.08,24.56,3.59-3.36.34,53.34-32.88,50.89-.63,64.85-38.35,39.44c-.4-27.98-.91-55.9-1.25-83.88,9.57-14.7,19.15-29.35,28.78-43.99l1.99.46c.57.11,1.2.23,1.82.34.57.06,1.2.06,1.88.06,2.22,0,4.39-.4,6.33-1.25,1.99-.8,3.82-2.05,5.36-3.59,1.48-1.48,2.74-3.31,3.59-5.36.8-1.94,1.25-4.05,1.25-6.27s-.46-4.39-1.25-6.33c-.85-2.05-2.11-3.88-3.59-5.36-1.54-1.54-3.36-2.74-5.41-3.59-1.94-.8-4.05-1.25-6.27-1.25s-4.39.46-6.33,1.25c-1.99.8-3.82,2.05-5.36,3.59-1.54,1.54-2.79,3.36-3.59,5.36-.8,1.94-1.25,4.05-1.25,6.33,0,1.6.23,3.13.63,4.56.46,1.48,1.08,2.91,1.88,4.22l1.03,1.6-26.39,40.35-19.94-24.28,40.35-59.61-1.82-75.91,1.6-.8c.63-.4,1.31-.85,1.99-1.31.63-.46,1.2-.97,1.82-1.6,1.48-1.54,2.74-3.36,3.59-5.36.8-1.94,1.2-4.05,1.2-6.33s-.4-4.39-1.2-6.27c-.85-2.05-2.11-3.88-3.59-5.36-1.54-1.54-3.36-2.79-5.41-3.59-1.94-.85-4.05-1.25-6.27-1.25s-4.39.4-6.33,1.25c-1.99.8-3.82,2.05-5.36,3.59-1.54,1.48-2.79,3.31-3.59,5.3-.8,1.94-1.25,4.1-1.25,6.33s.46,4.39,1.25,6.33c.8,1.99,2.05,3.82,3.59,5.36.97,1.03,2.05,1.82,3.25,2.56,1.14.68,2.39,1.2,3.7,1.6l2.05.63,1.71,72.09c-12.31,18.12-24.56,36.3-36.81,54.42l1.88-139.27,1.94-.63c1.2-.46,2.34-.97,3.42-1.65,1.02-.63,1.99-1.42,2.91-2.34,1.54-1.54,2.79-3.36,3.59-5.36.8-1.94,1.25-4.05,1.25-6.33s-.46-4.39-1.25-6.27c-.86-2.05-2.05-3.88-3.59-5.36-1.54-1.54-3.36-2.79-5.36-3.59-1.94-.85-4.1-1.25-6.33-1.25s-4.39.4-6.27,1.2c-2.05.85-3.87,2.11-5.41,3.59-1.48,1.54-2.73,3.36-3.59,5.36-.8,1.94-1.2,4.1-1.2,6.33s.4,4.39,1.2,6.33c.86,1.99,2.11,3.82,3.59,5.36.68.68,1.43,1.25,2.11,1.77.74.57,1.54,1.03,2.39,1.43l1.65.8-1.03,76.87-33.11-35.62c.17-13.91.34-27.75.51-41.66l1.94-.68c1.25-.4,2.39-.91,3.42-1.6,1.02-.63,1.99-1.42,2.91-2.34,1.54-1.54,2.73-3.36,3.59-5.36.8-1.94,1.25-4.05,1.25-6.33s-.46-4.39-1.25-6.27c-.86-2.05-2.05-3.87-3.59-5.36-1.54-1.54-3.36-2.79-5.41-3.59-1.88-.85-4.05-1.25-6.27-1.25s-4.39.4-6.33,1.2c-1.99.86-3.82,2.11-5.36,3.59-1.54,1.54-2.73,3.36-3.59,5.36-.8,1.94-1.25,4.1-1.25,6.33s.46,4.39,1.25,6.33c.86,1.99,2.05,3.82,3.59,5.36.68.68,1.37,1.31,2.11,1.82.74.51,1.54.97,2.39,1.37l1.65.86-.57,45.7,41.94,45.13-.57,40.46-51.63-62.97.97-1.77c.63-1.2,1.14-2.51,1.54-3.82.28-1.31.51-2.68.51-4.16,0-2.22-.46-4.39-1.25-6.33-.86-1.99-2.11-3.82-3.59-5.36-1.54-1.48-3.36-2.74-5.41-3.59-1.94-.8-4.05-1.25-6.27-1.25s-4.39.46-6.33,1.25c-1.99.85-3.82,2.05-5.36,3.59-1.54,1.54-2.74,3.36-3.59,5.36-.8,1.94-1.25,4.05-1.25,6.33s.46,4.39,1.25,6.33c.86,1.99,2.05,3.82,3.59,5.36,1.54,1.54,3.36,2.73,5.36,3.59,1.94.8,4.1,1.25,6.33,1.25.86,0,1.6-.06,2.34-.17.8-.11,1.6-.28,2.28-.51l1.88-.51,29.69,36.19-26.27-3.02-.51-1.94c-.34-1.42-.91-2.73-1.6-3.99-.74-1.25-1.65-2.45-2.68-3.48-1.54-1.48-3.36-2.74-5.41-3.59-1.88-.8-4.05-1.25-6.27-1.25s-4.39.46-6.33,1.25c-1.99.85-3.82,2.05-5.36,3.59-1.54,1.54-2.73,3.36-3.59,5.36-.8,1.94-1.25,4.05-1.25,6.33s.46,4.39,1.25,6.33c.86,1.99,2.05,3.82,3.59,5.36,1.54,1.54,3.36,2.73,5.36,3.59,1.94.8,4.1,1.25,6.33,1.25s4.39-.46,6.33-1.25c1.99-.85,3.82-2.05,5.36-3.59.51-.57,1.03-1.08,1.42-1.6.4-.57.8-1.14,1.2-1.77l.91-1.65,35.73,4.1,51,62.12c1.08,78.36,2.28,156.71,3.53,235.07l-3.76-1.08c-4.39-1.25-8.95-3.02-14.08-5.36-4.96-2.22-10.48-5.07-16.75-8.38l-1.6-.8.11-20.97.23-24.56c.23-18.58.46-37.1.74-55.56l.97-54.31-16.53-15.79,2.45-47.18-24.67-28.32.97-1.77c.57-1.14,1.08-2.39,1.43-3.76.28-1.25.46-2.62.46-3.99,0-2.28-.4-4.39-1.2-6.33-.85-2.05-2.11-3.87-3.59-5.36s-3.36-2.74-5.41-3.59c-1.94-.8-4.05-1.25-6.27-1.25s-4.39.46-6.27,1.25c-2.05.8-3.88,2.05-5.41,3.59h0c-1.54,1.54-2.74,3.36-3.59,5.36-.8,1.94-1.25,4.1-1.25,6.33s.46,4.33,1.25,6.27c.86,1.99,2.05,3.88,3.59,5.41,1.54,1.48,3.36,2.73,5.36,3.59,1.94.8,4.05,1.2,6.32,1.2.86,0,1.65-.06,2.45-.17.85-.11,1.65-.28,2.39-.51l1.82-.57,22.45,25.7-1.82,35.9-13.45-12.82.74-1.82c.4-.97.68-1.99.91-3.08.17-1.03.28-2.11.28-3.19,0-2.28-.46-4.39-1.25-6.33-.8-1.99-2.05-3.82-3.59-5.36-1.48-1.54-3.36-2.73-5.36-3.59-1.94-.8-4.05-1.25-6.27-1.25s-4.39.46-6.33,1.25c-1.99.86-3.82,2.05-5.36,3.59h0c-1.54,1.54-2.79,3.36-3.59,5.41-.8,1.88-1.25,4.05-1.25,6.27s.46,4.33,1.25,6.27c.8,2.05,2.05,3.88,3.59,5.41,1.54,1.48,3.36,2.73,5.36,3.59,1.94.8,4.05,1.2,6.33,1.2,1.14,0,2.22-.06,3.25-.28,1.08-.23,2.17-.57,3.19-.97l1.77-.74,35.84,34.19-.74,41.54-67.02-67.87-.46-20.4-.86-37.04-33.91-32.77.86-1.82c.46-1.03.8-2.17,1.08-3.31.23-1.14.34-2.28.34-3.48,0-2.22-.46-4.39-1.25-6.33-.86-1.99-2.05-3.82-3.59-5.3-1.54-1.54-3.36-2.79-5.36-3.65-1.94-.8-4.1-1.25-6.33-1.25s-4.33.46-6.27,1.25c-1.99.85-3.82,2.11-5.36,3.59l-.06.06c-1.48,1.48-2.73,3.36-3.59,5.36-.8,1.94-1.2,4.05-1.2,6.27s.4,4.39,1.2,6.27c.86,2.05,2.11,3.88,3.59,5.41,1.54,1.54,3.36,2.74,5.41,3.59,1.88.8,4.04,1.25,6.27,1.25,1.08,0,2.11-.11,3.02-.29,1.03-.17,1.99-.46,2.96-.8l1.71-.68,31.57,30.49.97,32.03-25.42-24.85.46-1.65c.17-.68.28-1.42.4-2.05.06-.68.11-1.37.11-2.17,0-2.22-.46-4.39-1.25-6.33-.85-1.99-2.05-3.82-3.59-5.36-1.54-1.48-3.36-2.74-5.36-3.59-1.94-.8-4.1-1.25-6.33-1.25s-4.33.46-6.27,1.25c-1.99.85-3.82,2.05-5.36,3.59v.06c-1.54,1.48-2.79,3.31-3.65,5.36-.8,1.94-1.2,4.05-1.2,6.27s.4,4.39,1.2,6.27c.85,2.05,2.11,3.87,3.59,5.41,1.54,1.54,3.36,2.73,5.41,3.59,1.88.8,4.05,1.25,6.27,1.25,1.54,0,2.96-.23,4.33-.57,1.37-.4,2.74-.91,3.93-1.65l1.94-1.08,31.11,30.32-.34,12.14,14.08,14.25-25.99-.51-15.04-.4c-5.41-.17-9.75-.34-12.94-.51l-2.28-.12-.46-2.22c-.28-1.65-.86-3.13-1.6-4.56-.8-1.42-1.77-2.73-2.91-3.88-1.54-1.54-3.36-2.79-5.36-3.59-1.94-.8-4.1-1.25-6.33-1.25s-4.33.46-6.27,1.25c-1.99.8-3.82,2.05-5.36,3.59h-.06c-1.48,1.54-2.74,3.36-3.59,5.36-.8,1.94-1.25,4.05-1.25,6.27s.46,4.39,1.25,6.33c.85,1.99,2.11,3.88,3.59,5.36,1.54,1.54,3.36,2.79,5.36,3.59,1.94.8,4.1,1.25,6.33,1.25s4.39-.46,6.33-1.25c1.99-.8,3.82-2.05,5.36-3.59l1.08-1.14.97-1.31.91-1.37,8.32.46,8.6.28c5.87.23,12.88.4,20.97.57,8.26.17,17.61.34,28.09.46l1.2.05,53,53.63c-.28,17.32-.51,34.65-.74,51.97l-.17,19.6-.11,21.2c-37.38-19.83-74.37-42.57-111.07-63.77-27.7-14.99-42.11-23.82-50.2-38.29-7.98-14.36-9.29-33.74-10.66-69.81-3.53-34.42,0-89.81,0-126.45,0-29.58.91-45.7,10.2-59.38,9.06-13.45,25.93-23.82,57.78-42l45.25-26.16c2.96-1.65,7.41-4.33,12.31-7.24C158.54,28.61,206.18.29,230.51.46c25.24.17,69.69,26.78,98.99,44.34,5.19,3.08,9.92,5.93,14.13,8.38h0ZM409.73,98.02l-69.01-39.83c-3.99-2.28-8.89-5.19-14.25-8.43-28.72-17.21-72.37-43.31-96.02-43.48-22.68-.11-69.47,27.64-98.07,44.62-4.39,2.62-8.26,4.96-12.37,7.29l-45.25,26.16c-31.06,17.67-47.47,27.75-55.9,40.23-8.32,12.31-9.17,27.7-9.17,56.07v126.34c1.37,35.1,2.56,53.85,9.97,67.07,7.29,13.16,21.14,21.54,47.81,36.02,33.91,20.06,68.44,39.49,102.52,59.21l.28-31.17.68-49.52-49.58-50.26-26.95-.46c-8.26-.17-15.27-.34-21.03-.57l-8.66-.28-5.19-.28-.28.34c-.51.63-.97,1.2-1.43,1.65-2.05,2.05-4.56,3.7-7.29,4.84-2.62,1.08-5.53,1.71-8.55,1.71s-5.87-.63-8.55-1.71c-2.73-1.14-5.19-2.79-7.24-4.84-2.05-2.11-3.76-4.56-4.84-7.3-1.08-2.62-1.71-5.53-1.71-8.55s.63-5.87,1.71-8.49c1.08-2.73,2.79-5.18,4.84-7.24v-.06c2.11-2.05,4.56-3.7,7.29-4.85,2.62-1.08,5.47-1.71,8.49-1.71s5.93.63,8.55,1.71c2.73,1.14,5.19,2.79,7.24,4.85,1.54,1.54,2.91,3.3,3.93,5.3.68,1.2,1.25,2.51,1.65,3.93l10.66.4,14.99.4,11.63.23-5.76-5.81.34-12.08-26.16-25.53c-1.14.46-2.22.91-3.42,1.2-1.82.51-3.82.74-5.81.74-2.96,0-5.87-.57-8.49-1.65-2.79-1.14-5.24-2.79-7.29-4.9-2.05-2.05-3.7-4.56-4.84-7.24-1.08-2.68-1.71-5.53-1.71-8.55s.63-5.87,1.71-8.49c1.14-2.74,2.79-5.19,4.84-7.29h.06c2.05-2.05,4.5-3.76,7.24-4.84,2.62-1.14,5.53-1.71,8.49-1.71s5.93.57,8.55,1.71c2.74,1.14,5.19,2.79,7.24,4.84,2.11,2.05,3.76,4.5,4.9,7.24,1.08,2.62,1.71,5.53,1.71,8.55,0,.91-.11,1.88-.23,2.85l-.17,1.14,12.71,12.42-.46-15.16-27.24-26.33c-.68.17-1.42.34-2.17.51-1.37.23-2.74.34-4.1.34-2.96,0-5.87-.57-8.55-1.65-2.74-1.14-5.19-2.79-7.24-4.84-2.05-2.11-3.7-4.62-4.84-7.29-1.08-2.68-1.71-5.53-1.71-8.55s.63-5.87,1.71-8.49c1.14-2.74,2.79-5.19,4.84-7.29h0c2.11-2.05,4.56-3.76,7.3-4.84,2.62-1.14,5.53-1.71,8.49-1.71s5.93.63,8.55,1.71c2.73,1.14,5.19,2.79,7.24,4.84,2.11,2.05,3.76,4.5,4.9,7.24,1.08,2.62,1.71,5.53,1.71,8.55,0,1.6-.17,3.13-.51,4.67-.17.85-.4,1.71-.68,2.51l32.71,31.68.63,25.25c.8-1.2,1.77-2.34,2.79-3.42l.06-.06c2.05-2.05,4.5-3.7,7.24-4.84,2.62-1.08,5.53-1.71,8.55-1.71s5.87.63,8.49,1.71c2.73,1.14,5.19,2.79,7.29,4.9,2.05,2.05,3.7,4.5,4.84,7.24,1.08,2.62,1.71,5.53,1.71,8.55,0,1.42-.17,2.91-.4,4.27-.17.8-.34,1.54-.57,2.28l1.43,1.37,1.08-20.86-18.46-21.14-1.42.28c-1.08.11-2.22.23-3.31.23-3.02,0-5.93-.63-8.55-1.71-2.73-1.14-5.24-2.79-7.29-4.84-2.05-2.11-3.7-4.56-4.84-7.29-1.08-2.62-1.71-5.53-1.71-8.49s.63-5.93,1.71-8.55c.8-1.88,1.82-3.65,3.13-5.24h-1.42c-3.02,0-5.93-.57-8.55-1.71-2.74-1.08-5.19-2.79-7.24-4.84-2.05-2.05-3.7-4.5-4.84-7.24-1.14-2.68-1.71-5.53-1.71-8.55s.57-5.87,1.71-8.55c1.14-2.73,2.79-5.18,4.84-7.24,2.05-2.05,4.5-3.76,7.24-4.84,2.62-1.14,5.53-1.71,8.55-1.71s5.87.57,8.55,1.71c2.68,1.08,5.19,2.79,7.24,4.84,1.37,1.37,2.62,2.96,3.59,4.67.63,1.08,1.2,2.28,1.65,3.48l8.09.97-18.24-22.17-1.14.17c-1.08.17-2.17.23-3.19.23-3.02,0-5.93-.57-8.55-1.71-2.74-1.08-5.24-2.79-7.29-4.84-1.99-2.05-3.7-4.5-4.84-7.24-1.08-2.68-1.65-5.53-1.65-8.55s.57-5.87,1.65-8.55c1.14-2.74,2.85-5.24,4.84-7.24,2.05-2.05,4.56-3.76,7.29-4.84,2.62-1.14,5.53-1.71,8.55-1.71s5.87.57,8.55,1.71c2.68,1.08,5.19,2.79,7.24,4.84.8.74,1.48,1.6,2.17,2.51l.51-41.77-1.54-1.03c-1.03-.74-1.99-1.54-2.85-2.39-2.05-2.05-3.7-4.56-4.84-7.29-1.14-2.62-1.71-5.53-1.71-8.55s.57-5.87,1.71-8.55c1.14-2.74,2.79-5.19,4.84-7.24,2.05-2.05,4.5-3.7,7.24-4.84,2.62-1.08,5.53-1.71,8.55-1.71s5.87.63,8.55,1.71c2.74,1.14,5.19,2.79,7.24,4.84,2.05,2.05,3.76,4.5,4.9,7.24.29.74.57,1.48.8,2.28l.46-1.25c1.14-2.74,2.79-5.19,4.84-7.24,2.05-2.05,4.5-3.7,7.24-4.84,2.68-1.08,5.53-1.71,8.55-1.71s5.93.63,8.55,1.71c2.74,1.14,5.19,2.79,7.24,4.84,2.11,2.05,3.76,4.5,4.9,7.24.86,2.11,1.43,4.33,1.6,6.67l1.2-1.31c2.05-2.05,4.56-3.7,7.29-4.84,2.62-1.08,5.53-1.71,8.55-1.71s5.87.63,8.49,1.71c2.73,1.14,5.19,2.79,7.29,4.84,2.05,2.05,3.7,4.5,4.84,7.24,1.08,2.68,1.71,5.53,1.71,8.55,0,1.03-.06,1.99-.17,2.96l.34-.17c2.62-1.08,5.53-1.71,8.55-1.71s5.87.63,8.55,1.71c2.73,1.14,5.19,2.79,7.24,4.84l.8.85-.11-1.94c0-3.02.63-5.93,1.71-8.55,1.14-2.74,2.79-5.24,4.84-7.29,2.05-2.05,4.56-3.7,7.3-4.84,2.62-1.08,5.53-1.71,8.55-1.71s5.87.63,8.49,1.71c2.73,1.14,5.19,2.79,7.29,4.9,2.05,1.99,3.7,4.5,4.85,7.24,1.08,2.62,1.71,5.53,1.71,8.55s-.63,5.87-1.71,8.55c-1.14,2.73-2.79,5.19-4.85,7.24-1.02,1.03-2.22,2.05-3.53,2.91-.74.46-1.48.85-2.22,1.25l.57,90.67-32.94,51-.4,36.58,4.27-4.39c-.63-1.2-1.08-2.45-1.48-3.76-.57-1.99-.91-4.1-.91-6.21,0-3.02.63-5.87,1.71-8.55,1.14-2.68,2.79-5.18,4.84-7.24l.06-.06c2.05-2.05,4.5-3.7,7.24-4.84,2.62-1.08,5.53-1.65,8.55-1.65s5.87.57,8.49,1.65c2.74,1.14,5.19,2.85,7.24,4.9,2.11,2.05,3.76,4.5,4.9,7.24,1.08,2.62,1.71,5.53,1.71,8.55s-.63,5.93-1.71,8.55c-1.14,2.74-2.79,5.19-4.84,7.24-2.05,2.05-4.5,3.7-7.24,4.84-2.68,1.14-5.59,1.71-8.55,1.71-.74,0-1.54-.06-2.34-.11l-.69-.06-68.55,70.38,1.99,131.41c3.53-.4,7.18-1.25,11.11-2.56,4.73-1.59,9.92-3.88,15.9-6.89l-2.22-118.13,3.25-3.14c24.05-23.25,48.1-46.56,72.2-69.75l-2.34-146.8c-.74-.4-1.48-.8-2.17-1.25-1.31-.85-2.45-1.82-3.48-2.85-2.11-2.11-3.76-4.56-4.9-7.29-1.08-2.62-1.65-5.53-1.65-8.49s.57-5.93,1.65-8.55c1.14-2.73,2.79-5.19,4.9-7.24v-.06c2.11-2.05,4.56-3.7,7.24-4.84,2.68-1.08,5.53-1.71,8.55-1.71s5.87.63,8.55,1.71c2.68,1.14,5.19,2.79,7.24,4.84,2.05,2.05,3.7,4.56,4.84,7.24,1.14,2.68,1.71,5.58,1.71,8.6s-.57,5.87-1.71,8.55c-1.14,2.74-2.79,5.19-4.84,7.24-.97.97-2.11,1.94-3.36,2.74-.63.46-1.25.85-1.94,1.2l1.14,71.8,8.15-14.48c-1.6-1.82-2.91-3.87-3.88-6.15-1.08-2.68-1.65-5.53-1.65-8.55s.57-5.87,1.65-8.49c1.14-2.74,2.79-5.19,4.84-7.24l.06-.06c2.05-2.05,4.56-3.7,7.24-4.84,2.68-1.08,5.53-1.71,8.55-1.71s5.87.63,8.55,1.71c2.68,1.14,5.19,2.79,7.24,4.84,2.05,2.05,3.7,4.5,4.84,7.24,1.14,2.68,1.71,5.53,1.71,8.55s-.57,5.93-1.71,8.55c-1.14,2.73-2.79,5.24-4.84,7.29-1.94,1.94-4.22,3.53-6.78,4.62-1.94.91-4.1,1.48-6.33,1.77l-27.01,47.92.4,25.36,16.41-4.1,21.71-42.06c-1.77-1.94-3.19-4.16-4.16-6.55-1.14-2.68-1.71-5.53-1.71-8.55s.57-5.87,1.71-8.49c1.08-2.74,2.79-5.19,4.85-7.29h0c2.11-2.11,4.56-3.76,7.29-4.84,2.62-1.14,5.47-1.71,8.49-1.71s5.87.57,8.55,1.71c2.74,1.08,5.19,2.79,7.24,4.84,2.05,2.05,3.76,4.5,4.9,7.24,1.08,2.62,1.65,5.53,1.65,8.55s-.57,5.93-1.65,8.55c-1.14,2.74-2.79,5.19-4.84,7.24-1.88,1.88-4.16,3.48-6.61,4.62-1.94.85-3.99,1.43-6.1,1.71l-6.38,12.31c1.14-.68,2.28-1.31,3.53-1.82,2.62-1.08,5.47-1.71,8.49-1.71s5.87.63,8.55,1.71c2.68,1.14,5.19,2.79,7.24,4.84,2.05,2.05,3.76,4.56,4.84,7.29,1.14,2.62,1.71,5.53,1.71,8.55s-.57,5.87-1.65,8.55c-1.14,2.73-2.85,5.18-4.9,7.24-2.05,2.05-4.5,3.7-7.24,4.84-2.62,1.08-5.53,1.71-8.55,1.71s-5.81-.63-8.43-1.65c-2.22-.91-4.22-2.17-5.98-3.65l-53.91,13.45-70.15,67.81,1.82,98.36c39.89-22.91,80.24-45.7,119.73-69.12,48.66-26.33,48.61-30.49,47.64-82.69l-.23-14.13c-.06-9.35.06-22.34.23-37.21.57-49.81,1.43-120.47-6.44-139.5-4.9-11.97-14.25-18.69-30.83-30.54l-3.42-2.45ZM287.84,102.29l-.74-.8.06,1.94c0,1.6-.17,3.19-.51,4.73-.17.91-.46,1.82-.74,2.74l7.24,7.75-.06-12.48c-.69-.34-1.31-.74-1.94-1.2-1.25-.8-2.34-1.71-3.31-2.68h0ZM249.03,119.22c-1.02-.97-1.88-2.05-2.68-3.19l1.37,56.93-38.92,57.56,12.08,14.76,20.06-30.66c-.63-1.25-1.2-2.62-1.6-4.05-.57-1.94-.86-4.05-.86-6.15,0-3.02.57-5.93,1.65-8.55,1.14-2.79,2.85-5.24,4.84-7.29,2.05-2.05,4.56-3.7,7.3-4.84,2.62-1.08,5.53-1.71,8.55-1.71s5.87.63,8.49,1.71c2.73,1.14,5.24,2.79,7.29,4.84,2.05,2.05,3.7,4.56,4.85,7.24,1.14,2.68,1.71,5.59,1.71,8.61,0,1.03-.06,2.05-.23,3.08l10.66-16.47-.23-42.06-22.57-23.99c-.69.17-1.31.28-1.99.4-1.31.29-2.68.4-3.99.4-3.02,0-5.93-.63-8.55-1.71-2.74-1.14-5.19-2.79-7.24-4.84h0ZM261.23,241.17l11.57-17.89c-1.08.68-2.22,1.25-3.42,1.77-2.62,1.08-5.53,1.71-8.55,1.71-.86,0-1.65-.06-2.51-.17l-.46-.06-25.64,39.21,1.03,68.04,26.9-27.7.63-64.22.46-.68ZM213.07,88.5c-.85-2.05-1.42-4.33-1.6-6.61l-1.2,1.31c-1.2,1.2-2.56,2.22-3.99,3.13-.85.51-1.77,1.03-2.68,1.42l-1.54,115.74,24.85-36.7-1.54-66.1c-1.08-.46-2.11-.97-3.08-1.54-1.6-.91-3.08-2.11-4.39-3.36-2.05-2.05-3.7-4.5-4.84-7.29h0ZM173.81,75.91c-.34-.74-.57-1.48-.8-2.22l-.46,1.2c-1.14,2.74-2.79,5.24-4.84,7.29-1.2,1.2-2.56,2.22-3.99,3.13-.85.51-1.77,1.03-2.62,1.42l-.46,35.27,21.6,23.25.8-58.64-1.54-1.03c-1.03-.74-1.99-1.54-2.85-2.39-2.05-2.05-3.7-4.56-4.84-7.29h0ZM181.84,175.18l-38.64-41.6c.74,2.22,1.14,4.62,1.14,7.07,0,1.88-.23,3.76-.68,5.58-.34,1.2-.74,2.34-1.2,3.42l39.09,47.64.29-22.11ZM133.18,205.04l-.11.17,1.37-.06c2.96,0,5.87.63,8.49,1.71,2.74,1.14,5.24,2.79,7.3,4.84,2.05,2.05,3.7,4.56,4.84,7.29,1.08,2.62,1.71,5.53,1.71,8.55,0,1.82-.23,3.65-.68,5.41-.28,1.08-.63,2.17-1.08,3.25l23.65,27.13-2.39,46.84,16.41,15.73v1.25c-.34,18.52-.68,37.04-.97,55.56-.34,18.58-.57,37.1-.8,55.56l-.23,24.5-.06,17.44c5.47,2.85,10.37,5.36,14.87,7.41,3.42,1.54,6.55,2.79,9.52,3.82l-3.42-224.98-48.21-58.75-29.63-3.42-.57.74ZM117.91,299.24c-.8-.8-1.54-1.71-2.22-2.62l.11,6.72,55.68,56.36.46-25.13-31.34-29.86c-.8.23-1.6.46-2.39.63-1.48.28-2.96.46-4.44.46-3.02,0-5.93-.63-8.55-1.71-2.79-1.14-5.24-2.79-7.29-4.84h0ZM116.59,190.22c-.11-.17-.28-.29-.46-.34-.17-.06-.4-.11-.68-.11-.23,0-.46.06-.63.11s-.4.23-.57.34c-.11.17-.28.34-.34.57-.06.17-.11.4-.11.63s.06.46.11.63c.06.23.23.4.34.57.17.11.4.28.57.34.17.06.4.11.63.11s.46-.06.63-.11c.23-.06.4-.23.57-.34.11-.17.28-.34.34-.57.06-.17.11-.4.11-.63s-.06-.46-.11-.63c-.06-.23-.23-.4-.4-.57h0ZM118.36,184.47c.91.4,1.77.97,2.39,1.65.68.68,1.25,1.54,1.65,2.45.34.85.57,1.82.57,2.85s-.23,1.99-.57,2.85c-.4.97-.97,1.77-1.65,2.45-.68.68-1.48,1.25-2.45,1.65-.85.34-1.82.57-2.85.57s-1.99-.23-2.85-.57c-.91-.4-1.77-.97-2.45-1.65-.68-.68-1.25-1.48-1.6-2.45-.4-.85-.63-1.82-.63-2.85s.23-1.99.63-2.85c.34-.97.91-1.77,1.6-2.45.68-.68,1.54-1.25,2.45-1.65.85-.34,1.82-.57,2.85-.57s1.99.23,2.91.57h0ZM123.15,139.45c-.11-.17-.28-.28-.46-.34-.23-.06-.46-.11-.68-.11s-.46.06-.63.11c-.23.06-.4.23-.57.34-.17.17-.28.34-.34.57-.06.17-.11.4-.11.63s.06.46.11.63c.06.23.23.4.34.57.17.11.34.28.57.34.17.06.4.11.63.11s.46-.06.63-.11c.17-.06.4-.23.51-.34.17-.17.28-.34.4-.57.06-.17.11-.4.11-.63s-.06-.46-.11-.63c-.11-.23-.23-.4-.4-.57h0ZM124.86,133.69c.97.4,1.77.97,2.45,1.65.68.68,1.25,1.54,1.6,2.45.4.85.63,1.82.63,2.85s-.23,1.99-.63,2.85c-.34.97-.91,1.77-1.6,2.45-.68.68-1.54,1.25-2.45,1.65-.85.34-1.88.57-2.85.57-1.03,0-1.99-.23-2.85-.57-.97-.4-1.77-.97-2.45-1.65-.68-.68-1.25-1.48-1.65-2.45-.34-.85-.57-1.82-.57-2.85s.23-1.99.57-2.85c.4-.97.97-1.77,1.65-2.45.68-.68,1.48-1.25,2.45-1.65.86-.34,1.82-.57,2.85-.57.97,0,1.99.23,2.85.57h0ZM153.01,65.14c-.11-.11-.28-.23-.46-.34-.17-.06-.4-.11-.68-.11-.23,0-.46.06-.63.11-.17.11-.4.23-.51.4-.17.17-.34.34-.4.51-.06.17-.11.4-.11.63s.06.46.11.63c.11.23.23.4.4.57.11.17.34.28.51.34.17.11.4.11.63.11s.46,0,.63-.11c.23-.06.4-.17.57-.34.11-.17.28-.34.34-.57.06-.17.11-.4.11-.63s-.06-.46-.11-.63c-.06-.23-.23-.4-.4-.57h0ZM154.78,59.44c.91.34,1.77.91,2.39,1.6.68.68,1.25,1.54,1.65,2.45.34.91.57,1.88.57,2.85,0,1.03-.23,1.99-.57,2.91-.4.91-.97,1.71-1.65,2.39-.68.68-1.48,1.25-2.39,1.65-.91.34-1.88.57-2.91.57s-1.99-.23-2.85-.57c-.91-.4-1.77-.97-2.45-1.65-.68-.63-1.25-1.48-1.6-2.39-.4-.91-.63-1.88-.63-2.91,0-.97.23-1.94.63-2.85.34-.91.91-1.77,1.6-2.45.68-.68,1.54-1.25,2.45-1.6.86-.4,1.82-.57,2.85-.57s1.99.17,2.91.57h0ZM195.63,66.16c-.17-.11-.34-.23-.51-.34-.17-.06-.4-.11-.68-.11-.23,0-.46.06-.63.11-.17.11-.4.23-.51.4-.17.17-.28.34-.4.51-.06.17-.11.4-.11.63s.06.46.11.63c.11.23.23.4.4.57.11.17.34.28.51.34.17.11.4.11.63.11s.46,0,.63-.11c.23-.06.4-.17.57-.34.17-.17.28-.34.34-.57.11-.17.11-.4.11-.63s0-.46-.11-.63c-.06-.23-.17-.4-.34-.57h0ZM197.34,60.46c.91.34,1.77.91,2.45,1.6.63.68,1.2,1.54,1.6,2.45.34.91.57,1.88.57,2.85,0,1.03-.23,1.99-.57,2.91-.4.91-.97,1.77-1.65,2.39-.68.68-1.48,1.25-2.39,1.65-.91.34-1.88.57-2.91.57-.97,0-1.94-.23-2.85-.57-.91-.4-1.77-.97-2.45-1.65-.68-.63-1.2-1.48-1.6-2.39-.4-.91-.57-1.88-.57-2.91,0-.97.17-1.94.57-2.85.4-.91.91-1.77,1.6-2.45.68-.68,1.54-1.25,2.45-1.6.91-.4,1.88-.57,2.85-.57,1.03,0,1.99.17,2.91.57h0ZM234.9,78.76c-.11-.11-.28-.23-.46-.34-.23-.06-.45-.11-.68-.11s-.46.06-.63.11c-.23.11-.4.23-.57.4-.17.17-.29.34-.34.51-.11.17-.11.4-.11.63s0,.46.11.63c.06.23.17.4.34.57.17.17.34.28.57.34.17.11.4.11.63.11s.46,0,.63-.11c.17-.06.4-.17.51-.34.17-.17.29-.34.4-.57.06-.17.11-.4.11-.63s-.06-.4-.11-.63c-.11-.23-.23-.4-.4-.57h0ZM236.61,73.06c.97.34,1.77.91,2.45,1.6.68.68,1.25,1.54,1.6,2.45.4.91.57,1.88.57,2.85,0,1.03-.17,1.99-.57,2.91-.34.91-.91,1.77-1.6,2.39-.68.68-1.54,1.25-2.45,1.65-.91.34-1.88.57-2.85.57-1.03,0-1.99-.23-2.91-.57-.91-.4-1.71-.97-2.39-1.65-.68-.63-1.25-1.48-1.65-2.39-.34-.91-.57-1.88-.57-2.91,0-.97.23-1.94.57-2.85.4-.91.97-1.77,1.65-2.45.68-.68,1.48-1.25,2.39-1.6.91-.4,1.88-.57,2.91-.57.97,0,1.99.17,2.85.57h0ZM261.97,203.16c-.11-.11-.28-.23-.46-.29-.23-.11-.45-.11-.68-.11s-.46,0-.63.11c-.23.06-.4.17-.57.34-.17.17-.28.34-.34.51-.06.23-.11.46-.11.68s.06.46.11.63c.06.17.17.34.34.51s.34.28.57.4c.17.06.4.11.63.11s.46-.06.63-.11c.17-.11.4-.23.51-.4.17-.17.29-.34.4-.51.05-.23.11-.4.11-.63s-.06-.46-.11-.63c-.11-.23-.23-.46-.4-.63h0ZM263.68,197.46c.97.4,1.77.97,2.45,1.65.69.68,1.25,1.48,1.6,2.39.4.91.63,1.88.63,2.91,0,.97-.23,1.94-.63,2.85-.34.91-.91,1.77-1.6,2.45-.68.68-1.54,1.2-2.45,1.6-.85.4-1.88.57-2.85.57-1.03,0-1.99-.17-2.91-.57-.91-.4-1.71-.91-2.4-1.6-.68-.68-1.25-1.54-1.65-2.45-.34-.91-.57-1.88-.57-2.85,0-1.03.23-1.99.57-2.91.4-.91.97-1.77,1.65-2.45.68-.63,1.48-1.2,2.4-1.6.91-.4,1.88-.57,2.91-.57.97,0,1.99.17,2.85.57h0ZM265.96,102.18c-.11-.11-.28-.23-.46-.29-.17-.11-.4-.11-.68-.11-.23,0-.45,0-.63.11-.17.06-.4.17-.51.34-.17.17-.34.34-.4.51-.06.23-.11.46-.11.68s.06.46.11.63c.06.17.23.34.4.51.11.17.34.28.51.4.17.06.4.11.63.11s.46-.06.63-.11c.23-.11.4-.23.57-.4.11-.17.28-.34.34-.51.06-.17.12-.4.12-.63s-.06-.46-.12-.63c-.06-.23-.23-.46-.4-.63h0ZM267.72,96.48c.91.4,1.77.97,2.39,1.65.69.68,1.25,1.48,1.65,2.39.34.91.57,1.88.57,2.91,0,.97-.23,1.94-.57,2.85-.4.91-.97,1.77-1.65,2.45-.68.68-1.48,1.2-2.45,1.6-.85.4-1.82.57-2.85.57s-1.99-.17-2.85-.57c-.91-.4-1.77-.91-2.45-1.6-.68-.68-1.25-1.54-1.59-2.45-.4-.91-.63-1.88-.63-2.85,0-1.03.23-1.99.63-2.91.34-.91.91-1.77,1.59-2.39.68-.68,1.54-1.25,2.45-1.65.86-.34,1.82-.57,2.85-.57s1.99.23,2.91.57h0ZM304.82,85.25c-.11-.11-.28-.23-.46-.29-.23-.11-.46-.11-.68-.11s-.46,0-.63.11c-.23.06-.4.17-.57.34-.17.17-.28.34-.34.51-.11.23-.11.46-.11.68s0,.46.11.63c.06.17.17.34.34.51.17.17.34.28.57.4.17.06.4.11.63.11s.45-.06.63-.11c.17-.12.4-.23.51-.4.17-.11.29-.34.4-.51.06-.17.11-.4.11-.63s-.06-.46-.11-.63c-.11-.23-.23-.46-.4-.63h0ZM306.53,79.55c.97.4,1.77.97,2.45,1.65.69.68,1.2,1.48,1.6,2.39.4.91.57,1.88.57,2.91,0,.97-.17,1.94-.57,2.85-.34.91-.91,1.77-1.6,2.45-.68.68-1.54,1.25-2.45,1.6-.91.4-1.88.57-2.85.57-1.03,0-1.99-.17-2.91-.57-.91-.34-1.71-.91-2.4-1.6-.68-.68-1.25-1.54-1.65-2.45-.34-.91-.57-1.88-.57-2.85,0-1.03.23-1.99.57-2.91.4-.91.97-1.77,1.65-2.39.69-.68,1.48-1.25,2.4-1.65.91-.34,1.88-.57,2.91-.57.97,0,1.94.23,2.85.57h0ZM344.82,125.88c-.11-.11-.28-.23-.46-.34-.23-.06-.46-.11-.68-.11s-.46.06-.69.17c-.17.06-.34.17-.51.28v.06c-.17.11-.28.28-.34.51-.06.17-.11.4-.11.68,0,.23.06.46.11.63.06.23.17.4.34.51.17.17.34.29.57.4.17.06.4.11.63.11s.45-.06.63-.17c.17-.06.4-.17.51-.34.17-.17.28-.34.4-.51.06-.23.11-.4.11-.63,0-.28-.06-.46-.11-.68-.06-.17-.23-.4-.4-.57h0ZM346.53,120.19c.97.4,1.77.91,2.45,1.65.68.63,1.25,1.48,1.6,2.39.4.91.63,1.88.63,2.91,0,.97-.23,1.94-.57,2.85-.4.91-.97,1.77-1.65,2.45-.68.68-1.54,1.2-2.45,1.6-.86.4-1.82.57-2.85.57s-1.99-.17-2.85-.57c-.91-.34-1.76-.91-2.45-1.6h-.06c-.68-.68-1.2-1.54-1.59-2.45-.34-.91-.57-1.88-.57-2.85,0-1.03.23-1.99.57-2.91.4-.91.91-1.77,1.59-2.45h.06c.69-.68,1.48-1.25,2.45-1.6.86-.4,1.82-.57,2.85-.57s1.99.17,2.85.57h0ZM381.41,188.28c-.11-.11-.28-.23-.46-.34-.23-.06-.46-.11-.68-.11s-.51.06-.68.11c-.17.11-.34.23-.51.34v.06c-.17.11-.28.28-.34.51-.06.17-.11.4-.11.63,0,.28.06.51.11.68.06.17.17.4.34.51.17.17.34.28.57.34.17.11.4.11.63.11s.46,0,.63-.11c.17-.06.4-.17.51-.34.17-.17.29-.34.4-.57.06-.17.11-.4.11-.63s-.06-.4-.11-.63c-.06-.17-.23-.4-.4-.57h0ZM383.12,182.58c.97.34,1.77.91,2.45,1.6.69.68,1.25,1.54,1.6,2.45.4.91.63,1.88.63,2.85,0,1.03-.23,1.99-.63,2.91-.34.91-.91,1.77-1.6,2.45-.68.63-1.54,1.2-2.45,1.6-.85.4-1.82.57-2.85.57s-1.99-.23-2.85-.57c-.91-.4-1.76-.91-2.45-1.6h-.06c-.68-.68-1.2-1.54-1.6-2.45-.34-.91-.57-1.88-.57-2.91,0-.97.23-1.94.57-2.85.4-.91.91-1.77,1.6-2.45h.06c.69-.68,1.48-1.25,2.45-1.65.86-.34,1.83-.51,2.85-.51s1.99.17,2.85.57h0ZM420.84,275.76c-.11-.11-.28-.23-.45-.28-.17-.11-.4-.11-.69-.11-.23,0-.46,0-.68.11-.17.06-.34.17-.51.34h0c-.11.17-.28.34-.34.51-.06.17-.12.4-.12.69,0,.23.06.46.12.63.06.23.23.4.34.51.17.17.34.28.57.4.17.06.4.11.63.11s.45-.06.63-.11c.23-.11.4-.23.57-.4.11-.11.28-.34.34-.51.06-.17.11-.4.11-.63s-.06-.46-.11-.63c-.06-.23-.23-.46-.4-.63h0ZM422.61,270.06c.91.4,1.76.97,2.39,1.65.68.68,1.25,1.48,1.59,2.39.4.91.63,1.88.63,2.91,0,.97-.23,1.94-.57,2.85-.4.91-.97,1.77-1.65,2.45-.68.68-1.48,1.25-2.45,1.6-.86.4-1.82.57-2.85.57-.97,0-1.94-.17-2.85-.57-.91-.34-1.77-.91-2.45-1.6h-.06c-.68-.68-1.2-1.54-1.6-2.45-.34-.91-.57-1.88-.57-2.85,0-1.03.23-1.99.57-2.91.4-.91.91-1.77,1.6-2.39l.06-.06c.68-.68,1.48-1.25,2.45-1.6.85-.4,1.82-.57,2.85-.57s1.99.23,2.91.57h0ZM412.13,222.53c-.17-.17-.34-.28-.51-.34-.17-.06-.4-.11-.68-.11-.23,0-.46.06-.68.11-.17.06-.34.17-.46.34h-.06c-.11.17-.28.34-.34.51-.05.23-.11.46-.11.68s.06.46.11.68c.06.17.23.34.34.51.17.11.34.28.57.34.17.06.4.11.63.11s.46-.06.63-.11c.23-.06.4-.23.57-.34.11-.17.28-.34.34-.57.06-.17.11-.4.11-.63s-.06-.46-.11-.63c-.06-.23-.23-.4-.34-.57h0ZM413.83,216.78c.91.4,1.77.97,2.4,1.65.68.68,1.25,1.54,1.65,2.45.34.85.57,1.82.57,2.85s-.23,1.99-.57,2.85c-.4.97-.97,1.77-1.65,2.45-.68.68-1.48,1.25-2.4,1.65-.91.34-1.88.57-2.91.57-.97,0-1.94-.23-2.85-.57-.91-.4-1.77-.97-2.45-1.6v-.06c-.69-.68-1.25-1.48-1.65-2.45-.34-.85-.57-1.82-.57-2.85s.23-1.99.57-2.85c.4-.97.97-1.77,1.65-2.45v-.06c.68-.68,1.54-1.2,2.45-1.6.85-.34,1.82-.57,2.85-.57s1.99.23,2.91.57h0ZM306.36,269.15c-.11-.17-.28-.29-.51-.34-.17-.06-.4-.11-.63-.11-.29,0-.51.06-.69.11-.17.06-.4.17-.51.34h-.06c-.11.17-.23.34-.28.51-.11.17-.17.46-.17.68s.06.46.17.68c.06.17.17.34.28.46.17.17.4.28.57.4.17.06.4.11.69.11.23,0,.4-.06.63-.11.17-.11.34-.23.51-.4.17-.11.28-.34.4-.51.06-.17.12-.4.12-.63s-.06-.46-.12-.63c-.11-.23-.23-.4-.4-.57h0ZM308.07,263.39c.91.4,1.77.97,2.45,1.65.69.68,1.2,1.48,1.6,2.45.4.85.57,1.82.57,2.85,0,.97-.17,1.99-.57,2.85-.4.91-.91,1.77-1.6,2.45-.68.68-1.54,1.25-2.45,1.6-.91.4-1.88.63-2.85.63-1.03,0-1.99-.23-2.91-.57-.91-.4-1.71-.97-2.39-1.6l-.06-.06c-.68-.69-1.25-1.54-1.6-2.45-.4-.86-.57-1.82-.57-2.85s.17-1.99.57-2.85c.34-.97.91-1.77,1.6-2.45v-.06c.69-.68,1.54-1.2,2.45-1.6.91-.34,1.88-.57,2.91-.57.97,0,1.94.23,2.85.57h0ZM134.89,282.25c-.11-.17-.28-.28-.51-.34-.17-.11-.4-.11-.63-.11-.28,0-.51,0-.68.11-.17.06-.4.17-.51.34h-.06c-.11.17-.23.34-.29.51-.11.17-.17.4-.17.69,0,.23.06.46.17.68.06.17.17.34.29.46.17.17.4.28.57.4.17.06.4.11.68.11.23,0,.4-.06.63-.11.17-.11.34-.23.51-.4.17-.11.29-.34.4-.51.06-.17.11-.4.11-.63s-.06-.46-.11-.63c-.11-.23-.23-.46-.4-.57h0ZM136.6,276.5c.91.4,1.77.97,2.45,1.65.68.68,1.2,1.48,1.6,2.39.4.91.57,1.88.57,2.91,0,.97-.17,1.94-.57,2.85-.4.91-.91,1.77-1.6,2.45-.68.68-1.54,1.25-2.45,1.6-.91.4-1.88.57-2.85.57-1.03,0-1.99-.17-2.91-.57-.91-.34-1.71-.91-2.39-1.54l-.06-.06c-.68-.68-1.25-1.54-1.6-2.45-.4-.86-.57-1.88-.57-2.85,0-1.03.17-1.99.57-2.91.34-.91.91-1.71,1.6-2.39v-.06c.68-.68,1.54-1.25,2.45-1.6.91-.34,1.88-.57,2.91-.57.97,0,1.94.23,2.85.57h0ZM135.57,226.29c-.11-.11-.28-.23-.46-.28-.23-.11-.46-.11-.69-.11-.28,0-.51,0-.68.11-.17.06-.34.17-.51.34h0c-.17.17-.28.34-.34.51-.11.17-.11.4-.11.68,0,.23.06.46.11.63.06.23.17.4.34.51.17.17.34.28.51.4.23.06.46.11.68.11s.46-.06.63-.11c.17-.11.4-.23.51-.4.17-.17.28-.34.4-.51.06-.17.11-.4.11-.63s-.06-.46-.11-.63c-.11-.23-.23-.46-.4-.63h0ZM137.28,220.59c.97.4,1.77.97,2.45,1.65.68.68,1.25,1.48,1.6,2.39.4.91.57,1.88.57,2.91,0,.97-.17,1.94-.57,2.85-.34.91-.91,1.77-1.6,2.45-.68.68-1.54,1.2-2.45,1.6-.91.4-1.88.57-2.85.57-1.02,0-1.99-.17-2.85-.57-.91-.34-1.77-.91-2.45-1.6h-.06c-.68-.68-1.25-1.54-1.6-2.45-.34-.91-.57-1.88-.57-2.85,0-1.03.23-1.99.57-2.91.34-.91.91-1.77,1.6-2.39l.06-.06c.68-.68,1.48-1.25,2.39-1.6.91-.4,1.88-.57,2.91-.57.97,0,1.99.23,2.85.57h0ZM61.77,205.78c-.17-.17-.34-.28-.51-.34-.17-.06-.4-.11-.68-.11-.23,0-.46.06-.69.11-.17.06-.34.23-.46.34l-.06.06c-.11.11-.23.28-.34.46-.06.23-.11.46-.11.68,0,.29.06.51.11.68.11.17.23.34.34.51.17.17.4.28.57.34.17.06.4.11.63.11s.46-.06.63-.11c.23-.06.4-.23.57-.34.17-.17.28-.34.34-.57.11-.17.11-.4.11-.63s0-.46-.11-.63c-.06-.23-.17-.4-.34-.57h0ZM63.48,200.08c.91.34,1.77.91,2.45,1.6.63.68,1.2,1.54,1.6,2.45.34.85.57,1.88.57,2.85,0,1.03-.23,1.99-.57,2.91-.4.91-.97,1.71-1.65,2.39-.68.68-1.48,1.25-2.39,1.65-.91.34-1.88.57-2.91.57-.97,0-1.94-.23-2.85-.57-.91-.4-1.71-.91-2.45-1.6v-.06c-.68-.68-1.25-1.48-1.65-2.45-.34-.85-.51-1.82-.51-2.85s.17-1.99.51-2.85c.4-.91.97-1.77,1.65-2.45h0c.68-.68,1.54-1.25,2.45-1.65.86-.34,1.88-.57,2.85-.57,1.02,0,1.99.23,2.91.63h0ZM61.03,252.34c-.17-.17-.34-.28-.51-.34-.17-.06-.4-.11-.69-.11-.23,0-.46.06-.63.11-.23.06-.4.23-.51.34l-.06.06c-.11.11-.23.28-.34.46-.06.23-.11.46-.11.68s.06.51.11.68c.11.17.23.34.34.51.17.11.4.28.57.34.17.06.4.11.63.11s.46-.06.63-.11c.23-.06.4-.23.57-.34.17-.17.28-.34.34-.57.11-.17.11-.4.11-.63s0-.46-.11-.63c-.06-.23-.17-.4-.34-.57h0ZM62.74,246.58c.91.4,1.77.97,2.45,1.65.63.68,1.2,1.54,1.6,2.45.4.85.57,1.82.57,2.85s-.17,1.99-.57,2.85c-.4.97-.97,1.77-1.6,2.45-.68.68-1.54,1.25-2.45,1.65-.91.34-1.88.57-2.91.57-.97,0-1.94-.23-2.85-.57-.91-.4-1.71-.97-2.39-1.6l-.06-.06c-.68-.68-1.25-1.48-1.65-2.45-.34-.85-.51-1.82-.51-2.85s.17-1.99.51-2.85c.4-.97.97-1.77,1.65-2.45v-.06c.68-.68,1.54-1.2,2.45-1.6.91-.34,1.88-.57,2.85-.57,1.03,0,1.99.23,2.91.57h0ZM43.2,321.69c-.17-.11-.34-.23-.51-.34-.17-.06-.4-.11-.68-.11-.23,0-.46.06-.68.17-.17.06-.34.17-.46.28l-.06.06c-.11.11-.23.28-.34.51-.06.17-.11.4-.11.63,0,.28.06.51.11.68.11.23.23.4.34.51.17.17.34.28.57.4.17.06.4.11.63.11s.46-.06.63-.17c.23-.06.4-.17.57-.34.11-.17.28-.34.34-.51.11-.23.11-.4.11-.68,0-.23,0-.4-.11-.63-.06-.17-.23-.4-.34-.57h0ZM44.91,315.99c.91.4,1.77.91,2.45,1.65.63.63,1.2,1.48,1.6,2.39.34.91.57,1.88.57,2.85,0,1.03-.23,1.99-.57,2.91-.4.91-.97,1.77-1.65,2.45-.68.69-1.48,1.2-2.39,1.6-.91.4-1.88.57-2.91.57-.97,0-1.94-.17-2.85-.57-.91-.34-1.77-.91-2.45-1.6h0c-.68-.68-1.25-1.54-1.65-2.45-.34-.91-.57-1.88-.57-2.91,0-.97.23-1.94.57-2.85.4-.91.97-1.77,1.65-2.45h0c.68-.68,1.54-1.25,2.45-1.59.85-.4,1.82-.57,2.85-.57s1.99.17,2.91.57h0Z" style="fill: none;"/>
    </clipPath>
  </defs>
  <g style="clip-path: url(#clippath);">
    <polygon points=".57 500.74 .57 497.38 458.06 496.86 458.06 500.17 .57 500.74" style="fill: #0c5b55;"/>
    <polygon points=".57 498.12 .57 495.84 458.06 495.33 458.06 497.6 .57 498.12" style="fill: #0c5b55;"/>
    <polygon points=".57 496.64 .57 494.36 458.06 493.79 458.06 496.07 .57 496.64" style="fill: #0b5c56;"/>
    <polygon points=".57 495.1 .57 492.82 458.06 492.3 458.06 494.59 .57 495.1" style="fill: #0b5c56;"/>
    <polygon points=".57 493.56 .57 491.28 458.06 490.77 458.06 493.05 .57 493.56" style="fill: #0b5c56;"/>
    <polygon points=".57 492.08 .57 489.8 458.06 489.28 458.06 491.51 .57 492.08" style="fill: #0e5d57;"/>
    <polygon points=".57 490.54 .57 488.26 458.06 487.75 458.06 490.03 .57 490.54" style="fill: #0e5d57;"/>
    <polygon points=".57 489 .57 486.78 458.06 486.21 458.06 488.49 .57 489" style="fill: #0b5d58;"/>
    <polygon points=".57 487.52 .57 485.24 458.06 484.73 458.06 487.01 .57 487.52" style="fill: #0b5d58;"/>
    <polygon points=".57 485.98 .57 483.7 458.06 483.19 458.06 485.47 .57 485.98" style="fill: #0d5e58;"/>
    <polygon points=".57 484.5 .57 482.22 458.06 481.65 458.06 483.93 .57 484.5" style="fill: #0d5e59;"/>
    <polygon points=".57 482.96 .57 480.68 458.06 480.17 458.06 482.45 .57 482.96" style="fill: #0d5e59;"/>
    <polygon points=".57 481.42 .57 479.14 458.06 478.63 458.06 480.91 .57 481.42" style="fill: #0c5f58;"/>
    <polygon points=".57 479.94 .57 477.66 458.06 477.09 458.06 479.37 .57 479.94" style="fill: #0d5f59;"/>
    <polygon points=".57 478.4 .57 476.12 458.06 475.61 458.06 477.89 .57 478.4" style="fill: #0d5f59;"/>
    <polygon points=".57 476.86 .57 474.58 458.06 474.07 458.06 476.35 .57 476.86" style="fill: #0b6059;"/>
    <polygon points=".57 475.38 .57 473.1 458.06 472.59 458.06 474.87 .57 475.38" style="fill: #0c605b;"/>
    <polygon points=".57 473.84 .57 471.56 458.06 471.05 458.06 473.33 .57 473.84" style="fill: #0c605b;"/>
    <polygon points=".57 472.3 .57 470.08 458.06 469.51 458.06 471.79 .57 472.3" style="fill: #0c605c;"/>
    <polygon points=".57 470.82 .57 468.54 458.06 468.03 458.06 470.31 .57 470.82" style="fill: #0b615b;"/>
    <polygon points=".57 469.28 .57 467 458.06 466.49 458.06 468.77 .57 469.28" style="fill: #0b615b;"/>
    <polygon points=".57 467.8 .57 465.52 458 464.95 458.06 467.23 .57 467.8" style="fill: #0b615d;"/>
    <polygon points=".57 466.26 .57 463.98 458 463.47 458 465.75 .57 466.26" style="fill: #0e615c;"/>
    <polygon points=".57 464.72 .57 462.44 458 461.93 458 464.21 .57 464.72" style="fill: #0e615c;"/>
    <polygon points=".57 463.24 .57 460.96 458 460.39 458 462.67 .57 463.24" style="fill: #0d625e;"/>
    <polygon points=".57 461.7 .51 459.42 458 458.91 458 461.19 .57 461.7" style="fill: #0c635e;"/>
    <polygon points=".57 460.17 .51 457.88 458 457.37 458 459.65 .57 460.17" style="fill: #0d625f;"/>
    <polygon points=".51 458.68 .51 456.4 458 455.89 458 458.17 .51 458.68" style="fill: #0d625f;"/>
    <polygon points=".51 457.14 .51 454.87 458 454.35 458 456.63 .51 457.14" style="fill: #0b635e;"/>
    <polygon points=".51 455.66 .51 453.38 458 452.81 458 455.09 .51 455.66" style="fill: #0b6360;"/>
    <polygon points=".51 454.13 .51 451.85 458 451.33 458 453.61 .51 454.13" style="fill: #0b6360;"/>
    <polygon points=".51 452.59 .51 450.31 458 449.79 458 452.07 .51 452.59" style="fill: #0b6360;"/>
    <polygon points=".51 451.1 .51 448.82 458 448.26 458 450.53 .51 451.1" style="fill: #0e6460;"/>
    <polygon points=".51 449.56 .51 447.29 458 446.77 458 449.05 .51 449.56" style="fill: #0e6460;"/>
    <polygon points=".51 448.03 .51 445.75 458 445.23 458 447.52 .51 448.03" style="fill: #0e6460;"/>
    <polygon points=".51 446.54 .51 444.27 458 443.75 458 445.98 .51 446.54" style="fill: #0c6562;"/>
    <polygon points=".51 445.01 .51 442.73 458 442.21 458 444.49 .51 445.01" style="fill: #0c6562;"/>
    <polygon points=".51 443.47 .51 441.19 458 440.68 458 442.96 .51 443.47" style="fill: #0c6563;"/>
    <polygon points=".51 441.99 .51 439.71 458 439.19 458 441.47 .51 441.99" style="fill: #0a6662;"/>
    <polygon points=".51 440.45 .51 438.17 458 437.66 458 439.93 .51 440.45" style="fill: #0a6662;"/>
    <polygon points=".51 438.97 .51 436.69 458 436.12 458 438.4 .51 438.97" style="fill: #0b6664;"/>
    <polygon points=".51 437.43 .51 435.15 458 434.64 458 436.91 .51 437.43" style="fill: #0b6664;"/>
    <polygon points=".51 435.89 .51 433.61 458 433.1 458 435.38 .51 435.89" style="fill: #0c6764;"/>
    <polygon points=".51 434.41 .51 432.13 458 431.56 458 433.84 .51 434.41" style="fill: #096765;"/>
    <polygon points=".51 432.87 .51 430.59 458 430.08 458 432.35 .51 432.87" style="fill: #096765;"/>
    <polygon points=".51 431.33 .51 429.05 458 428.54 458 430.82 .51 431.33" style="fill: #0c6865;"/>
    <polygon points=".51 429.85 .51 427.57 458 427.06 458 429.28 .51 429.85" style="fill: #0b6866;"/>
    <polygon points=".51 428.31 .51 426.03 458 425.52 458 427.8 .51 428.31" style="fill: #0b6866;"/>
    <polygon points=".51 426.77 .51 424.55 458 423.98 458 426.26 .51 426.77" style="fill: #0b6967;"/>
    <polygon points=".51 425.29 .51 423.01 458 422.5 458 424.78 .51 425.29" style="fill: #0b6967;"/>
    <polygon points=".51 423.75 .51 421.47 458 420.96 458 423.24 .51 423.75" style="fill: #0b6967;"/>
    <polygon points=".51 422.27 .51 419.99 458 419.42 458 421.7 .51 422.27" style="fill: #0d6a68;"/>
    <polygon points=".51 420.73 .51 418.45 458 417.94 458 420.22 .51 420.73" style="fill: #0d6a68;"/>
    <polygon points=".51 419.19 .51 416.91 457.94 416.4 458 418.68 .51 419.19" style="fill: #0d6a68;"/>
    <polygon points=".51 417.71 .51 415.43 457.94 414.86 458 417.14 .51 417.71" style="fill: #076a69;"/>
    <polygon points=".51 416.17 .51 413.89 457.94 413.38 457.94 415.66 .51 416.17" style="fill: #0b6b68;"/>
    <polygon points=".51 414.63 .51 412.35 457.94 411.84 457.94 414.12 .51 414.63" style="fill: #0b6b68;"/>
    <polygon points=".51 413.15 .51 410.87 457.94 410.36 457.94 412.64 .51 413.15" style="fill: #0a6b6a;"/>
    <polygon points=".51 411.61 .46 409.33 457.94 408.82 457.94 411.1 .51 411.61" style="fill: #096c6a;"/>
    <polygon points=".51 410.07 .46 407.85 457.94 407.28 457.94 409.56 .51 410.07" style="fill: #086c6b;"/>
    <polygon points=".46 408.59 .46 406.31 457.94 405.8 457.94 408.08 .46 408.59" style="fill: #086c6b;"/>
    <polygon points=".46 407.05 .46 404.78 457.94 404.26 457.94 406.54 .46 407.05" style="fill: #0c6d6a;"/>
    <polygon points=".46 405.57 .46 403.29 457.94 402.72 457.94 405 .46 405.57" style="fill: #0c6d6c;"/>
    <polygon points=".46 404.03 .46 401.75 457.94 401.24 457.94 403.52 .46 404.03" style="fill: #0c6d6c;"/>
    <polygon points=".46 402.49 .46 400.21 457.94 399.7 457.94 401.98 .46 402.49" style="fill: #0a6e6b;"/>
    <polygon points=".46 401.01 .46 398.73 457.94 398.16 457.94 400.44 .46 401.01" style="fill: #0b6e6d;"/>
    <polygon points=".46 399.47 .46 397.2 457.94 396.68 457.94 398.96 .46 399.47" style="fill: #0b6e6d;"/>
    <polygon points=".46 397.94 .46 395.66 457.94 395.14 457.94 397.42 .46 397.94" style="fill: #0b6e6d;"/>
    <polygon points=".46 396.46 .46 394.17 457.94 393.66 457.94 395.94 .46 396.46" style="fill: #086f6e;"/>
    <polygon points=".46 394.92 .46 392.64 457.94 392.12 457.94 394.4 .46 394.92" style="fill: #086f6e;"/>
    <polygon points=".46 393.38 .46 391.15 457.94 390.59 457.94 392.86 .46 393.38" style="fill: #076f6f;"/>
    <polygon points=".46 391.9 .46 389.62 457.94 389.1 457.94 391.38 .46 391.9" style="fill: #0a706f;"/>
    <polygon points=".46 390.36 .46 388.08 457.94 387.57 457.94 389.84 .46 390.36" style="fill: #0b706f;"/>
    <polygon points=".46 388.88 .46 386.6 457.94 386.03 457.94 388.31 .46 388.88" style="fill: #0a7070;"/>
    <polygon points=".46 387.34 .46 385.06 457.94 384.54 457.94 386.82 .46 387.34" style="fill: #077170;"/>
    <polygon points=".46 385.8 .46 383.52 457.94 383.01 457.94 385.28 .46 385.8" style="fill: #077170;"/>
    <polygon points=".46 384.32 .46 382.04 457.94 381.47 457.94 383.75 .46 384.32" style="fill: #087171;"/>
    <polygon points=".46 382.78 .46 380.5 457.94 379.99 457.94 382.26 .46 382.78" style="fill: #087171;"/>
    <polygon points=".46 381.24 .46 378.96 457.94 378.45 457.94 380.73 .46 381.24" style="fill: #057272;"/>
    <polygon points=".46 379.76 .46 377.48 457.94 376.96 457.94 379.25 .46 379.76" style="fill: #057272;"/>
    <polygon points=".46 378.22 .46 375.94 457.94 375.43 457.94 377.71 .46 378.22" style="fill: #0b7272;"/>
    <polygon points=".46 376.74 .46 374.46 457.94 373.89 457.94 376.17 .46 376.74" style="fill: #097373;"/>
    <polygon points=".46 375.2 .46 372.92 457.94 372.41 457.94 374.69 .46 375.2" style="fill: #097373;"/>
    <polygon points=".46 373.66 .46 371.38 457.94 370.87 457.94 373.15 .46 373.66" style="fill: #097373;"/>
    <polygon points=".46 372.18 .46 369.9 457.94 369.33 457.94 371.61 .46 372.18" style="fill: #067474;"/>
    <polygon points=".46 370.64 .46 368.36 457.94 367.85 457.94 370.13 .46 370.64" style="fill: #067474;"/>
    <polygon points=".46 369.1 .46 366.82 457.88 366.31 457.94 368.59 .46 369.1" style="fill: #067474;"/>
    <polygon points=".46 367.62 .46 365.34 457.88 364.83 457.94 367.05 .46 367.62" style="fill: #097575;"/>
    <polygon points=".46 366.08 .46 363.8 457.88 363.29 457.88 365.57 .46 366.08" style="fill: #097575;"/>
    <polygon points=".46 364.54 .46 362.26 457.88 361.75 457.88 364.03 .46 364.54" style="fill: #0a7576;"/>
    <polygon points=".46 363.06 .46 360.78 457.88 360.27 457.88 362.55 .46 363.06" style="fill: #0a7576;"/>
    <polygon points=".46 361.52 .4 359.24 457.88 358.73 457.88 361.01 .46 361.52" style="fill: #077676;"/>
    <polygon points=".4 360.04 .4 357.76 457.88 357.19 457.88 359.47 .4 360.04" style="fill: #077677;"/>
    <polygon points=".4 358.5 .4 356.22 457.88 355.71 457.88 357.99 .4 358.5" style="fill: #077677;"/>
    <polygon points=".4 356.96 .4 354.68 457.88 354.17 457.88 356.45 .4 356.96" style="fill: #0a7777;"/>
    <polygon points=".4 355.48 .4 353.2 457.88 352.63 457.88 354.91 .4 355.48" style="fill: #0a7778;"/>
    <polygon points=".4 353.94 .4 351.66 457.88 351.15 457.88 353.43 .4 353.94" style="fill: #0a7778;"/>
    <polygon points=".4 352.4 .4 350.12 457.88 349.61 457.88 351.89 .4 352.4" style="fill: #067879;"/>
    <polygon points=".4 350.92 .4 348.64 457.88 348.13 457.88 350.35 .4 350.92" style="fill: #087879;"/>
    <polygon points=".4 349.38 .4 347.1 457.88 346.59 457.88 348.87 .4 349.38" style="fill: #087879;"/>
    <polygon points=".4 347.85 .4 345.62 457.88 345.05 457.88 347.33 .4 347.85" style="fill: #06787b;"/>
    <polygon points=".4 346.36 .4 344.08 457.88 343.57 457.88 345.85 .4 346.36" style="fill: #09797a;"/>
    <polygon points=".4 344.82 .4 342.54 457.88 342.03 457.88 344.31 .4 344.82" style="fill: #09797a;"/>
    <polygon points=".4 343.34 .4 341.06 457.88 340.49 457.88 342.77 .4 343.34" style="fill: #0a797b;"/>
    <polygon points=".4 341.8 .4 339.53 457.88 339.01 457.88 341.29 .4 341.8" style="fill: #067a7b;"/>
    <polygon points=".4 340.27 .4 337.99 457.88 337.47 457.88 339.75 .4 340.27" style="fill: #067a7b;"/>
    <polygon points=".4 338.78 .4 336.5 457.88 335.93 457.88 338.21 .4 338.78" style="fill: #077a7d;"/>
    <polygon points=".4 337.25 .4 334.97 457.88 334.45 457.88 336.73 .4 337.25" style="fill: #0a7b7c;"/>
    <polygon points=".4 335.71 .4 333.43 457.88 332.92 457.88 335.19 .4 335.71" style="fill: #0a7b7c;"/>
    <polygon points=".4 334.22 .4 331.95 457.88 331.43 457.88 333.71 .4 334.22" style="fill: #0a7b7d;"/>
    <polygon points=".4 332.69 .4 330.41 457.88 329.89 457.88 332.17 .4 332.69" style="fill: #077c7e;"/>
    <polygon points=".4 331.15 .4 328.93 457.88 328.36 457.88 330.64 .4 331.15" style="fill: #077c7e;"/>
    <polygon points=".4 329.67 .4 327.39 457.88 326.87 457.88 329.15 .4 329.67" style="fill: #077c7e;"/>
    <polygon points=".4 328.13 .4 325.85 457.88 325.34 457.88 327.61 .4 328.13" style="fill: #077c7e;"/>
    <polygon points=".4 326.65 .4 324.37 457.88 323.8 457.88 326.08 .4 326.65" style="fill: #0b7d80;"/>
    <polygon points=".4 325.11 .4 322.83 457.88 322.32 457.88 324.6 .4 325.11" style="fill: #0b7d80;"/>
    <polygon points=".4 323.57 .4 321.29 457.88 320.78 457.88 323.06 .4 323.57" style="fill: #0b7d80;"/>
    <polygon points=".4 322.09 .4 319.81 457.88 319.24 457.88 321.52 .4 322.09" style="fill: #087e80;"/>
    <polygon points=".4 320.55 .4 318.27 457.88 317.76 457.88 320.04 .4 320.55" style="fill: #087e80;"/>
    <polygon points=".4 319.01 .4 316.73 457.83 316.22 457.88 318.5 .4 319.01" style="fill: #077e81;"/>
    <polygon points=".4 317.53 .4 315.25 457.83 314.74 457.83 317.01 .4 317.53" style="fill: #067e80;"/>
    <polygon points=".4 315.99 .4 313.71 457.83 313.2 457.83 315.48 .4 315.99" style="fill: #067e80;"/>
    <polygon points=".4 314.51 .4 312.23 457.83 311.66 457.83 313.94 .4 314.51" style="fill: #0a7f82;"/>
    <polygon points=".4 312.97 .34 310.69 457.83 310.18 457.83 312.46 .4 312.97" style="fill: #0a7f82;"/>
    <polygon points=".4 311.43 .34 309.15 457.83 308.64 457.83 310.92 .4 311.43" style="fill: #098082;"/>
    <polygon points=".34 309.95 .34 307.67 457.83 307.1 457.83 309.38 .34 309.95" style="fill: #078083;"/>
    <polygon points=".34 308.41 .34 306.13 457.83 305.62 457.83 307.9 .34 308.41" style="fill: #078083;"/>
    <polygon points=".34 306.87 .34 304.59 457.83 304.08 457.83 306.36 .34 306.87" style="fill: #048082;"/>
    <polygon points=".34 305.39 .34 303.11 457.83 302.6 457.83 304.82 .34 305.39" style="fill: #0b8084;"/>
    <polygon points=".34 303.85 .34 301.57 457.83 301.06 457.83 303.34 .34 303.85" style="fill: #0b8084;"/>
    <polygon points=".34 302.31 .34 300.03 457.83 299.52 457.83 301.8 .34 302.31" style="fill: #088185;"/>
    <polygon points=".34 300.83 .34 298.55 457.83 298.04 457.83 300.32 .34 300.83" style="fill: #088185;"/>
    <polygon points=".34 299.29 .34 297.01 457.83 296.5 457.83 298.78 .34 299.29" style="fill: #088185;"/>
    <polygon points=".34 297.81 .34 295.53 457.83 294.96 457.83 297.24 .34 297.81" style="fill: #0c8286;"/>
    <polygon points=".34 296.27 .34 293.99 457.83 293.48 457.83 295.76 .34 296.27" style="fill: #0c8286;"/>
    <polygon points=".34 294.73 .34 292.46 457.83 291.94 457.83 294.22 .34 294.73" style="fill: #0c8286;"/>
    <polygon points=".34 293.25 .34 290.97 457.83 290.4 457.83 292.68 .34 293.25" style="fill: #0a8287;"/>
    <polygon points=".34 291.71 .34 289.43 457.83 288.92 457.83 291.2 .34 291.71" style="fill: #078387;"/>
    <polygon points=".34 290.18 .34 287.9 457.83 287.38 457.83 289.66 .34 290.18" style="fill: #078387;"/>
    <polygon points=".34 288.69 .34 286.41 457.83 285.9 457.83 288.12 .34 288.69" style="fill: #088388;"/>
    <polygon points=".34 287.15 .34 284.87 457.83 284.36 457.83 286.64 .34 287.15" style="fill: #0b8488;"/>
    <polygon points=".34 285.62 .34 283.34 457.83 282.82 457.83 285.1 .34 285.62" style="fill: #0b8489;"/>
    <polygon points=".34 284.13 .34 281.86 457.83 281.34 457.83 283.62 .34 284.13" style="fill: #0b8489;"/>
    <polygon points=".34 282.6 .34 280.32 457.83 279.8 457.83 282.08 .34 282.6" style="fill: #078589;"/>
    <polygon points=".34 281.11 .34 278.83 457.83 278.26 457.83 280.54 .34 281.11" style="fill: #06858b;"/>
    <polygon points=".34 279.58 .34 277.3 457.83 276.78 457.83 279.06 .34 279.58" style="fill: #06858b;"/>
    <polygon points=".34 278.04 .34 275.76 457.83 275.25 457.83 277.52 .34 278.04" style="fill: #06858b;"/>
    <polygon points=".34 276.55 .34 274.28 457.83 273.71 457.83 275.99 .34 276.55" style="fill: #0b868b;"/>
    <polygon points=".34 275.02 .34 272.74 457.83 272.22 457.83 274.5 .34 275.02" style="fill: #0b868b;"/>
    <polygon points=".34 273.48 .34 271.2 457.83 270.69 457.83 272.97 .34 273.48" style="fill: #0b868b;"/>
    <polygon points=".34 272 .34 269.72 457.83 269.2 457.83 271.43 .34 272" style="fill: #0e878c;"/>
    <polygon points=".34 270.46 .34 268.18 457.77 267.67 457.83 269.94 .34 270.46" style="fill: #0e878c;"/>
    <polygon points=".34 268.92 .34 266.7 457.77 266.13 457.83 268.41 .34 268.92" style="fill: #0d888e;"/>
    <polygon points=".34 267.44 .34 265.16 457.77 264.64 457.77 266.93 .34 267.44" style="fill: #0c888d;"/>
    <polygon points=".34 265.9 .34 263.62 457.77 263.11 457.77 265.39 .34 265.9" style="fill: #0c888d;"/>
    <polygon points=".34 264.42 .34 262.14 457.77 261.57 457.77 263.85 .34 264.42" style="fill: #0b888e;"/>
    <polygon points=".34 262.88 .28 260.6 457.77 260.09 457.77 262.37 .34 262.88" style="fill: #0f898e;"/>
    <polygon points=".28 261.34 .28 259.06 457.77 258.55 457.77 260.83 .28 261.34" style="fill: #0f898e;"/>
    <polygon points=".28 259.86 .28 257.58 457.77 257.01 457.77 259.29 .28 259.86" style="fill: #0e898f;"/>
    <polygon points=".28 258.32 .28 256.04 457.77 255.53 457.77 257.81 .28 258.32" style="fill: #0e898f;"/>
    <polygon points=".28 256.78 .28 254.5 457.77 253.99 457.77 256.27 .28 256.78" style="fill: #0b8a91;"/>
    <polygon points=".28 255.3 .28 253.02 457.77 252.51 457.77 254.79 .28 255.3" style="fill: #0b8a91;"/>
    <polygon points=".28 253.76 .28 251.48 457.77 250.97 457.77 253.25 .28 253.76" style="fill: #0b8a91;"/>
    <polygon points=".28 252.22 .28 250 457.77 249.43 457.77 251.71 .28 252.22" style="fill: #108b91;"/>
    <polygon points=".28 250.74 .28 248.46 457.77 247.95 457.77 250.23 .28 250.74" style="fill: #108b91;"/>
    <polygon points=".28 249.2 .28 246.92 457.77 246.41 457.77 248.69 .28 249.2" style="fill: #108b91;"/>
    <polygon points=".28 247.72 .28 245.44 457.77 244.87 457.77 247.15 .28 247.72" style="fill: #0b8c93;"/>
    <polygon points=".28 246.18 .28 243.9 457.77 243.39 457.77 245.67 .28 246.18" style="fill: #0b8c93;"/>
    <polygon points=".28 244.64 .28 242.36 457.77 241.85 457.77 244.13 .28 244.64" style="fill: #0b8c93;"/>
    <polygon points=".28 243.16 .28 240.88 457.77 240.31 457.77 242.59 .28 243.16" style="fill: #0c8c93;"/>
    <polygon points=".28 241.62 .28 239.34 457.77 238.83 457.77 241.11 .28 241.62" style="fill: #0f8d93;"/>
    <polygon points=".28 240.08 .28 237.8 457.77 237.29 457.77 239.57 .28 240.08" style="fill: #108d94;"/>
    <polygon points=".28 238.6 .28 236.32 457.77 235.81 457.77 238.09 .28 238.6" style="fill: #108d94;"/>
    <polygon points=".28 237.06 .28 234.78 457.77 234.27 457.77 236.55 .28 237.06" style="fill: #128e94;"/>
    <polygon points=".28 235.58 .28 233.3 457.77 232.73 457.77 235.01 .28 235.58" style="fill: #118e95;"/>
    <polygon points=".28 234.04 .28 231.76 457.77 231.25 457.77 233.53 .28 234.04" style="fill: #118e95;"/>
    <polygon points=".28 232.5 .28 230.23 457.77 229.71 457.77 231.99 .28 232.5" style="fill: #108e95;"/>
    <polygon points=".28 231.02 .28 228.74 457.77 228.17 457.77 230.45 .28 231.02" style="fill: #0f8f96;"/>
    <polygon points=".28 229.48 .28 227.2 457.77 226.69 457.77 228.97 .28 229.48" style="fill: #0f8f96;"/>
    <polygon points=".28 227.95 .28 225.67 457.77 225.15 457.77 227.43 .28 227.95" style="fill: #129096;"/>
    <polygon points=".28 226.46 .28 224.18 457.77 223.67 457.77 225.89 .28 226.46" style="fill: #129097;"/>
    <polygon points=".28 224.93 .28 222.65 457.77 222.13 457.77 224.41 .28 224.93" style="fill: #129097;"/>
    <polygon points=".28 223.39 .28 221.11 457.77 220.59 457.77 222.87 .28 223.39" style="fill: #119098;"/>
    <polygon points=".28 221.91 .28 219.63 457.77 219.11 457.77 221.39 .28 221.91" style="fill: #159198;"/>
    <polygon points=".28 220.37 .28 218.09 457.71 217.57 457.77 219.85 .28 220.37" style="fill: #159198;"/>
    <polygon points=".28 218.88 .28 216.61 457.71 216.04 457.71 218.32 .28 218.88" style="fill: #14919a;"/>
    <polygon points=".28 217.35 .28 215.07 457.71 214.55 457.71 216.83 .28 217.35" style="fill: #129299;"/>
    <polygon points=".28 215.81 .28 213.53 457.71 213.02 457.71 215.29 .28 215.81" style="fill: #129299;"/>
    <polygon points=".28 214.33 .28 212.05 457.71 211.48 457.71 213.76 .28 214.33" style="fill: #13919a;"/>
    <polygon points=".28 212.79 .23 210.51 457.71 210 457.71 212.27 .28 212.79" style="fill: #15929a;"/>
    <polygon points=".23 211.25 .23 208.97 457.71 208.46 457.71 210.74 .23 211.25" style="fill: #13939b;"/>
    <polygon points=".23 209.77 .23 207.49 457.71 206.97 457.71 209.2 .23 209.77" style="fill: #17949c;"/>
    <polygon points=".23 208.23 .23 205.95 457.71 205.44 457.71 207.72 .23 208.23" style="fill: #15949d;"/>
    <polygon points=".23 206.69 .23 204.47 457.71 203.9 457.71 206.18 .23 206.69" style="fill: #17959e;"/>
    <polygon points=".23 205.21 .23 202.93 457.71 202.42 457.71 204.7 .23 205.21" style="fill: #1997a1;"/>
    <polygon points=".23 203.67 .23 201.39 457.71 200.88 457.71 203.16 .23 203.67" style="fill: #1797a1;"/>
    <polygon points=".23 202.19 .23 199.91 457.71 199.34 457.71 201.62 .23 202.19" style="fill: #1998a2;"/>
    <polygon points=".23 200.65 .23 198.37 457.71 197.86 457.71 200.14 .23 200.65" style="fill: #1799a3;"/>
    <polygon points=".23 199.11 .23 196.83 457.71 196.32 457.71 198.6 .23 199.11" style="fill: #1a9aa4;"/>
    <polygon points=".23 197.63 .23 195.35 457.71 194.78 457.71 197.06 .23 197.63" style="fill: #1a9aa5;"/>
    <polygon points=".23 196.09 .23 193.81 457.71 193.3 457.71 195.58 .23 196.09" style="fill: #1b9ba6;"/>
    <polygon points=".23 194.55 .23 192.27 457.71 191.76 457.71 194.04 .23 194.55" style="fill: #1e9ca7;"/>
    <polygon points=".23 193.07 .23 190.79 457.71 190.28 457.71 192.56 .23 193.07" style="fill: #1b9da8;"/>
    <polygon points=".23 191.53 .23 189.25 457.71 188.74 457.71 191.02 .23 191.53" style="fill: #1e9ea9;"/>
    <polygon points=".23 189.99 .23 187.77 457.71 187.2 457.71 189.48 .23 189.99" style="fill: #209faa;"/>
    <polygon points=".23 188.51 .23 186.23 457.71 185.72 457.71 188 .23 188.51" style="fill: #1ea0ab;"/>
    <polygon points=".23 186.97 .23 184.69 457.71 184.18 457.71 186.46 .23 186.97" style="fill: #20a1ac;"/>
    <polygon points=".23 185.49 .23 183.21 457.71 182.64 457.71 184.92 .23 185.49" style="fill: #1fa1ad;"/>
    <polygon points=".23 183.95 .23 181.67 457.71 181.16 457.71 183.44 .23 183.95" style="fill: #22a2ae;"/>
    <polygon points=".23 182.41 .23 180.13 457.71 179.62 457.71 181.9 .23 182.41" style="fill: #20a3af;"/>
    <polygon points=".23 180.93 .23 178.65 457.71 178.08 457.71 180.36 .23 180.93" style="fill: #22a3b0;"/>
    <polygon points=".23 179.39 .23 177.11 457.71 176.6 457.71 178.88 .23 179.39" style="fill: #24a5b1;"/>
    <polygon points=".23 177.86 .23 175.58 457.71 175.06 457.71 177.34 .23 177.86" style="fill: #23a5b2;"/>
    <polygon points=".23 176.37 .23 174.09 457.71 173.58 457.71 175.86 .23 176.37" style="fill: #24a6b3;"/>
    <polygon points=".23 174.83 .23 172.56 457.71 172.04 457.71 174.32 .23 174.83" style="fill: #24a6b4;"/>
    <polygon points=".23 173.3 .23 171.07 457.71 170.5 457.71 172.78 .23 173.3" style="fill: #26a7b5;"/>
    <polygon points=".23 171.81 .23 169.54 457.71 169.02 457.71 171.3 .23 171.81" style="fill: #27a9b6;"/>
    <polygon points=".23 170.28 .23 168 457.66 167.48 457.71 169.76 .23 170.28" style="fill: #2aa9b7;"/>
    <polygon points=".23 168.79 .23 166.51 457.66 165.94 457.66 168.22 .23 168.79" style="fill: #28aab8;"/>
    <polygon points=".23 167.26 .23 164.98 457.66 164.46 457.66 166.74 .23 167.26" style="fill: #29abba;"/>
    <polygon points=".23 165.72 .23 163.44 457.66 162.92 457.66 165.2 .23 165.72" style="fill: #2badbb;"/>
    <polygon points=".23 164.24 .17 161.96 457.66 161.39 457.66 163.66 .23 164.24" style="fill: #29adbc;"/>
    <polygon points=".23 162.7 .17 160.42 457.66 159.9 457.66 162.18 .23 162.7" style="fill: #2caebe;"/>
    <polygon points=".17 161.16 .17 158.88 457.66 158.37 457.66 160.65 .17 161.16" style="fill: #2baebe;"/>
    <polygon points=".17 159.68 .17 157.4 457.66 156.88 457.66 159.16 .17 159.68" style="fill: #2cafbf;"/>
    <polygon points=".17 158.14 .17 155.86 457.66 155.34 457.66 157.62 .17 158.14" style="fill: #2eb0c0;"/>
    <polygon points=".17 156.66 .17 154.38 457.66 153.81 457.66 156.09 .17 156.66" style="fill: #30b2c2;"/>
    <polygon points=".17 155.12 .17 152.84 457.66 152.33 457.66 154.6 .17 155.12" style="fill: #2fb2c2;"/>
    <polygon points=".17 153.58 .17 151.3 457.66 150.79 457.66 153.07 .17 153.58" style="fill: #31b3c3;"/>
    <polygon points=".17 152.1 .17 149.82 457.66 149.25 457.66 151.53 .17 152.1" style="fill: #30b3c4;"/>
    <polygon points=".17 150.56 .17 148.28 457.66 147.77 457.66 150.05 .17 150.56" style="fill: #35b5c6;"/>
    <polygon points=".17 149.02 .17 146.74 457.66 146.23 457.66 148.51 .17 149.02" style="fill: #36b6c7;"/>
    <polygon points=".17 147.54 .17 145.26 457.66 144.75 457.66 146.97 .17 147.54" style="fill: #38b7c8;"/>
    <polygon points=".17 146 .17 143.72 457.66 143.21 457.66 145.49 .17 146" style="fill: #3ab8c9;"/>
    <polygon points=".17 144.46 .17 142.18 457.66 141.67 457.66 143.95 .17 144.46" style="fill: #3cb9ca;"/>
    <polygon points=".17 142.98 .17 140.7 457.66 140.19 457.66 142.47 .17 142.98" style="fill: #3bb9cb;"/>
    <polygon points=".17 141.44 .17 139.16 457.66 138.65 457.66 140.93 .17 141.44" style="fill: #3dbacc;"/>
    <polygon points=".17 139.96 .17 137.68 457.66 137.11 457.66 139.39 .17 139.96" style="fill: #40bacc;"/>
    <polygon points=".17 138.42 .17 136.14 457.66 135.63 457.66 137.91 .17 138.42" style="fill: #3fbacd;"/>
    <polygon points=".17 136.88 .17 134.6 457.66 134.09 457.66 136.37 .17 136.88" style="fill: #42bbce;"/>
    <polygon points=".17 135.4 .17 133.12 457.66 132.55 457.66 134.83 .17 135.4" style="fill: #44bbce;"/>
    <polygon points=".17 133.86 .17 131.58 457.66 131.07 457.66 133.35 .17 133.86" style="fill: #46bccf;"/>
    <polygon points=".17 132.32 .17 130.04 457.66 129.53 457.66 131.81 .17 132.32" style="fill: #48bcd0;"/>
    <polygon points=".17 130.84 .17 128.56 457.66 128.05 457.66 130.27 .17 130.84" style="fill: #4abdd1;"/>
    <polygon points=".17 129.3 .17 127.02 457.66 126.51 457.66 128.79 .17 129.3" style="fill: #4abdd2;"/>
    <polygon points=".17 127.76 .17 125.54 457.66 124.97 457.66 127.25 .17 127.76" style="fill: #4cbdd2;"/>
    <polygon points=".17 126.28 .17 124 457.66 123.49 457.66 125.77 .17 126.28" style="fill: #4dbed3;"/>
    <polygon points=".17 124.74 .17 122.46 457.66 121.95 457.66 124.23 .17 124.74" style="fill: #4fbed3;"/>
    <polygon points=".17 123.26 .17 120.98 457.66 120.41 457.66 122.69 .17 123.26" style="fill: #4fbed4;"/>
    <polygon points=".17 121.72 .17 119.44 457.6 118.93 457.66 121.21 .17 121.72" style="fill: #51bed4;"/>
    <polygon points=".17 120.19 .17 117.91 457.6 117.39 457.66 119.67 .17 120.19" style="fill: #53bfd5;"/>
    <polygon points=".17 118.7 .17 116.42 457.6 115.85 457.6 118.13 .17 118.7" style="fill: #55bfd5;"/>
    <polygon points=".17 117.16 .17 114.88 457.6 114.37 457.6 116.65 .17 117.16" style="fill: #55bfd6;"/>
    <polygon points=".17 115.63 .17 113.35 457.6 112.83 457.6 115.11 .17 115.63" style="fill: #56c0d6;"/>
    <polygon points=".17 114.14 .11 111.87 457.6 111.35 457.6 113.63 .17 114.14" style="fill: #58c0d7;"/>
    <rect x=".06" y=".26" width="457.49" height="112.09" transform="translate(-.06 .23) rotate(-.06)" style="fill: #5ac1d8;"/>
  </g>
</svg>