<?xml version="1.0" encoding="UTF-8"?>
<svg id="Capa_2" data-name="Capa 2" xmlns="http://www.w3.org/2000/svg" xmlns:xlink="http://www.w3.org/1999/xlink" viewBox="0 0 500 500.73">
  <defs>
    <mask id="mask" x="0" y="0" width="500" height="500.73" maskUnits="userSpaceOnUse">
      <g>
        <path d="M147.57,478.33c-16.3-16.09-20.57-41.41-11.23-62.19,11.49-25.57,40.28-23.52,35.6-58.76-1.53-11.49-12.27-24.98-24.9-21.19-12.85,3.87-8.16,16.75-9.72,27.05-7.56,49.75-77.64,62.32-101.63,17.44-24.12-45.12,21.55-95.6,68.76-76.66,6.85,2.75,11.64,8.9,19.7,8,21.69-2.43,10.47-33.91-10.47-39.57-20.05-5.42-22.87,4.88-38.76,8.67-50.55,12.06-88.65-46.86-55.92-87.47,24.1-29.91,70.68-25.3,89.38,7.9,10.34,18.35,2.75,36.07,26.44,45.81,21.31,8.76,25.68-3.34,43.52-7.32,49.84-11.12,86.68,47.89,54.17,87.04-10.54,12.7-26.85,16.1-28.93,35.44-3.43,31.83,25.03,32.66,33.21,58.77,17.54,56.02-49.5,96.25-89.22,57.05Z" style="fill: #fff;"/>
        <path d="M268.36,112.63c-1.23,1.37-2.68,5.05-2.94,6.91-3.79,26.79,29.96,26.76,44.61,11.78,10.54-10.77,6.54-21.57,10.05-34.62,11.21-41.79,67.85-54.08,94.96-19.26,31.98,41.07-5.48,97.89-55.2,86.75-13.78-3.09-17.67-10.67-33.7-4.93-25.23,9.02-18.32,26.05-24.41,45.22-16.06,50.51-90,49.03-103.79-1.85-4.16-15.36,1.27-25.17-13.62-36.3-21.92-16.39-28.92-1.11-48.37,1.09-44.25,5.02-76.25-38.35-56.54-78.89,20.53-42.24,84.74-37.8,99.28,5.92,6.23,18.73-.13,36.64,24.01,45.62,16.32,6.07,37.52-2.2,29.89-22.02-2.59-6.73-15.38-11.73-21.12-16.97-32.97-30.05-15.75-89.64,29.51-94.01,54.74-5.29,83.16,60.32,42.76,95.33-3.93,3.4-12.81,7.38-15.37,10.24Z" style="fill: #fff;"/>
        <path d="M362.07,337.36c-2.05-2.07-7.81-4.48-10.74-4.45-18.45,4.69-24.35,24.95-19.43,41.85,4.93,16.95,17.42,17.39,27.36,29.13,24.01,28.34,13.48,73.07-21.7,86.06-48.48,17.9-91.09-33.01-66.21-78.05,9.87-17.87,29.34-20.34,28.2-45.47-1.22-26.67-24.91-27.71-35.75-48.36-21.44-40.87,11.56-85.58,57.02-79.37,18.25,2.49,24.67,17.62,47.02,6.93,19.72-9.43,14.24-23.51,20.59-39.85,14.72-37.89,66.6-45.67,92.3-14.04,34.44,42.38-7.94,102.13-59.66,85.95-6.65-2.08-14.91-8.51-21.26-9.06-12.17-1.06-31.81,9.91-33.36,22.9-.68,5.69-.33,11.63,4.81,14.97,12.25,7.94,20.84-5.44,33.04-8.64,43.45-11.41,80.68,26.72,67.19,69.84-16.23,51.88-93.15,47.23-104.42-5.77-1.46-6.87-.65-20.18-4.99-24.57Z" style="fill: #fff;"/>
      </g>
    </mask>
  </defs>
  <g style="mask: url(#mask);">
    <g>
      <polygon points=".62 500.73 .62 497.37 500 496.85 500 500.16 .62 500.73" style="fill: #0c5b55;"/>
      <polygon points=".62 498.11 .62 495.83 500 495.32 500 497.59 .62 498.11" style="fill: #0c5b55;"/>
      <polygon points=".62 496.63 .62 494.35 500 493.78 500 496.06 .62 496.63" style="fill: #0b5c56;"/>
      <polygon points=".62 495.09 .62 492.81 500 492.29 500 494.58 .62 495.09" style="fill: #0b5c56;"/>
      <polygon points=".62 493.55 .62 491.27 500 490.76 500 493.04 .62 493.55" style="fill: #0b5c56;"/>
      <polygon points=".62 492.07 .62 489.79 500 489.27 500 491.5 .62 492.07" style="fill: #0e5d57;"/>
      <polygon points=".62 490.53 .62 488.25 500 487.74 500 490.02 .62 490.53" style="fill: #0e5d57;"/>
      <polygon points=".62 488.99 .62 486.77 500 486.2 500 488.48 .62 488.99" style="fill: #0b5d58;"/>
      <polygon points=".62 487.51 .62 485.23 500 484.72 500 487 .62 487.51" style="fill: #0b5d58;"/>
      <polygon points=".62 485.97 .62 483.69 500 483.18 500 485.46 .62 485.97" style="fill: #0d5e58;"/>
      <polygon points=".62 484.49 .62 482.21 500 481.64 500 483.92 .62 484.49" style="fill: #0d5e59;"/>
      <polygon points=".62 482.95 .62 480.67 500 480.16 500 482.44 .62 482.95" style="fill: #0d5e59;"/>
      <polygon points=".62 481.41 .62 479.13 500 478.62 500 480.9 .62 481.41" style="fill: #0c5f58;"/>
      <polygon points=".62 479.93 .62 477.65 500 477.08 500 479.36 .62 479.93" style="fill: #0d5f59;"/>
      <polygon points=".62 478.39 .62 476.11 500 475.6 500 477.88 .62 478.39" style="fill: #0d5f59;"/>
      <polygon points=".62 476.85 .62 474.57 500 474.06 500 476.34 .62 476.85" style="fill: #0b6059;"/>
      <polygon points=".62 475.37 .62 473.09 500 472.58 500 474.86 .62 475.37" style="fill: #0c605b;"/>
      <polygon points=".62 473.83 .62 471.55 500 471.04 500 473.32 .62 473.83" style="fill: #0c605b;"/>
      <polygon points=".62 472.29 .62 470.07 500 469.5 500 471.78 .62 472.29" style="fill: #0c605c;"/>
      <polygon points=".62 470.81 .62 468.53 500 468.02 500 470.3 .62 470.81" style="fill: #0b615b;"/>
      <polygon points=".62 469.27 .62 466.99 500 466.48 500 468.76 .62 469.27" style="fill: #0b615b;"/>
      <polygon points=".62 467.79 .62 465.51 499.93 464.94 500 467.22 .62 467.79" style="fill: #0b615d;"/>
      <polygon points=".62 466.25 .62 463.97 499.93 463.46 499.93 465.74 .62 466.25" style="fill: #0e615c;"/>
      <polygon points=".62 464.71 .62 462.43 499.93 461.92 499.93 464.2 .62 464.71" style="fill: #0e615c;"/>
      <polygon points=".62 463.23 .62 460.95 499.93 460.38 499.93 462.66 .62 463.23" style="fill: #0d625e;"/>
      <polygon points=".62 461.69 .56 459.41 499.93 458.9 499.93 461.18 .62 461.69" style="fill: #0c635e;"/>
      <polygon points=".62 460.16 .56 457.87 499.93 457.36 499.93 459.64 .62 460.16" style="fill: #0d625f;"/>
      <polygon points=".56 458.67 .56 456.39 499.93 455.88 499.93 458.16 .56 458.67" style="fill: #0d625f;"/>
      <polygon points=".56 457.13 .56 454.86 499.93 454.34 499.93 456.62 .56 457.13" style="fill: #0b635e;"/>
      <polygon points=".56 455.65 .56 453.37 499.93 452.8 499.93 455.08 .56 455.65" style="fill: #0b6360;"/>
      <polygon points=".56 454.12 .56 451.84 499.93 451.32 499.93 453.6 .56 454.12" style="fill: #0b6360;"/>
      <polygon points=".56 452.58 .56 450.3 499.93 449.78 499.93 452.06 .56 452.58" style="fill: #0b6360;"/>
      <polygon points=".56 451.09 .56 448.81 499.93 448.25 499.93 450.52 .56 451.09" style="fill: #0e6460;"/>
      <polygon points=".56 449.55 .56 447.28 499.93 446.76 499.93 449.04 .56 449.55" style="fill: #0e6460;"/>
      <polygon points=".56 448.02 .56 445.74 499.93 445.22 499.93 447.51 .56 448.02" style="fill: #0e6460;"/>
      <polygon points=".56 446.53 .56 444.26 499.93 443.74 499.93 445.97 .56 446.53" style="fill: #0c6562;"/>
      <polygon points=".56 445 .56 442.72 499.93 442.2 499.93 444.48 .56 445" style="fill: #0c6562;"/>
      <polygon points=".56 443.46 .56 441.18 499.93 440.67 499.93 442.95 .56 443.46" style="fill: #0c6563;"/>
      <polygon points=".56 441.98 .56 439.7 499.93 439.18 499.93 441.46 .56 441.98" style="fill: #0a6662;"/>
      <polygon points=".56 440.44 .56 438.16 499.93 437.65 499.93 439.92 .56 440.44" style="fill: #0a6662;"/>
      <polygon points=".56 438.96 .56 436.68 499.93 436.11 499.93 438.39 .56 438.96" style="fill: #0b6664;"/>
      <polygon points=".56 437.42 .56 435.14 499.93 434.63 499.93 436.9 .56 437.42" style="fill: #0b6664;"/>
      <polygon points=".56 435.88 .56 433.6 499.93 433.09 499.93 435.37 .56 435.88" style="fill: #0c6764;"/>
      <polygon points=".56 434.4 .56 432.12 499.93 431.55 499.93 433.83 .56 434.4" style="fill: #096765;"/>
      <polygon points=".56 432.86 .56 430.58 499.93 430.07 499.93 432.34 .56 432.86" style="fill: #096765;"/>
      <polygon points=".56 431.32 .56 429.04 499.93 428.53 499.93 430.81 .56 431.32" style="fill: #0c6865;"/>
      <polygon points=".56 429.84 .56 427.56 499.93 427.05 499.93 429.27 .56 429.84" style="fill: #0b6866;"/>
      <polygon points=".56 428.3 .56 426.02 499.93 425.51 499.93 427.79 .56 428.3" style="fill: #0b6866;"/>
      <polygon points=".56 426.76 .56 424.54 499.93 423.97 499.93 426.25 .56 426.76" style="fill: #0b6967;"/>
      <polygon points=".56 425.28 .56 423 499.93 422.49 499.93 424.77 .56 425.28" style="fill: #0b6967;"/>
      <polygon points=".56 423.74 .56 421.46 499.93 420.95 499.93 423.23 .56 423.74" style="fill: #0b6967;"/>
      <polygon points=".56 422.26 .56 419.98 499.93 419.41 499.93 421.69 .56 422.26" style="fill: #0d6a68;"/>
      <polygon points=".56 420.72 .56 418.44 499.93 417.93 499.93 420.21 .56 420.72" style="fill: #0d6a68;"/>
      <polygon points=".56 419.18 .56 416.9 499.87 416.39 499.93 418.67 .56 419.18" style="fill: #0d6a68;"/>
      <polygon points=".56 417.7 .56 415.42 499.87 414.85 499.93 417.13 .56 417.7" style="fill: #076a69;"/>
      <polygon points=".56 416.16 .56 413.88 499.87 413.37 499.87 415.65 .56 416.16" style="fill: #0b6b68;"/>
      <polygon points=".56 414.62 .56 412.34 499.87 411.83 499.87 414.11 .56 414.62" style="fill: #0b6b68;"/>
      <polygon points=".56 413.14 .56 410.86 499.87 410.35 499.87 412.63 .56 413.14" style="fill: #0a6b6a;"/>
      <polygon points=".56 411.6 .5 409.32 499.87 408.81 499.87 411.09 .56 411.6" style="fill: #096c6a;"/>
      <polygon points=".56 410.06 .5 407.84 499.87 407.27 499.87 409.55 .56 410.06" style="fill: #086c6b;"/>
      <polygon points=".5 408.58 .5 406.3 499.87 405.79 499.87 408.07 .5 408.58" style="fill: #086c6b;"/>
      <polygon points=".5 407.04 .5 404.77 499.87 404.25 499.87 406.53 .5 407.04" style="fill: #0c6d6a;"/>
      <polygon points=".5 405.56 .5 403.28 499.87 402.71 499.87 404.99 .5 405.56" style="fill: #0c6d6c;"/>
      <polygon points=".5 404.02 .5 401.74 499.87 401.23 499.87 403.51 .5 404.02" style="fill: #0c6d6c;"/>
      <polygon points=".5 402.48 .5 400.2 499.87 399.69 499.87 401.97 .5 402.48" style="fill: #0a6e6b;"/>
      <polygon points=".5 401 .5 398.72 499.87 398.15 499.87 400.43 .5 401" style="fill: #0b6e6d;"/>
      <polygon points=".5 399.46 .5 397.19 499.87 396.67 499.87 398.95 .5 399.46" style="fill: #0b6e6d;"/>
      <polygon points=".5 397.93 .5 395.65 499.87 395.13 499.87 397.41 .5 397.93" style="fill: #0b6e6d;"/>
      <polygon points=".5 396.45 .5 394.16 499.87 393.65 499.87 395.93 .5 396.45" style="fill: #086f6e;"/>
      <polygon points=".5 394.91 .5 392.63 499.87 392.11 499.87 394.39 .5 394.91" style="fill: #086f6e;"/>
      <polygon points=".5 393.37 .5 391.14 499.87 390.58 499.87 392.85 .5 393.37" style="fill: #076f6f;"/>
      <polygon points=".5 391.89 .5 389.61 499.87 389.09 499.87 391.37 .5 391.89" style="fill: #0a706f;"/>
      <polygon points=".5 390.35 .5 388.07 499.87 387.56 499.87 389.83 .5 390.35" style="fill: #0b706f;"/>
      <polygon points=".5 388.87 .5 386.59 499.87 386.02 499.87 388.3 .5 388.87" style="fill: #0a7070;"/>
      <polygon points=".5 387.33 .5 385.05 499.87 384.53 499.87 386.81 .5 387.33" style="fill: #077170;"/>
      <polygon points=".5 385.79 .5 383.51 499.87 383 499.87 385.27 .5 385.79" style="fill: #077170;"/>
      <polygon points=".5 384.31 .5 382.03 499.87 381.46 499.87 383.74 .5 384.31" style="fill: #087171;"/>
      <polygon points=".5 382.77 .5 380.49 499.87 379.98 499.87 382.25 .5 382.77" style="fill: #087171;"/>
      <polygon points=".5 381.23 .5 378.95 499.87 378.44 499.87 380.72 .5 381.23" style="fill: #057272;"/>
      <polygon points=".5 379.75 .5 377.47 499.87 376.95 499.87 379.24 .5 379.75" style="fill: #057272;"/>
      <polygon points=".5 378.21 .5 375.93 499.87 375.42 499.87 377.7 .5 378.21" style="fill: #0b7272;"/>
      <polygon points=".5 376.73 .5 374.45 499.87 373.88 499.87 376.16 .5 376.73" style="fill: #097373;"/>
      <polygon points=".5 375.19 .5 372.91 499.87 372.4 499.87 374.68 .5 375.19" style="fill: #097373;"/>
      <polygon points=".5 373.65 .5 371.37 499.87 370.86 499.87 373.14 .5 373.65" style="fill: #097373;"/>
      <polygon points=".5 372.17 .5 369.89 499.87 369.32 499.87 371.6 .5 372.17" style="fill: #067474;"/>
      <polygon points=".5 370.63 .5 368.35 499.87 367.84 499.87 370.12 .5 370.63" style="fill: #067474;"/>
      <polygon points=".5 369.09 .5 366.81 499.8 366.3 499.87 368.58 .5 369.09" style="fill: #067474;"/>
      <polygon points=".5 367.61 .5 365.33 499.8 364.82 499.87 367.04 .5 367.61" style="fill: #097575;"/>
      <polygon points=".5 366.07 .5 363.79 499.8 363.28 499.8 365.56 .5 366.07" style="fill: #097575;"/>
      <polygon points=".5 364.53 .5 362.25 499.8 361.74 499.8 364.02 .5 364.53" style="fill: #0a7576;"/>
      <polygon points=".5 363.05 .5 360.77 499.8 360.26 499.8 362.54 .5 363.05" style="fill: #0a7576;"/>
      <polygon points=".5 361.51 .44 359.23 499.8 358.72 499.8 361 .5 361.51" style="fill: #077676;"/>
      <polygon points=".44 360.03 .44 357.75 499.8 357.18 499.8 359.46 .44 360.03" style="fill: #077677;"/>
      <polygon points=".44 358.49 .44 356.21 499.8 355.7 499.8 357.98 .44 358.49" style="fill: #077677;"/>
      <polygon points=".44 356.95 .44 354.67 499.8 354.16 499.8 356.44 .44 356.95" style="fill: #0a7777;"/>
      <polygon points=".44 355.47 .44 353.19 499.8 352.62 499.8 354.9 .44 355.47" style="fill: #0a7778;"/>
      <polygon points=".44 353.93 .44 351.65 499.8 351.14 499.8 353.42 .44 353.93" style="fill: #0a7778;"/>
      <polygon points=".44 352.39 .44 350.11 499.8 349.6 499.8 351.88 .44 352.39" style="fill: #067879;"/>
      <polygon points=".44 350.91 .44 348.63 499.8 348.12 499.8 350.34 .44 350.91" style="fill: #087879;"/>
      <polygon points=".44 349.37 .44 347.09 499.8 346.58 499.8 348.86 .44 349.37" style="fill: #087879;"/>
      <polygon points=".44 347.84 .44 345.61 499.8 345.04 499.8 347.32 .44 347.84" style="fill: #06787b;"/>
      <polygon points=".44 346.35 .44 344.07 499.8 343.56 499.8 345.84 .44 346.35" style="fill: #09797a;"/>
      <polygon points=".44 344.81 .44 342.53 499.8 342.02 499.8 344.3 .44 344.81" style="fill: #09797a;"/>
      <polygon points=".44 343.33 .44 341.05 499.8 340.48 499.8 342.76 .44 343.33" style="fill: #0a797b;"/>
      <polygon points=".44 341.79 .44 339.52 499.8 339 499.8 341.28 .44 341.79" style="fill: #067a7b;"/>
      <polygon points=".44 340.26 .44 337.98 499.8 337.46 499.8 339.74 .44 340.26" style="fill: #067a7b;"/>
      <polygon points=".44 338.77 .44 336.49 499.8 335.92 499.8 338.2 .44 338.77" style="fill: #077a7d;"/>
      <polygon points=".44 337.24 .44 334.96 499.8 334.44 499.8 336.72 .44 337.24" style="fill: #0a7b7c;"/>
      <polygon points=".44 335.7 .44 333.42 499.8 332.91 499.8 335.18 .44 335.7" style="fill: #0a7b7c;"/>
      <polygon points=".44 334.21 .44 331.94 499.8 331.42 499.8 333.7 .44 334.21" style="fill: #0a7b7d;"/>
      <polygon points=".44 332.68 .44 330.4 499.8 329.88 499.8 332.16 .44 332.68" style="fill: #077c7e;"/>
      <polygon points=".44 331.14 .44 328.92 499.8 328.35 499.8 330.63 .44 331.14" style="fill: #077c7e;"/>
      <polygon points=".44 329.66 .44 327.38 499.8 326.86 499.8 329.14 .44 329.66" style="fill: #077c7e;"/>
      <polygon points=".44 328.12 .44 325.84 499.8 325.33 499.8 327.6 .44 328.12" style="fill: #077c7e;"/>
      <polygon points=".44 326.64 .44 324.36 499.8 323.79 499.8 326.07 .44 326.64" style="fill: #0b7d80;"/>
      <polygon points=".44 325.1 .44 322.82 499.8 322.31 499.8 324.59 .44 325.1" style="fill: #0b7d80;"/>
      <polygon points=".44 323.56 .44 321.28 499.8 320.77 499.8 323.05 .44 323.56" style="fill: #0b7d80;"/>
      <polygon points=".44 322.08 .44 319.8 499.8 319.23 499.8 321.51 .44 322.08" style="fill: #087e80;"/>
      <polygon points=".44 320.54 .44 318.26 499.8 317.75 499.8 320.03 .44 320.54" style="fill: #087e80;"/>
      <polygon points=".44 319 .44 316.72 499.75 316.21 499.8 318.49 .44 319" style="fill: #077e81;"/>
      <polygon points=".44 317.52 .44 315.24 499.75 314.73 499.75 317 .44 317.52" style="fill: #067e80;"/>
      <polygon points=".44 315.98 .44 313.7 499.75 313.19 499.75 315.47 .44 315.98" style="fill: #067e80;"/>
      <polygon points=".44 314.5 .44 312.22 499.75 311.65 499.75 313.93 .44 314.5" style="fill: #0a7f82;"/>
      <polygon points=".44 312.96 .37 310.68 499.75 310.17 499.75 312.45 .44 312.96" style="fill: #0a7f82;"/>
      <polygon points=".44 311.42 .37 309.14 499.75 308.63 499.75 310.91 .44 311.42" style="fill: #098082;"/>
      <polygon points=".37 309.94 .37 307.66 499.75 307.09 499.75 309.37 .37 309.94" style="fill: #078083;"/>
      <polygon points=".37 308.4 .37 306.12 499.75 305.61 499.75 307.89 .37 308.4" style="fill: #078083;"/>
      <polygon points=".37 306.86 .37 304.58 499.75 304.07 499.75 306.35 .37 306.86" style="fill: #048082;"/>
      <polygon points=".37 305.38 .37 303.1 499.75 302.59 499.75 304.81 .37 305.38" style="fill: #0b8084;"/>
      <polygon points=".37 303.84 .37 301.56 499.75 301.05 499.75 303.33 .37 303.84" style="fill: #0b8084;"/>
      <polygon points=".37 302.3 .37 300.02 499.75 299.51 499.75 301.79 .37 302.3" style="fill: #088185;"/>
      <polygon points=".37 300.82 .37 298.54 499.75 298.03 499.75 300.31 .37 300.82" style="fill: #088185;"/>
      <polygon points=".37 299.28 .37 297 499.75 296.49 499.75 298.77 .37 299.28" style="fill: #088185;"/>
      <polygon points=".37 297.8 .37 295.52 499.75 294.95 499.75 297.23 .37 297.8" style="fill: #0c8286;"/>
      <polygon points=".37 296.26 .37 293.98 499.75 293.47 499.75 295.75 .37 296.26" style="fill: #0c8286;"/>
      <polygon points=".37 294.72 .37 292.45 499.75 291.93 499.75 294.21 .37 294.72" style="fill: #0c8286;"/>
      <polygon points=".37 293.24 .37 290.96 499.75 290.39 499.75 292.67 .37 293.24" style="fill: #0a8287;"/>
      <polygon points=".37 291.7 .37 289.42 499.75 288.91 499.75 291.19 .37 291.7" style="fill: #078387;"/>
      <polygon points=".37 290.17 .37 287.89 499.75 287.37 499.75 289.65 .37 290.17" style="fill: #078387;"/>
      <polygon points=".37 288.68 .37 286.4 499.75 285.89 499.75 288.11 .37 288.68" style="fill: #088388;"/>
      <polygon points=".37 287.14 .37 284.86 499.75 284.35 499.75 286.63 .37 287.14" style="fill: #0b8488;"/>
      <polygon points=".37 285.61 .37 283.33 499.75 282.81 499.75 285.09 .37 285.61" style="fill: #0b8489;"/>
      <polygon points=".37 284.12 .37 281.85 499.75 281.33 499.75 283.61 .37 284.12" style="fill: #0b8489;"/>
      <polygon points=".37 282.59 .37 280.31 499.75 279.79 499.75 282.07 .37 282.59" style="fill: #078589;"/>
      <polygon points=".37 281.1 .37 278.82 499.75 278.25 499.75 280.53 .37 281.1" style="fill: #06858b;"/>
      <polygon points=".37 279.57 .37 277.29 499.75 276.77 499.75 279.05 .37 279.57" style="fill: #06858b;"/>
      <polygon points=".37 278.03 .37 275.75 499.75 275.24 499.75 277.51 .37 278.03" style="fill: #06858b;"/>
      <polygon points=".37 276.54 .37 274.27 499.75 273.7 499.75 275.98 .37 276.54" style="fill: #0b868b;"/>
      <polygon points=".37 275.01 .37 272.73 499.75 272.21 499.75 274.49 .37 275.01" style="fill: #0b868b;"/>
      <polygon points=".37 273.47 .37 271.19 499.75 270.68 499.75 272.96 .37 273.47" style="fill: #0b868b;"/>
      <polygon points=".37 271.99 .37 269.71 499.75 269.19 499.75 271.42 .37 271.99" style="fill: #0e878c;"/>
      <polygon points=".37 270.45 .37 268.17 499.68 267.66 499.75 269.93 .37 270.45" style="fill: #0e878c;"/>
      <polygon points=".37 268.91 .37 266.69 499.68 266.12 499.75 268.4 .37 268.91" style="fill: #0d888e;"/>
      <polygon points=".37 267.43 .37 265.15 499.68 264.63 499.68 266.92 .37 267.43" style="fill: #0c888d;"/>
      <polygon points=".37 265.89 .37 263.61 499.68 263.1 499.68 265.38 .37 265.89" style="fill: #0c888d;"/>
      <polygon points=".37 264.41 .37 262.13 499.68 261.56 499.68 263.84 .37 264.41" style="fill: #0b888e;"/>
      <polygon points=".37 262.87 .31 260.59 499.68 260.08 499.68 262.36 .37 262.87" style="fill: #0f898e;"/>
      <polygon points=".31 261.33 .31 259.05 499.68 258.54 499.68 260.82 .31 261.33" style="fill: #0f898e;"/>
      <polygon points=".31 259.85 .31 257.57 499.68 257 499.68 259.28 .31 259.85" style="fill: #0e898f;"/>
      <polygon points=".31 258.31 .31 256.03 499.68 255.52 499.68 257.8 .31 258.31" style="fill: #0e898f;"/>
      <polygon points=".31 256.77 .31 254.49 499.68 253.98 499.68 256.26 .31 256.77" style="fill: #0b8a91;"/>
      <polygon points=".31 255.29 .31 253.01 499.68 252.5 499.68 254.78 .31 255.29" style="fill: #0b8a91;"/>
      <polygon points=".31 253.75 .31 251.47 499.68 250.96 499.68 253.24 .31 253.75" style="fill: #0b8a91;"/>
      <polygon points=".31 252.21 .31 249.99 499.68 249.42 499.68 251.7 .31 252.21" style="fill: #108b91;"/>
      <polygon points=".31 250.73 .31 248.45 499.68 247.94 499.68 250.22 .31 250.73" style="fill: #108b91;"/>
      <polygon points=".31 249.19 .31 246.91 499.68 246.4 499.68 248.68 .31 249.19" style="fill: #108b91;"/>
      <polygon points=".31 247.71 .31 245.43 499.68 244.86 499.68 247.14 .31 247.71" style="fill: #0b8c93;"/>
      <polygon points=".31 246.17 .31 243.89 499.68 243.38 499.68 245.66 .31 246.17" style="fill: #0b8c93;"/>
      <polygon points=".31 244.63 .31 242.35 499.68 241.84 499.68 244.12 .31 244.63" style="fill: #0b8c93;"/>
      <polygon points=".31 243.15 .31 240.87 499.68 240.3 499.68 242.58 .31 243.15" style="fill: #0c8c93;"/>
      <polygon points=".31 241.61 .31 239.33 499.68 238.82 499.68 241.1 .31 241.61" style="fill: #0f8d93;"/>
      <polygon points=".31 240.07 .31 237.79 499.68 237.28 499.68 239.56 .31 240.07" style="fill: #108d94;"/>
      <polygon points=".31 238.59 .31 236.31 499.68 235.8 499.68 238.08 .31 238.59" style="fill: #108d94;"/>
      <polygon points=".31 237.05 .31 234.77 499.68 234.26 499.68 236.54 .31 237.05" style="fill: #128e94;"/>
      <polygon points=".31 235.57 .31 233.29 499.68 232.72 499.68 235 .31 235.57" style="fill: #118e95;"/>
      <polygon points=".31 234.03 .31 231.75 499.68 231.24 499.68 233.52 .31 234.03" style="fill: #118e95;"/>
      <polygon points=".31 232.49 .31 230.22 499.68 229.7 499.68 231.98 .31 232.49" style="fill: #108e95;"/>
      <polygon points=".31 231.01 .31 228.73 499.68 228.16 499.68 230.44 .31 231.01" style="fill: #0f8f96;"/>
      <polygon points=".31 229.47 .31 227.19 499.68 226.68 499.68 228.96 .31 229.47" style="fill: #0f8f96;"/>
      <polygon points=".31 227.94 .31 225.66 499.68 225.14 499.68 227.42 .31 227.94" style="fill: #129096;"/>
      <polygon points=".31 226.45 .31 224.17 499.68 223.66 499.68 225.88 .31 226.45" style="fill: #129097;"/>
      <polygon points=".31 224.92 .31 222.64 499.68 222.12 499.68 224.4 .31 224.92" style="fill: #129097;"/>
      <polygon points=".31 223.38 .31 221.1 499.68 220.58 499.68 222.86 .31 223.38" style="fill: #119098;"/>
      <polygon points=".31 221.9 .31 219.62 499.68 219.1 499.68 221.38 .31 221.9" style="fill: #159198;"/>
      <polygon points=".31 220.36 .31 218.08 499.62 217.56 499.68 219.84 .31 220.36" style="fill: #159198;"/>
      <polygon points=".31 218.87 .31 216.6 499.62 216.03 499.62 218.31 .31 218.87" style="fill: #14919a;"/>
      <polygon points=".31 217.34 .31 215.06 499.62 214.54 499.62 216.82 .31 217.34" style="fill: #129299;"/>
      <polygon points=".31 215.8 .31 213.52 499.62 213.01 499.62 215.28 .31 215.8" style="fill: #129299;"/>
      <polygon points=".31 214.32 .31 212.04 499.62 211.47 499.62 213.75 .31 214.32" style="fill: #13919a;"/>
      <polygon points=".31 212.78 .25 210.5 499.62 209.99 499.62 212.26 .31 212.78" style="fill: #15929a;"/>
      <polygon points=".25 211.24 .25 208.96 499.62 208.45 499.62 210.73 .25 211.24" style="fill: #13939b;"/>
      <polygon points=".25 209.76 .25 207.48 499.62 206.96 499.62 209.19 .25 209.76" style="fill: #17949c;"/>
      <polygon points=".25 208.22 .25 205.94 499.62 205.43 499.62 207.71 .25 208.22" style="fill: #15949d;"/>
      <polygon points=".25 206.68 .25 204.46 499.62 203.89 499.62 206.17 .25 206.68" style="fill: #17959e;"/>
      <polygon points=".25 205.2 .25 202.92 499.62 202.41 499.62 204.69 .25 205.2" style="fill: #1997a1;"/>
      <polygon points=".25 203.66 .25 201.38 499.62 200.87 499.62 203.15 .25 203.66" style="fill: #1797a1;"/>
      <polygon points=".25 202.18 .25 199.9 499.62 199.33 499.62 201.61 .25 202.18" style="fill: #1998a2;"/>
      <polygon points=".25 200.64 .25 198.36 499.62 197.85 499.62 200.13 .25 200.64" style="fill: #1799a3;"/>
      <polygon points=".25 199.1 .25 196.82 499.62 196.31 499.62 198.59 .25 199.1" style="fill: #1a9aa4;"/>
      <polygon points=".25 197.62 .25 195.34 499.62 194.77 499.62 197.05 .25 197.62" style="fill: #1a9aa5;"/>
      <polygon points=".25 196.08 .25 193.8 499.62 193.29 499.62 195.57 .25 196.08" style="fill: #1b9ba6;"/>
      <polygon points=".25 194.54 .25 192.26 499.62 191.75 499.62 194.03 .25 194.54" style="fill: #1e9ca7;"/>
      <polygon points=".25 193.06 .25 190.78 499.62 190.27 499.62 192.55 .25 193.06" style="fill: #1b9da8;"/>
      <polygon points=".25 191.52 .25 189.24 499.62 188.73 499.62 191.01 .25 191.52" style="fill: #1e9ea9;"/>
      <polygon points=".25 189.98 .25 187.76 499.62 187.19 499.62 189.47 .25 189.98" style="fill: #209faa;"/>
      <polygon points=".25 188.5 .25 186.22 499.62 185.71 499.62 187.99 .25 188.5" style="fill: #1ea0ab;"/>
      <polygon points=".25 186.96 .25 184.68 499.62 184.17 499.62 186.45 .25 186.96" style="fill: #20a1ac;"/>
      <polygon points=".25 185.48 .25 183.2 499.62 182.63 499.62 184.91 .25 185.48" style="fill: #1fa1ad;"/>
      <polygon points=".25 183.94 .25 181.66 499.62 181.15 499.62 183.43 .25 183.94" style="fill: #22a2ae;"/>
      <polygon points=".25 182.4 .25 180.12 499.62 179.61 499.62 181.89 .25 182.4" style="fill: #20a3af;"/>
      <polygon points=".25 180.92 .25 178.64 499.62 178.07 499.62 180.35 .25 180.92" style="fill: #22a3b0;"/>
      <polygon points=".25 179.38 .25 177.1 499.62 176.59 499.62 178.87 .25 179.38" style="fill: #24a5b1;"/>
      <polygon points=".25 177.85 .25 175.57 499.62 175.05 499.62 177.33 .25 177.85" style="fill: #23a5b2;"/>
      <polygon points=".25 176.36 .25 174.08 499.62 173.57 499.62 175.85 .25 176.36" style="fill: #24a6b3;"/>
      <polygon points=".25 174.82 .25 172.55 499.62 172.03 499.62 174.31 .25 174.82" style="fill: #24a6b4;"/>
      <polygon points=".25 173.29 .25 171.06 499.62 170.49 499.62 172.77 .25 173.29" style="fill: #26a7b5;"/>
      <polygon points=".25 171.8 .25 169.53 499.62 169.01 499.62 171.29 .25 171.8" style="fill: #27a9b6;"/>
      <polygon points=".25 170.27 .25 167.99 499.56 167.47 499.62 169.75 .25 170.27" style="fill: #2aa9b7;"/>
      <polygon points=".25 168.78 .25 166.5 499.56 165.93 499.56 168.21 .25 168.78" style="fill: #28aab8;"/>
      <polygon points=".25 167.25 .25 164.97 499.56 164.45 499.56 166.73 .25 167.25" style="fill: #29abba;"/>
      <polygon points=".25 165.71 .25 163.43 499.56 162.91 499.56 165.19 .25 165.71" style="fill: #2badbb;"/>
      <polygon points=".25 164.23 .19 161.95 499.56 161.38 499.56 163.65 .25 164.23" style="fill: #29adbc;"/>
      <polygon points=".25 162.69 .19 160.41 499.56 159.89 499.56 162.17 .25 162.69" style="fill: #2caebe;"/>
      <polygon points=".19 161.15 .19 158.87 499.56 158.36 499.56 160.64 .19 161.15" style="fill: #2baebe;"/>
      <polygon points=".19 159.67 .19 157.39 499.56 156.87 499.56 159.15 .19 159.67" style="fill: #2cafbf;"/>
      <polygon points=".19 158.13 .19 155.85 499.56 155.33 499.56 157.61 .19 158.13" style="fill: #2eb0c0;"/>
      <polygon points=".19 156.65 .19 154.37 499.56 153.8 499.56 156.08 .19 156.65" style="fill: #30b2c2;"/>
      <polygon points=".19 155.11 .19 152.83 499.56 152.32 499.56 154.59 .19 155.11" style="fill: #2fb2c2;"/>
      <polygon points=".19 153.57 .19 151.29 499.56 150.78 499.56 153.06 .19 153.57" style="fill: #31b3c3;"/>
      <polygon points=".19 152.09 .19 149.81 499.56 149.24 499.56 151.52 .19 152.09" style="fill: #30b3c4;"/>
      <polygon points=".19 150.55 .19 148.27 499.56 147.76 499.56 150.04 .19 150.55" style="fill: #35b5c6;"/>
      <polygon points=".19 149.01 .19 146.73 499.56 146.22 499.56 148.5 .19 149.01" style="fill: #36b6c7;"/>
      <polygon points=".19 147.53 .19 145.25 499.56 144.74 499.56 146.96 .19 147.53" style="fill: #38b7c8;"/>
      <polygon points=".19 145.99 .19 143.71 499.56 143.2 499.56 145.48 .19 145.99" style="fill: #3ab8c9;"/>
      <polygon points=".19 144.45 .19 142.17 499.56 141.66 499.56 143.94 .19 144.45" style="fill: #3cb9ca;"/>
      <polygon points=".19 142.97 .19 140.69 499.56 140.18 499.56 142.46 .19 142.97" style="fill: #3bb9cb;"/>
      <polygon points=".19 141.43 .19 139.15 499.56 138.64 499.56 140.92 .19 141.43" style="fill: #3dbacc;"/>
      <polygon points=".19 139.95 .19 137.67 499.56 137.1 499.56 139.38 .19 139.95" style="fill: #40bacc;"/>
      <polygon points=".19 138.41 .19 136.13 499.56 135.62 499.56 137.9 .19 138.41" style="fill: #3fbacd;"/>
      <polygon points=".19 136.87 .19 134.59 499.56 134.08 499.56 136.36 .19 136.87" style="fill: #42bbce;"/>
      <polygon points=".19 135.39 .19 133.11 499.56 132.54 499.56 134.82 .19 135.39" style="fill: #44bbce;"/>
      <polygon points=".19 133.85 .19 131.57 499.56 131.06 499.56 133.34 .19 133.85" style="fill: #46bccf;"/>
      <polygon points=".19 132.31 .19 130.03 499.56 129.52 499.56 131.8 .19 132.31" style="fill: #48bcd0;"/>
      <polygon points=".19 130.83 .19 128.55 499.56 128.04 499.56 130.26 .19 130.83" style="fill: #4abdd1;"/>
      <polygon points=".19 129.29 .19 127.01 499.56 126.5 499.56 128.78 .19 129.29" style="fill: #4abdd2;"/>
      <polygon points=".19 127.75 .19 125.53 499.56 124.96 499.56 127.24 .19 127.75" style="fill: #4cbdd2;"/>
      <polygon points=".19 126.27 .19 123.99 499.56 123.48 499.56 125.76 .19 126.27" style="fill: #4dbed3;"/>
      <polygon points=".19 124.73 .19 122.45 499.56 121.94 499.56 124.22 .19 124.73" style="fill: #4fbed3;"/>
      <polygon points=".19 123.25 .19 120.97 499.56 120.4 499.56 122.68 .19 123.25" style="fill: #4fbed4;"/>
      <polygon points=".19 121.71 .19 119.43 499.5 118.92 499.56 121.2 .19 121.71" style="fill: #51bed4;"/>
      <polygon points=".19 120.18 .19 117.9 499.5 117.38 499.56 119.66 .19 120.18" style="fill: #53bfd5;"/>
      <polygon points=".19 118.69 .19 116.41 499.5 115.84 499.5 118.12 .19 118.69" style="fill: #55bfd5;"/>
      <polygon points=".19 117.15 .19 114.87 499.5 114.36 499.5 116.64 .19 117.15" style="fill: #55bfd6;"/>
      <polygon points=".19 115.62 .19 113.34 499.5 112.82 499.5 115.1 .19 115.62" style="fill: #56c0d6;"/>
      <polygon points=".19 114.13 .12 111.86 499.5 111.34 499.5 113.62 .19 114.13" style="fill: #58c0d7;"/>
      <rect x=".06" y=".24" width="499.38" height="112.09" style="fill: #5ac1d8;"/>
    </g>
  </g>
</svg>