<?xml version="1.0" encoding="UTF-8"?>
<svg xmlns="http://www.w3.org/2000/svg" xmlns:xlink="http://www.w3.org/1999/xlink" viewBox="0 0 2682.2 1256.04">
  <defs>
    <radialGradient id="radial-gradient" cx="-193.48" cy="-614.94" fx="-193.48" fy="-614.94" r="75.98" gradientTransform="translate(762.02 1087.62) rotate(-90)" gradientUnits="userSpaceOnUse">
      <stop offset="0" stop-color="#fff" stop-opacity=".88"/>
      <stop offset=".04" stop-color="#fdfdfd" stop-opacity=".83"/>
      <stop offset=".23" stop-color="#f4f5f6" stop-opacity=".58"/>
      <stop offset=".42" stop-color="#edeef0" stop-opacity=".37"/>
      <stop offset=".6" stop-color="#e8e9eb" stop-opacity=".21"/>
      <stop offset=".75" stop-color="#e4e6e7" stop-opacity=".1"/>
      <stop offset=".89" stop-color="#e1e3e5" stop-opacity=".03"/>
      <stop offset=".98" stop-color="#e1e3e5" stop-opacity="0"/>
    </radialGradient>
    <radialGradient id="radial-gradient-2" cx="2143.33" cy="85.09" fx="2143.33" fy="85.09" r="87.27" gradientTransform="translate(2571.27 596.25) rotate(-180)" gradientUnits="userSpaceOnUse">
      <stop offset="0" stop-color="#fff" stop-opacity=".88"/>
      <stop offset=".02" stop-color="#fdfefe" stop-opacity=".85"/>
      <stop offset=".17" stop-color="#f6f6f7" stop-opacity=".63"/>
      <stop offset=".31" stop-color="#eff0f1" stop-opacity=".44"/>
      <stop offset=".46" stop-color="#eaebed" stop-opacity=".28"/>
      <stop offset=".6" stop-color="#e6e7e9" stop-opacity=".16"/>
      <stop offset=".74" stop-color="#e3e5e7" stop-opacity=".07"/>
      <stop offset=".87" stop-color="#e1e3e5" stop-opacity=".02"/>
      <stop offset=".98" stop-color="#e1e3e5" stop-opacity="0"/>
    </radialGradient>
    <radialGradient id="radial-gradient-3" cx="2305.96" cy="140.84" fx="2305.96" fy="140.84" r="52.04" gradientTransform="translate(2571.27 596.25) rotate(-180)" gradientUnits="userSpaceOnUse">
      <stop offset="0" stop-color="#fff" stop-opacity=".88"/>
      <stop offset=".1" stop-color="#fefefe" stop-opacity=".86"/>
      <stop offset=".23" stop-color="#fbfcfc" stop-opacity=".79"/>
      <stop offset=".38" stop-color="#f8f8f9" stop-opacity=".68"/>
      <stop offset=".55" stop-color="#f3f3f4" stop-opacity=".53"/>
      <stop offset=".73" stop-color="#ecedee" stop-opacity=".34"/>
      <stop offset=".91" stop-color="#e4e6e8" stop-opacity=".11"/>
      <stop offset=".98" stop-color="#e1e3e5" stop-opacity="0"/>
    </radialGradient>
    <radialGradient id="radial-gradient-4" cx="1645.5" cy="-148.07" fx="1645.5" fy="-148.07" r="36.96" xlink:href="#radial-gradient-3"/>
    <radialGradient id="radial-gradient-5" cx="1903.05" cy="-149.09" fx="1903.05" fy="-149.09" r="65.34" xlink:href="#radial-gradient-2"/>
    <radialGradient id="radial-gradient-6" cx="1690.59" cy="-447.85" fx="1690.59" fy="-447.85" r="43.53" xlink:href="#radial-gradient-3"/>
    <radialGradient id="radial-gradient-7" cx="1853.34" cy="-438.54" fx="1853.34" fy="-438.54" r="73.83" xlink:href="#radial-gradient-2"/>
    <radialGradient id="radial-gradient-8" cx="2248.95" cy="-300.33" fx="2248.95" fy="-300.33" r="51.6" xlink:href="#radial-gradient-3"/>
    <radialGradient id="radial-gradient-9" cx="1758.68" cy="-633.27" fx="1758.68" fy="-633.27" r="36.96" xlink:href="#radial-gradient-3"/>
    <radialGradient id="radial-gradient-10" cx="2051.57" cy="-337.05" fx="2051.57" fy="-337.05" r="87.27" xlink:href="#radial-gradient-3"/>
    <radialGradient id="radial-gradient-11" cx="1734.11" cy="16.08" fx="1734.11" fy="16.08" r="46.7" xlink:href="#radial-gradient-3"/>
    <radialGradient id="radial-gradient-12" cx="1964.31" cy="-10.21" fx="1964.31" fy="-10.21" r="52.04" xlink:href="#radial-gradient-3"/>
    <radialGradient id="radial-gradient-13" cx="2375.37" cy="-374.01" fx="2375.37" fy="-374.01" r="36.96" xlink:href="#radial-gradient-3"/>
    <radialGradient id="radial-gradient-14" cx="2160.39" cy="-438.54" fx="2160.39" fy="-438.54" r="36.96" xlink:href="#radial-gradient-3"/>
    <radialGradient id="radial-gradient-15" cx="1927.16" cy="-512.36" fx="1927.16" fy="-512.36" r="65.34" xlink:href="#radial-gradient-3"/>
    <radialGradient id="radial-gradient-16" cx="2180.29" cy="-185.04" fx="2180.29" fy="-185.04" r="87.27" xlink:href="#radial-gradient-3"/>
    <radialGradient id="radial-gradient-17" cx="1734.22" cy="-131.48" fx="1734.22" fy="-131.48" r="52.54" gradientTransform="translate(2571.27 596.25) rotate(-180)" xlink:href="#radial-gradient"/>
    <radialGradient id="radial-gradient-18" cx="2198.14" cy="568.3" fx="2198.14" fy="568.3" r="90.17" gradientTransform="translate(2571.27 596.25) rotate(-180)" xlink:href="#radial-gradient"/>
    <radialGradient id="radial-gradient-19" cx="1718" cy="473.72" fx="1718" fy="473.72" r="75.98" gradientTransform="translate(2571.27 596.25) rotate(-180)" xlink:href="#radial-gradient"/>
    <radialGradient id="radial-gradient-20" cx="2169.16" cy="306.27" fx="2169.16" fy="306.27" r="56.89" gradientTransform="translate(2571.27 596.25) rotate(-180)" xlink:href="#radial-gradient"/>
    <radialGradient id="radial-gradient-21" cx="1881.48" cy="384.22" fx="1881.48" fy="384.22" r="56.89" gradientTransform="translate(2571.27 596.25) rotate(-180)" xlink:href="#radial-gradient"/>
    <radialGradient id="radial-gradient-22" cx="1989.55" cy="568.3" fx="1989.55" fy="568.3" r="37.89" gradientTransform="translate(2571.27 596.25) rotate(-180)" xlink:href="#radial-gradient"/>
    <radialGradient id="radial-gradient-23" cx="1960.31" cy="429.44" fx="1960.31" fy="429.44" r="64.27" gradientTransform="translate(2571.27 596.25) rotate(-180)" xlink:href="#radial-gradient"/>
    <radialGradient id="radial-gradient-24" cx="1668.79" cy="246.91" fx="1668.79" fy="246.91" r="44.93" gradientTransform="translate(2571.27 596.25) rotate(-180)" xlink:href="#radial-gradient"/>
    <radialGradient id="radial-gradient-25" cx="2315.85" cy="-337.44" fx="2315.85" fy="-337.44" r="67.88" gradientTransform="translate(2571.27 596.25) rotate(-180)" xlink:href="#radial-gradient"/>
    <radialGradient id="radial-gradient-26" cx="2198.14" cy="62.73" fx="2198.14" fy="62.73" r="67.88" gradientTransform="translate(2571.27 596.25) rotate(-180)" xlink:href="#radial-gradient"/>
    <radialGradient id="radial-gradient-27" cx="1885.85" cy="-340.07" fx="1885.85" fy="-340.07" r="50.83" gradientTransform="translate(2571.27 596.25) rotate(-180)" xlink:href="#radial-gradient"/>
    <radialGradient id="radial-gradient-28" cx="2265.69" cy="69.3" fx="2265.69" fy="69.3" r="50.82" gradientTransform="translate(2571.27 596.25) rotate(-180)" xlink:href="#radial-gradient"/>
    <radialGradient id="radial-gradient-29" cx="2150.92" cy="-314.3" fx="2150.92" fy="-314.3" r="50.82" gradientTransform="translate(2571.27 596.25) rotate(-180)" xlink:href="#radial-gradient"/>
    <radialGradient id="radial-gradient-30" cx="2118.79" cy="-502.29" fx="2118.79" fy="-502.29" r="33.86" gradientTransform="translate(2571.27 596.25) rotate(-180)" xlink:href="#radial-gradient"/>
    <radialGradient id="radial-gradient-31" cx="2285.29" cy="-132.31" fx="2285.29" fy="-132.31" r="40.14" gradientTransform="translate(2571.27 596.25) rotate(-180)" xlink:href="#radial-gradient"/>
    <radialGradient id="radial-gradient-32" cx="1024.8" cy="-411.36" fx="1024.8" fy="-411.36" r="41.23" xlink:href="#radial-gradient"/>
    <radialGradient id="radial-gradient-33" cx="631.27" cy="168.09" fx="631.27" fy="168.09" r="66.81" xlink:href="#radial-gradient"/>
    <radialGradient id="radial-gradient-34" cx="979.7" cy="201.97" fx="979.7" fy="201.97" r="66.81" xlink:href="#radial-gradient"/>
    <radialGradient id="radial-gradient-35" cx="937.47" cy="-45.15" fx="937.47" fy="-45.15" r="44.51" xlink:href="#radial-gradient"/>
    <radialGradient id="radial-gradient-36" cx="911.89" cy="119.55" fx="911.89" fy="119.55" r="75.48" xlink:href="#radial-gradient"/>
    <radialGradient id="radial-gradient-37" cx="-91.48" cy="-10.71" fx="-91.48" fy="-10.71" r="50.82" xlink:href="#radial-gradient"/>
    <radialGradient id="radial-gradient-38" cx="173.6" cy="15.05" fx="173.6" fy="15.05" r="50.83" xlink:href="#radial-gradient"/>
    <radialGradient id="radial-gradient-39" cx="141.46" cy="-172.94" fx="141.46" fy="-172.94" r="33.86" xlink:href="#radial-gradient"/>
    <radialGradient id="radial-gradient-40" cx="307.97" cy="197.04" fx="307.97" fy="197.04" r="40.14" xlink:href="#radial-gradient"/>
    <radialGradient id="radial-gradient-41" cx="-865.1" cy="288.26" fx="-865.1" fy="288.26" r="87.27" gradientTransform="translate(2673.69 475.3)" xlink:href="#radial-gradient-2"/>
    <radialGradient id="radial-gradient-42" cx="-702.48" cy="344.01" fx="-702.48" fy="344.01" r="52.04" gradientTransform="translate(2673.69 475.3)" xlink:href="#radial-gradient-3"/>
    <radialGradient id="radial-gradient-43" cx="-1362.93" cy="55.1" fx="-1362.93" fy="55.1" r="36.96" gradientTransform="translate(2673.69 475.3)" xlink:href="#radial-gradient-3"/>
    <radialGradient id="radial-gradient-44" cx="-1105.39" cy="54.08" fx="-1105.39" fy="54.08" r="65.34" gradientTransform="translate(2673.69 475.3)" xlink:href="#radial-gradient-2"/>
    <radialGradient id="radial-gradient-45" cx="-1317.84" cy="-244.68" fx="-1317.84" fy="-244.68" r="43.53" gradientTransform="translate(2673.69 475.3)" xlink:href="#radial-gradient-3"/>
    <radialGradient id="radial-gradient-46" cx="-1155.09" cy="-235.37" fx="-1155.09" fy="-235.37" r="73.83" gradientTransform="translate(2673.69 475.3)" xlink:href="#radial-gradient-2"/>
    <radialGradient id="radial-gradient-47" cx="-759.48" cy="-97.16" fx="-759.48" fy="-97.16" r="51.6" gradientTransform="translate(2673.69 475.3)" xlink:href="#radial-gradient-3"/>
    <radialGradient id="radial-gradient-48" cx="-1249.76" cy="-430.1" fx="-1249.76" fy="-430.1" r="36.96" gradientTransform="translate(2673.69 475.3)" xlink:href="#radial-gradient-3"/>
    <radialGradient id="radial-gradient-49" cx="-956.87" cy="-133.88" fx="-956.87" fy="-133.88" r="87.27" gradientTransform="translate(2673.69 475.3)" xlink:href="#radial-gradient-3"/>
    <radialGradient id="radial-gradient-50" cx="-1274.32" cy="219.25" fx="-1274.32" fy="219.25" r="46.7" gradientTransform="translate(2673.69 475.3)" xlink:href="#radial-gradient-3"/>
    <radialGradient id="radial-gradient-51" cx="-1044.13" cy="192.96" fx="-1044.13" fy="192.96" r="52.04" gradientTransform="translate(2673.69 475.3)" xlink:href="#radial-gradient-3"/>
    <radialGradient id="radial-gradient-52" cx="-848.04" cy="-235.37" fx="-848.04" fy="-235.37" r="36.96" gradientTransform="translate(2673.69 475.3)" xlink:href="#radial-gradient-3"/>
    <radialGradient id="radial-gradient-53" cx="-1081.27" cy="-309.19" fx="-1081.27" fy="-309.19" r="65.34" gradientTransform="translate(2673.69 475.3)" xlink:href="#radial-gradient-3"/>
    <radialGradient id="radial-gradient-54" cx="-828.14" cy="18.13" fx="-828.14" fy="18.13" r="87.26" gradientTransform="translate(2673.69 475.3)" xlink:href="#radial-gradient-3"/>
    <radialGradient id="radial-gradient-55" cx="-1274.21" cy="71.68" fx="-1274.21" fy="71.68" r="52.54" gradientTransform="translate(2673.69 475.3)" xlink:href="#radial-gradient"/>
    <radialGradient id="radial-gradient-56" cx="-810.3" cy="771.47" fx="-810.3" fy="771.47" r="90.18" gradientTransform="translate(2673.69 475.3)" xlink:href="#radial-gradient"/>
    <radialGradient id="radial-gradient-57" cx="-1290.44" cy="676.89" fx="-1290.44" fy="676.89" r="75.98" gradientTransform="translate(2673.69 475.3)" xlink:href="#radial-gradient"/>
    <radialGradient id="radial-gradient-58" cx="-839.27" cy="509.44" fx="-839.27" fy="509.44" r="56.89" gradientTransform="translate(2673.69 475.3)" xlink:href="#radial-gradient"/>
    <radialGradient id="radial-gradient-59" cx="-1126.95" cy="587.39" fx="-1126.95" fy="587.39" r="56.89" gradientTransform="translate(2673.69 475.3)" xlink:href="#radial-gradient"/>
    <radialGradient id="radial-gradient-60" cx="-1018.89" cy="771.46" fx="-1018.89" fy="771.46" r="37.9" gradientTransform="translate(2673.69 475.3)" xlink:href="#radial-gradient"/>
    <radialGradient id="radial-gradient-61" cx="-1048.12" cy="632.61" fx="-1048.12" fy="632.61" r="64.28" gradientTransform="translate(2673.69 475.3)" xlink:href="#radial-gradient"/>
    <radialGradient id="radial-gradient-62" cx="-1339.65" cy="450.08" fx="-1339.65" fy="450.08" r="44.93" gradientTransform="translate(2673.69 475.3)" xlink:href="#radial-gradient"/>
    <radialGradient id="radial-gradient-63" cx="-810.84" cy="265.9" fx="-810.84" fy="265.9" r="68.15" gradientTransform="translate(2673.69 475.3)" xlink:href="#radial-gradient"/>
    <radialGradient id="radial-gradient-64" cx="-1122.59" cy="-136.9" fx="-1122.59" fy="-136.9" r="50.82" gradientTransform="translate(2673.69 475.3)" xlink:href="#radial-gradient"/>
    <radialGradient id="radial-gradient-65" cx="-742.74" cy="272.47" fx="-742.74" fy="272.47" r="50.82" gradientTransform="translate(2673.69 475.3)" xlink:href="#radial-gradient"/>
    <radialGradient id="radial-gradient-66" cx="-857.51" cy="-111.13" fx="-857.51" fy="-111.13" r="50.82" gradientTransform="translate(2673.69 475.3)" xlink:href="#radial-gradient"/>
    <radialGradient id="radial-gradient-67" cx="-889.64" cy="-299.12" fx="-889.64" fy="-299.12" r="33.86" gradientTransform="translate(2673.69 475.3)" xlink:href="#radial-gradient"/>
    <radialGradient id="radial-gradient-68" cx="-723.14" cy="70.85" fx="-723.14" fy="70.85" r="40.14" gradientTransform="translate(2673.69 475.3)" xlink:href="#radial-gradient"/>
    <radialGradient id="radial-gradient-69" cx="1288.76" cy="2597.07" fx="1288.76" fy="2597.07" r="74.06" gradientTransform="translate(4482.94 -16.07) rotate(90)" xlink:href="#radial-gradient"/>
    <radialGradient id="radial-gradient-70" cx="834.44" cy="3176.52" fx="834.44" fy="3176.52" r="66.81" gradientTransform="translate(4482.94 -16.07) rotate(90)" xlink:href="#radial-gradient"/>
    <radialGradient id="radial-gradient-71" cx="1182.87" cy="3210.4" fx="1182.87" fy="3210.4" r="66.81" gradientTransform="translate(4482.94 -16.07) rotate(90)" xlink:href="#radial-gradient"/>
    <radialGradient id="radial-gradient-72" cx="1140.64" cy="2963.29" fx="1140.64" fy="2963.29" r="44.5" gradientTransform="translate(4482.94 -16.07) rotate(90)" xlink:href="#radial-gradient"/>
    <radialGradient id="radial-gradient-73" cx="1115.05" cy="3127.98" fx="1115.05" fy="3127.98" r="75.48" gradientTransform="translate(4482.94 -16.07) rotate(90)" xlink:href="#radial-gradient"/>
    <radialGradient id="radial-gradient-74" cx="111.69" cy="2997.72" fx="111.69" fy="2997.72" r="50.82" gradientTransform="translate(4482.94 -16.07) rotate(90)" xlink:href="#radial-gradient"/>
    <radialGradient id="radial-gradient-75" cx="376.77" cy="3023.48" fx="376.77" fy="3023.48" r="50.83" gradientTransform="translate(4482.94 -16.07) rotate(90)" xlink:href="#radial-gradient"/>
    <radialGradient id="radial-gradient-76" cx="344.63" cy="2835.49" fx="344.63" fy="2835.49" r="33.86" gradientTransform="translate(4482.94 -16.07) rotate(90)" xlink:href="#radial-gradient"/>
    <radialGradient id="radial-gradient-77" cx="511.13" cy="3205.47" fx="511.13" fy="3205.47" r="40.14" gradientTransform="translate(4482.94 -16.07) rotate(90)" xlink:href="#radial-gradient"/>
  </defs>
  <g style="isolation: isolate;">
    <g id="Background">
      <rect x="241.23" y="128.38" width="1920" height="1080" style="fill: #1a1a1a;"/>
    </g>
    <g id="Tech_image" data-name="Tech image">
      <g>
        <g>
          <g style="mix-blend-mode: overlay;">
            <path d="M33.71,689.66c146.17,95.21,331.02,72.44,502.46,88.1,96.97,8.86,181.72,30.11,244.84-38.54,122.19-132.9,203.61-275.97,426.5-242.64,120.96,18.09,257.42,100.6,378.98,86.1,88.2-10.52,170.24-105.72,224.72-161.12,117.44-119.43,158.87-274.06,214.93-421.36" style="fill: none; stroke: #fff; stroke-miterlimit: 10; stroke-width: 1.12px;"/>
            <path d="M2024.08,7.18c-29.77,64.33-57.32,131.2-88.19,197.52-37.26,80.08-76.8,159.46-143.05,226.39-52.94,53.48-132.03,144.97-217.18,155.58-117.32,14.6-248.99-63.41-365.95-80.32-214.61-31.32-292.29,107.13-413.2,230.99-63.87,65.43-150.63,40.07-248.1,30.38-27.36-2.76-55.06-4.32-82.93-5.08-149.35-4.05-297.96,9.4-419.13-60.12" style="fill: none; stroke: #fff; stroke-miterlimit: 10; stroke-width: 1.12px;"/>
            <path d="M2022.03,14.16c-34.01,61.59-66.66,126.74-100.35,193.31-41.04,81.09-78.65,164.37-147.19,233.17-51.37,51.57-127.53,139.34-209.65,150.03-113.08,14.7-239.97-58.81-352.93-74.54-206.33-29.3-280.52,104.47-399.91,219.33-64.73,62.28-153.4,32.74-251.35,22.22-27.74-3.05-55.84-4.66-84.13-5.01-151.76-1.83-298.35,21.53-417.54-37.29" style="fill: none; stroke: #fff; stroke-miterlimit: 10; stroke-width: 1.12px;"/>
            <path d="M2019.98,21.13c-38.25,58.85-76.01,122.28-112.5,189.09-44.84,82.1-80.5,169.29-151.34,239.95-49.79,49.67-123.03,133.7-202.11,144.49-108.84,14.8-230.98-53.99-339.9-68.76-198.12-26.87-269.01,101.74-386.62,207.67-65.73,59.2-156.17,25.41-254.61,14.05-28.13-3.34-56.62-5-85.33-4.95-154.18.39-298.74,33.65-415.94-14.46" style="fill: none; stroke: #fff; stroke-miterlimit: 10; stroke-width: 1.12px;"/>
            <path d="M2017.93,28.11c-42.49,56.12-85.39,117.82-124.66,184.87-48.67,83.11-82.34,174.2-155.49,246.73-48.2,47.79-118.54,128.07-194.58,138.95-104.61,14.9-221.96-49.31-326.88-62.98-189.86-24.72-257.79,98.9-373.33,196.01-66.85,56.19-158.96,18.28-257.87,5.89-28.52-3.57-57.39-5.35-86.53-4.88-156.6,2.61-299.14,45.78-414.35,8.37" style="fill: none; stroke: #fff; stroke-miterlimit: 10; stroke-width: 1.12px;"/>
            <path d="M2015.88,35.09c-46.73,53.38-94.79,113.35-136.82,180.65-52.52,84.11-84.18,179.13-159.63,253.51-46.59,45.93-114.04,122.43-187.04,133.4-100.37,15-212.94-44.65-313.85-57.2-181.6-22.59-246.88,95.93-360.03,184.35-68.12,53.24-161.74,10.98-261.13-2.27-28.9-3.85-58.17-5.69-87.74-4.81-159.02,4.83-299.53,57.9-412.75,31.2" style="fill: none; stroke: #fff; stroke-miterlimit: 10; stroke-width: 1.12px;"/>
            <path d="M2013.84,42.07c-50.97,50.64-104.2,108.87-148.97,176.43-56.39,85.1-86,184.06-163.78,260.29-44.97,44.07-109.55,116.8-179.51,127.86-96.13,15.09-203.92-39.98-300.83-51.41-173.34-20.45-236.29,92.78-346.74,172.7-69.55,50.32-164.51,3.67-264.39-10.43-29.29-4.14-58.95-6.03-88.94-4.75-161.43,7.05-299.92,70.03-411.16,54.03" style="fill: none; stroke: #fff; stroke-miterlimit: 10; stroke-width: 1.12px;"/>
            <path d="M2011.79,49.05c-55.21,47.9-113.63,104.38-161.13,172.21-60.28,86.08-87.82,189-167.93,267.07-43.33,42.23-105.05,111.17-171.97,122.31-91.89,15.19-194.9-35.32-287.8-45.63-165.07-18.33-226.02,89.42-333.45,161.04-71.14,47.43-167.28-3.64-267.65-18.6-29.67-4.42-59.72-6.37-90.14-4.68-163.85,9.27-300.32,82.15-409.56,76.86" style="fill: none; stroke: #fff; stroke-miterlimit: 10; stroke-width: 1.12px;"/>
            <path d="M2009.74,56.03c-59.45,45.17-123.07,99.89-173.29,168-64.18,87.05-89.63,193.95-172.07,273.85-41.69,40.4-100.55,105.53-164.43,116.77-87.66,15.29-185.88-30.66-274.78-39.85-156.8-16.22-216.08,85.81-320.16,149.38-72.91,44.53-170.05-10.96-270.9-26.76-30.06-4.71-60.5-6.72-91.34-4.61-166.27,11.49-300.71,94.28-407.97,99.69" style="fill: none; stroke: #fff; stroke-miterlimit: 10; stroke-width: 1.12px;"/>
            <path d="M2007.69,63c-63.7,42.43-132.52,95.38-185.44,163.78-68.1,88.01-91.42,198.91-176.22,280.63-40.03,38.58-96.06,99.9-156.9,111.23-83.42,15.39-176.85-26.01-261.75-34.07-148.53-14.11-206.46,81.93-306.87,137.72-74.85,41.6-172.82-18.29-274.16-34.92-30.44-5-61.28-7.06-92.54-4.55-168.69,13.71-301.1,106.4-406.37,122.52" style="fill: none; stroke: #fff; stroke-miterlimit: 10; stroke-width: 1.12px;"/>
            <path d="M2005.64,69.98c-67.94,39.69-141.98,90.87-197.6,159.56-72.03,88.96-93.2,203.89-180.37,287.41-38.37,36.77-91.56,94.27-149.36,105.68-79.18,15.49-167.83-21.36-248.73-28.29-140.25-12.02-207.06,61.64-293.57,126.06-82.53,24.56-175.59-25.62-277.42-43.09-30.82-5.29-62.05-7.4-93.74-4.48-171.1,15.93-301.5,118.53-404.78,145.35" style="fill: none; stroke: #fff; stroke-miterlimit: 10; stroke-width: 1.12px;"/>
            <path d="M2003.59,76.96c-72.18,36.95-151.45,86.35-209.76,155.34-75.97,89.89-94.97,208.88-184.51,294.19-36.69,34.96-87.07,88.63-141.83,100.14-74.94,15.59-158.8-16.72-235.7-22.51-131.97-9.94-197.34,56.83-280.28,114.41-84.47,20.15-178.36-32.95-280.68-51.25-31.21-5.58-62.83-7.74-94.95-4.41-173.52,18.15-301.89,130.65-403.18,168.18" style="fill: none; stroke: #fff; stroke-miterlimit: 10; stroke-width: 1.12px;"/>
            <path d="M2001.55,83.94c-76.42,34.22-160.93,81.83-221.91,151.12-79.93,90.82-96.72,213.88-188.66,300.97-35.01,33.17-82.57,83-134.29,94.59-70.71,15.69-149.77-12.08-222.68-16.73-123.69-7.88-187.61,52.02-266.99,102.75-86.41,15.74-181.13-40.3-283.94-59.41-31.59-5.87-63.61-8.09-96.15-4.35-175.94,20.37-302.28,142.78-401.59,191.01" style="fill: none; stroke: #fff; stroke-miterlimit: 10; stroke-width: 1.12px;"/>
            <path d="M1999.5,90.92c-80.66,31.48-170.41,77.29-234.07,146.91-83.89,91.73-98.45,218.91-192.81,307.75-33.33,31.38-78.07,77.36-126.76,89.05-66.47,15.79-140.73-7.46-209.66-10.95-115.4-5.84-177.89,47.21-253.7,91.09-88.35,11.33-183.9-47.64-287.2-67.57-31.97-6.17-64.38-8.43-97.35-4.28-178.36,22.59-302.68,154.9-399.99,213.84" style="fill: none; stroke: #fff; stroke-miterlimit: 10; stroke-width: 1.12px;"/>
            <path d="M1997.45,97.9c-84.9,28.74-179.9,72.75-246.23,142.69-87.86,92.64-100.16,223.96-196.95,314.53-31.63,29.6-73.58,71.73-119.22,83.51-62.23,15.89-131.7-2.85-196.63-5.17-107.11-3.83-168.16,42.4-240.4,79.43-90.29,6.92-186.66-55-290.45-75.74-32.36-6.47-65.16-8.77-98.55-4.21-180.78,24.81-303.07,167.03-398.4,236.67" style="fill: none; stroke: #fff; stroke-miterlimit: 10; stroke-width: 1.12px;"/>
            <path d="M1995.4,104.87c-89.14,26-189.39,68.2-258.38,138.47-91.83,93.54-101.84,229.04-201.1,321.31-29.93,27.83-69.08,66.1-111.69,77.96-57.99,15.99-122.66,1.75-183.61.61-98.81-1.84-158.44,37.59-227.11,67.77-92.23,2.51-189.42-62.35-293.71-83.9-32.74-6.76-65.94-9.11-99.75-4.15-183.19,27.03-303.46,179.15-396.8,259.5" style="fill: none; stroke: #fff; stroke-miterlimit: 10; stroke-width: 1.12px;"/>
            <path d="M1993.35,111.85c-93.38,23.27-198.89,63.64-270.54,134.25-95.81,94.42-103.5,234.15-205.25,328.09-28.22,26.06-64.59,60.46-104.15,72.42-53.76,16.08-113.62,6.32-170.58,6.39-90.51.12-148.71,32.78-213.82,56.12-94.17-1.9-192.14-69.91-296.97-92.06-33.11-7.13-66.71-9.46-100.95-4.08-185.61,29.24-303.86,191.28-395.21,282.33" style="fill: none; stroke: #fff; stroke-miterlimit: 10; stroke-width: 1.12px;"/>
            <path d="M1991.3,118.83c-97.63,20.53-208.39,59.08-282.69,130.03-99.8,95.3-105.11,239.3-209.39,334.87-26.51,24.3-60.09,54.83-96.61,66.87-49.52,16.18-104.58,10.87-157.56,12.18-82.21,2.03-137.12,38.22-200.53,44.46-95.85,9.44-194.91-77.25-300.23-100.22-33.49-7.42-67.49-9.8-102.16-4.01-188.03,31.46-304.25,203.4-393.61,305.16" style="fill: none; stroke: #fff; stroke-miterlimit: 10; stroke-width: 1.12px;"/>
            <path d="M1989.25,125.81c-101.87,17.79-217.89,54.51-294.85,125.81-103.79,96.16-106.68,244.51-213.54,341.65-24.8,22.54-55.59,49.2-89.08,61.33-45.28,16.28-95.54,15.38-144.53,17.96-73.91,3.88-128.49,31.16-187.24,32.8-98.6,2.76-197.68-84.58-303.49-108.39-33.87-7.71-68.27-10.14-103.36-3.95-190.45,33.68-304.64,215.53-392.02,327.99" style="fill: none; stroke: #fff; stroke-miterlimit: 10; stroke-width: 1.12px;"/>
            <path d="M1987.21,132.79c-106.11,15.06-227.51,49.8-307.01,121.6-107.94,96.84-108.2,249.77-217.69,348.43-23.07,20.79-51.1,43.56-81.54,55.79-41.04,16.38-86.5,19.85-131.51,23.74-65.63,5.67-119.53,23.83-173.94,21.14-101.01-5-200.45-91.91-306.75-116.55-34.26-8-69.04-10.48-104.56-3.88-192.86,35.9-305.04,227.65-390.42,350.81" style="fill: none; stroke: #fff; stroke-miterlimit: 10; stroke-width: 1.12px;"/>
            <path d="M1985.16,139.77c-110.35,12.32-236.96,45.28-319.16,117.38-111.86,97.78-109.65,255.12-221.83,355.21-21.35,19.05-46.6,37.93-74.01,50.24-36.81,16.48-77.49,24.25-118.48,29.52-57.36,7.38-110.11,16.32-160.65,9.49-102.85-13.91-203.21-99.24-310-124.71-34.64-8.29-69.82-10.83-105.76-3.81-195.28,38.12-305.43,239.78-388.83,373.64" style="fill: none; stroke: #fff; stroke-miterlimit: 10; stroke-width: 1.12px;"/>
            <path d="M1983.11,146.74c-114.59,9.58-246.41,40.76-331.32,113.16-115.78,98.71-111.01,260.56-225.98,362-80.73,71.21-209.86,103.05-319.29,77.82-137.78-31.77-272.46-166.77-420.23-136.62-197.7,40.34-305.83,251.9-387.23,396.47" style="fill: none; stroke: #fff; stroke-miterlimit: 10; stroke-width: 1.12px;"/>
          </g>
          <g style="mix-blend-mode: overlay; opacity: .4;">
            <path d="M2236.32,555.92c-95.96-32.94-196.05-67.52-300.55-53.51-92.03,12.34-179.46,54.82-267.37,80.57-111.22,32.58-260.68,88.98-369.53,27.3-115-65.17-185.2-255.17-323.85-270.81-129.92-14.64-218.12,76.81-282.2,164.15-75.1,102.36-144.31,167.87-286.79,180.54-114.08,10.15-307.92,4.96-405.73-57.11" style="fill: none; stroke: #fff; stroke-miterlimit: 10; stroke-width: 1.12px;"/>
            <path d="M11.37,636.16c92.89,49.54,285.82,50.44,403.58,39.07,96.94-9.11,161.87-40.85,217.61-90.29,26.81-23.78,51.54-52.06,76.79-84.17,67.4-85.7,156.87-176.41,288.77-159.68,136.65,17.34,206.04,202.16,319.21,267.16,58.15,33.35,128.02,33.04,197.83,20.47,58.18-10.53,115.93-29.46,166.07-43.93,78.04-22.54,155.6-58.5,236-75.22,9.05-1.89,18.13-3.53,27.24-4.89,102.55-15.39,199.52,14.77,295.08,46.39" style="fill: none; stroke: #fff; stroke-miterlimit: 10; stroke-width: 1.12px;"/>
            <path d="M22.44,645.26c87.98,37,279.96,33.33,401.44,21.03,97.33-9.86,164.36-40.28,221.92-87.04,28-22.74,53.83-50.12,80.1-81.32,70.76-84.05,161.45-174.07,295.33-155.2,134.65,18.98,203.24,198.69,314.57,263.51,57.02,33.12,125.45,33.91,194.45,22.31,57.3-9.75,114.2-27.82,163.84-41.92,77.05-21.94,153.54-57.18,232.39-74.49,8.89-1.96,17.79-3.7,26.71-5.17,100.61-16.76,194.46,8.97,289.61,39.27" style="fill: none; stroke: #fff; stroke-miterlimit: 10; stroke-width: 1.12px;"/>
            <path d="M33.51,654.36c83.07,24.47,274.11,16.4,399.3,2.99,97.73-10.47,166.89-39.69,226.23-83.8,29.2-21.7,56.14-48.18,83.41-78.48,74.15-82.4,166.02-171.78,301.89-150.73,132.64,20.54,200.43,195.21,309.94,259.86,55.9,32.88,122.88,34.78,191.06,24.15,56.41-8.97,112.47-26.18,161.6-39.92,76.06-21.33,151.48-55.87,228.79-73.76,8.73-2.03,17.45-3.86,26.19-5.44,98.67-18.14,189.39,3.18,284.14,32.16" style="fill: none; stroke: #fff; stroke-miterlimit: 10; stroke-width: 1.12px;"/>
            <path d="M44.59,663.46c78.15,11.93,268.27-.52,397.16-15.05,98.13-11.06,169.46-39.07,230.53-80.55,30.42-20.66,58.46-46.23,86.71-75.63,77.58-80.74,170.58-169.52,308.46-146.26,130.63,22.04,197.62,191.74,305.3,256.21,54.77,32.64,120.31,35.66,187.67,25.99,55.52-8.19,110.75-24.54,159.36-37.92,75.07-20.72,149.42-54.55,225.18-73.03,8.56-2.1,17.11-4.03,25.66-5.72,96.73-19.51,184.33-2.62,278.67,25.04" style="fill: none; stroke: #fff; stroke-miterlimit: 10; stroke-width: 1.12px;"/>
            <path d="M55.66,672.56c73.24-.6,262.43-17.43,395.02-33.09,98.53-11.64,172.07-38.44,234.84-77.3,31.65-19.6,60.79-44.27,90.02-72.79,81.04-79.06,175.15-167.32,315.02-141.79,128.63,23.48,194.81,188.27,300.66,252.56,53.65,32.41,117.76,36.69,184.28,27.82,54.65-7.28,109.02-22.91,157.12-35.91,74.08-20.12,147.36-53.24,221.58-72.3,8.4-2.18,16.78-4.17,25.13-6,94.83-20.69,179.26-8.42,273.2,17.92" style="fill: none; stroke: #fff; stroke-miterlimit: 10; stroke-width: 1.12px;"/>
            <path d="M66.73,681.66c68.32-13.13,256.59-34.32,392.87-51.13,98.93-12.2,174.71-37.77,239.14-74.06,32.9-18.53,63.13-42.31,93.33-69.95,84.54-77.37,179.71-165.16,321.58-137.31,126.63,24.85,192.01,184.79,296.02,248.91,52.52,32.17,115.19,37.59,180.9,29.66,53.77-6.48,107.29-21.27,154.89-33.91,73.09-19.51,145.3-51.92,217.97-71.57,8.24-2.25,16.44-4.34,24.61-6.27,92.9-22.04,174.2-14.22,267.73,10.8" style="fill: none; stroke: #fff; stroke-miterlimit: 10; stroke-width: 1.12px;"/>
            <path d="M77.8,690.77c63.41-25.67,250.75-51.2,390.73-69.17,99.34-12.75,177.37-37.08,243.45-70.81,34.17-17.45,65.49-40.34,96.64-67.1,88.06-75.65,184.28-163.05,328.15-132.84,124.63,26.17,189.2,181.32,291.38,245.26,51.4,31.94,112.62,38.48,177.51,31.5,52.88-5.69,105.57-19.63,152.65-31.91,72.1-18.9,143.23-50.6,214.37-70.83,8.08-2.32,16.1-4.5,24.08-6.55,90.96-23.39,169.14-20.01,262.26,3.69" style="fill: none; stroke: #fff; stroke-miterlimit: 10; stroke-width: 1.12px;"/>
            <path d="M88.87,699.87c58.5-38.2,244.91-68.06,388.59-87.21,99.74-13.29,180.07-36.35,247.76-67.57,35.45-16.35,67.85-38.37,99.94-64.26,91.6-73.91,188.85-161,334.71-128.37,122.64,27.43,186.39,177.84,286.74,241.61,50.27,31.7,110.05,39.37,174.12,33.34,52-4.89,103.84-18,150.41-29.9,71.11-18.3,141.17-49.29,210.76-70.1,7.91-2.39,15.76-4.66,23.55-6.82,89.03-24.74,164.07-25.81,256.79-3.43" style="fill: none; stroke: #fff; stroke-miterlimit: 10; stroke-width: 1.12px;"/>
            <path d="M99.95,708.97c53.58-50.73,239.07-84.91,386.45-105.24,100.15-13.82,182.77-35.59,252.06-64.32,36.73-15.23,70.23-36.38,103.25-61.41,95.18-72.15,193.43-158.99,341.27-123.9,120.67,28.64,183.59,174.37,282.1,237.96,49.14,31.46,107.48,40.26,170.73,35.18,51.11-4.1,102.11-16.36,148.17-27.9,70.12-17.69,139.11-47.97,207.16-69.37,7.75-2.46,15.43-4.82,23.03-7.1,87.1-26.1,159.01-31.61,251.32-10.55" style="fill: none; stroke: #fff; stroke-miterlimit: 10; stroke-width: 1.12px;"/>
            <path d="M111.02,718.07c48.67-63.27,233.24-101.74,384.31-123.28,100.56-14.34,185.5-34.8,256.37-61.08,38.03-14.1,72.61-34.38,106.56-58.57,98.77-70.36,198.02-157.05,347.84-119.42,118.7,29.81,180.78,170.89,277.46,234.31,48.02,31.23,104.91,41.14,167.35,37.02,50.22-3.32,100.38-14.72,145.94-25.9,69.13-17.08,137.05-46.66,203.55-68.64,7.59-2.54,15.09-4.99,22.5-7.38,85.17-27.47,153.95-37.41,245.85-17.66" style="fill: none; stroke: #fff; stroke-miterlimit: 10; stroke-width: 1.12px;"/>
            <path d="M122.09,727.17c43.75-75.8,227.41-118.56,382.16-141.32,100.97-14.85,188.23-33.98,260.67-57.83,39.33-12.95,74.99-32.38,109.87-55.73,102.38-68.55,202.62-155.16,354.4-114.95,116.74,30.92,177.85,167.61,272.82,230.66,46.83,31.09,102.33,42.02,163.96,38.86,49.33-2.53,98.66-13.09,143.7-23.89,68.14-16.48,134.99-45.34,199.95-67.91,7.43-2.61,14.75-5.15,21.97-7.65,83.23-28.84,148.88-43.2,240.38-24.78" style="fill: none; stroke: #fff; stroke-miterlimit: 10; stroke-width: 1.12px;"/>
            <path d="M133.16,736.27c38.84-88.33,221.58-135.37,380.02-159.36,101.38-15.35,190.97-33.12,264.98-54.59,40.63-11.78,77.39-30.36,113.17-52.88,106-66.7,207.24-153.33,360.97-110.48,114.79,32,175.04,164.14,268.18,227.01,45.7,30.85,99.76,42.9,160.57,40.69,48.44-1.75,96.93-11.45,141.46-21.89,67.15-15.87,132.93-44.03,196.34-67.18,7.27-2.68,14.41-5.31,21.44-7.93,81.3-30.21,143.82-49,234.9-31.9" style="fill: none; stroke: #fff; stroke-miterlimit: 10; stroke-width: 1.12px;"/>
            <path d="M144.23,745.37c33.93-100.87,215.75-152.16,377.88-177.4,101.79-15.85,193.71-32.24,269.28-51.34,41.93-10.6,79.78-28.34,116.48-50.04,109.64-64.83,211.88-151.56,367.53-106.01,112.86,33.03,172.23,160.66,263.54,223.36,44.58,30.61,97.18,43.77,157.18,42.53,47.55-.98,95.2-9.81,139.22-19.89,66.16-15.26,130.87-42.71,192.74-66.45,7.1-2.75,14.07-5.48,20.92-8.2,79.36-31.59,138.76-54.8,229.43-39.02" style="fill: none; stroke: #fff; stroke-miterlimit: 10; stroke-width: 1.12px;"/>
            <path d="M155.3,754.47c29.01-113.4,209.93-168.94,375.74-195.44,102.21-16.34,196.44-31.33,273.59-48.1,43.24-9.4,82.18-26.31,119.79-47.2,113.29-62.93,216.55-149.85,374.09-101.53,110.95,34.02,169.55,157,258.91,219.71,43.52,30.28,94.61,44.63,153.8,44.37,46.66-.21,93.48-8.18,136.99-17.88,65.17-14.66,128.81-41.4,189.13-65.72,6.94-2.82,13.74-5.64,20.39-8.48,77.42-32.98,133.69-60.6,223.96-46.13" style="fill: none; stroke: #fff; stroke-miterlimit: 10; stroke-width: 1.12px;"/>
            <path d="M166.38,763.57c24.1-125.94,204.1-185.7,373.6-213.48,102.62-16.82,199.18-30.39,277.9-44.85,44.54-8.18,84.58-24.26,123.1-44.35,116.95-60.99,221.23-148.2,380.66-97.06,109.04,34.98,166.75,153.52,254.27,216.06,42.39,30.05,92.04,45.49,150.41,46.21,45.77.56,91.75-6.54,134.75-15.88,64.18-14.05,126.75-40.08,185.53-64.99,6.78-2.9,13.4-5.81,19.86-8.76,75.48-34.37,128.63-66.39,218.49-53.25" style="fill: none; stroke: #fff; stroke-miterlimit: 10; stroke-width: 1.12px;"/>
            <path d="M177.45,772.68c19.19-138.47,198.29-202.45,371.45-231.52,103.04-17.29,201.9-29.43,282.2-41.61,45.84-6.95,86.98-22.21,126.4-41.51,120.61-59.03,225.95-146.63,387.22-92.59,107.16,35.9,163.94,150.05,249.63,212.41,41.27,29.81,89.46,46.35,147.02,48.05,44.89,1.33,90.02-4.9,132.51-13.87,63.19-13.45,124.69-38.77,181.92-64.26,6.62-2.97,13.06-5.98,19.34-9.03,73.53-35.77,123.56-72.19,213.02-60.37" style="fill: none; stroke: #fff; stroke-miterlimit: 10; stroke-width: 1.12px;"/>
            <path d="M188.52,781.78c14.27-151,192.47-219.19,369.31-249.56,103.46-17.76,204.62-28.45,286.51-38.36,47.13-5.7,89.39-20.15,129.71-38.66,124.27-57.05,230.7-145.11,393.78-88.12,105.29,36.8,161.13,146.57,244.99,208.76,40.14,29.58,86.89,47.2,143.63,49.89,44,2.09,88.29-3.26,130.27-11.87,62.2-12.84,122.63-37.45,178.32-63.53,6.45-3.04,12.72-6.14,18.81-9.31,71.58-37.18,118.5-77.99,207.55-67.48" style="fill: none; stroke: #fff; stroke-miterlimit: 10; stroke-width: 1.12px;"/>
            <path d="M199.59,790.88c9.36-163.54,186.65-235.92,367.17-267.6,103.88-18.23,207.33-27.45,290.81-35.12,48.42-4.45,91.79-18.09,133.02-35.82,127.94-55.03,235.48-143.67,400.35-83.64,103.44,37.66,158.32,143.1,240.35,205.11,39.01,29.34,84.32,48.04,140.25,51.72,43.11,2.84,86.57-1.63,128.04-9.87,61.21-12.23,120.56-36.14,174.71-62.79,6.29-3.11,12.38-6.31,18.28-9.58,69.63-38.59,113.44-83.78,202.08-74.6" style="fill: none; stroke: #fff; stroke-miterlimit: 10; stroke-width: 1.12px;"/>
            <path d="M210.66,799.98c4.44-176.07,180.89-252.38,365.03-285.64,104.33-18.54,210.03-26.43,295.12-31.87,49.71-3.18,94.19-16.01,136.33-32.98,131.61-52.99,240.3-142.3,406.91-79.17,101.61,38.5,155.52,139.62,235.71,201.46,37.89,29.1,81.76,48.78,136.86,53.56,42.23,3.52,84.84,0,125.8-7.86,60.22-11.63,118.5-34.82,171.11-62.06,6.13-3.19,12.03-6.49,17.75-9.86,67.6-40.11,108.37-89.58,196.61-81.72" style="fill: none; stroke: #fff; stroke-miterlimit: 10; stroke-width: 1.12px;"/>
            <path d="M221.73,809.08c-.47-188.6,175.06-269.2,362.89-303.68,104.74-19.07,212.71-25.4,299.43-28.63,50.98-1.9,96.62-13.85,139.63-30.13,135.37-50.67,245.17-141,413.47-74.7,99.8,39.31,152.71,136.15,231.07,197.81,36.76,28.87,79.19,49.65,133.47,55.4,41.35,4.3,83.11,1.65,123.56-5.86,59.23-11.02,116.44-33.51,167.5-61.33,5.97-3.26,11.69-6.65,17.23-10.13,65.66-41.48,103.31-95.38,191.14-88.84" style="fill: none; stroke: #fff; stroke-miterlimit: 10; stroke-width: 1.12px;"/>
            <path d="M232.81,818.18c-8.34-311.57,415.23-344.2,664.48-347.09,217.44-2.53,339.24-189.06,562.98-97.52,143.65,58.78,188.23,230.27,356.52,251.4,99.46,12.48,201.75-16.57,285.22-64.46,75-43.03,107.61-112.03,202.37-106.36" style="fill: none; stroke: #fff; stroke-miterlimit: 10; stroke-width: 1.12px;"/>
          </g>
          <g style="mix-blend-mode: overlay; opacity: .4;">
            <path d="M346.56,863.87c137.45,57.31,293.78,107.96,448.92,63.06,88.53-25.61,166.98-80.28,248.98-118.52,103.75-48.38,240.84-125.84,359.54-80.89,125.41,47.5,229.52,224.68,369.17,219.86,130.86-4.53,201.09-107.63,248.27-203.14,55.3-111.95,111.56-186.68,249.8-219.99,110.68-26.67,302.85-49.86,410.73-2.91" style="fill: none; stroke: #fff; stroke-miterlimit: 10; stroke-width: 1.12px;"/>
            <path d="M2669.39,513.98c-100.99-36.51-289.39-9.18-402.05,19.12-137.16,34.46-197.22,106.76-255.21,214.08-49.64,91.85-120.2,192.55-248.37,199.07-114.85,6.23-206.2-108.73-307.4-175.24-19.8-13.12-39.86-24.3-60.43-32.17-117.59-44.94-251.39,24.61-354.95,69.17-29.59,12.87-58.82,27.98-88.36,43.31-51.55,26.82-103.58,54.06-159.35,70.43-59.54,17.47-119.1,21.62-177.43,17.22-92.37-6.7-180.17-34.26-264.8-67.28" style="fill: none; stroke: #fff; stroke-miterlimit: 10; stroke-width: 1.12px;"/>
            <path d="M2656.79,506.62c-94.1-26.07-278.74,5.38-393.36,35.34-136.08,35.57-199.96,105.5-260.63,208.18-52.11,88.19-123,186.07-248.47,195.01-113.18,8.06-204.31-98.38-306.39-163.44-19.81-12.62-39.7-23.65-60.09-31.51-116.48-44.93-247.15,16.3-350.36,57.45-29.39,11.72-58.45,25.96-88,40.56-51.41,25.53-103.23,51.96-158.44,68.39-58.92,17.54-117.66,22.63-174.97,20.14-91.05-3.96-175.44-26.24-260.57-57.19" style="fill: none; stroke: #fff; stroke-miterlimit: 10; stroke-width: 1.12px;"/>
            <path d="M2644.2,499.26c-87.21-15.63-268.09,19.92-384.68,51.55-135.01,36.63-202.73,104.25-266.04,202.28-54.6,84.54-125.8,179.82-248.56,190.94-111.51,10.1-202.27-88.24-305.38-151.65-19.78-12.17-39.54-22.99-59.75-30.86-115.37-44.92-242.8,8.22-345.77,45.73-29.17,10.63-58.08,23.95-87.63,37.81-51.28,24.25-102.88,49.85-157.54,66.36-58.29,17.6-116.24,23.72-172.51,23.05-89.74-1.07-170.71-18.21-256.33-47.1" style="fill: none; stroke: #fff; stroke-miterlimit: 10; stroke-width: 1.12px;"/>
            <path d="M2631.61,491.89c-80.32-5.19-257.44,34.43-375.99,67.77-133.95,37.66-205.52,102.99-271.45,196.38-57.11,80.9-128.61,173.59-248.66,186.87-109.85,12.15-200.22-78.11-304.37-139.85-19.76-11.71-39.39-22.33-59.41-30.2-114.26-44.91-238.44.14-341.17,34.01-28.93,9.54-57.72,21.93-87.27,35.07-51.15,22.96-102.54,47.75-156.63,64.32-57.67,17.66-114.82,24.83-170.06,25.97-88.44,1.83-165.99-10.19-252.1-37.01" style="fill: none; stroke: #fff; stroke-miterlimit: 10; stroke-width: 1.12px;"/>
            <path d="M2619.02,484.53c-73.43,5.26-246.79,48.92-367.31,83.98-132.9,38.66-208.34,101.74-276.86,190.48-59.65,77.25-131.43,167.39-248.75,182.8-108.19,14.21-198.15-67.99-303.36-128.05-19.72-11.26-39.23-21.67-59.07-29.55-113.15-44.9-234.05-7.92-336.58,22.29-28.7,8.46-57.38,19.85-86.91,32.32-51.06,21.55-102.19,45.64-155.73,62.28-57.04,17.72-113.41,25.94-167.6,28.88-87.15,4.73-161.26-2.16-247.87-26.93" style="fill: none; stroke: #fff; stroke-miterlimit: 10; stroke-width: 1.12px;"/>
            <path d="M2606.42,477.17c-66.54,15.7-236.15,63.39-358.62,100.19-131.85,39.62-211.2,100.48-282.28,184.57-62.21,73.6-134.24,161.2-248.85,178.73-106.53,16.3-196.07-57.89-302.35-116.25-19.69-10.81-39.07-21.01-58.73-28.89-112.04-44.88-229.66-15.96-331.99,10.57-28.46,7.38-57.02,17.83-86.54,29.57-50.93,20.25-101.84,43.54-154.82,60.25-56.41,17.78-112,27.06-165.15,31.8-85.86,7.66-156.53,5.86-243.63-16.84" style="fill: none; stroke: #fff; stroke-miterlimit: 10; stroke-width: 1.12px;"/>
            <path d="M2593.83,469.81c-59.65,26.14-225.51,77.83-349.94,116.41-130.81,40.55-214.08,99.22-287.69,178.67-64.8,69.95-137.06,155.03-248.95,174.67-104.88,18.4-193.97-47.81-301.34-104.46-19.65-10.37-38.92-20.36-58.39-28.24-110.93-44.87-225.24-23.99-327.4-1.15-28.22,6.31-56.65,15.81-86.18,26.82-50.8,18.95-101.49,41.43-153.92,58.21-55.79,17.84-110.59,28.19-162.69,34.71-84.58,10.59-151.8,13.88-239.4-6.75" style="fill: none; stroke: #fff; stroke-miterlimit: 10; stroke-width: 1.12px;"/>
            <path d="M2581.24,462.45c-52.76,36.58-214.88,92.25-341.25,132.62-129.78,41.46-217,97.94-293.1,172.77-67.42,66.29-139.88,148.89-249.04,170.6-103.23,20.52-191.86-37.75-300.33-92.66-19.61-9.93-38.76-19.7-58.05-27.58-109.82-44.86-220.82-31.99-322.81-12.87-27.97,5.24-56.29,13.79-85.82,24.07-50.67,17.65-101.14,39.33-153.01,56.18-55.16,17.91-109.19,29.33-160.24,37.63-83.31,13.54-147.07,21.91-235.17,3.34" style="fill: none; stroke: #fff; stroke-miterlimit: 10; stroke-width: 1.12px;"/>
            <path d="M2568.65,455.09c-45.87,47.02-204.26,106.65-332.57,148.84-128.75,42.34-219.94,96.64-298.51,166.87-70.06,62.61-142.7,142.77-249.14,166.53-101.57,22.67-189.73-27.71-299.32-80.86-19.57-9.49-38.6-19.04-57.71-26.93-108.71-44.85-216.38-39.97-318.22-24.59-27.72,4.19-55.92,11.77-85.45,21.32-50.54,16.35-100.8,37.22-152.1,54.14-54.54,17.97-107.78,30.48-157.78,40.54-82.03,16.51-142.35,29.93-230.93,13.43" style="fill: none; stroke: #fff; stroke-miterlimit: 10; stroke-width: 1.12px;"/>
            <path d="M2556.06,447.73c-38.98,57.46-193.64,121.02-323.89,165.05-127.74,43.19-222.91,95.33-303.93,160.96-72.72,58.92-145.52,136.68-249.23,162.46-99.92,24.84-187.59-17.69-298.31-69.07-19.53-9.06-38.45-18.38-57.37-26.27-107.6-44.84-211.93-47.92-313.63-36.31-27.46,3.14-55.55,9.75-85.09,18.58-50.4,15.06-100.45,35.12-151.2,52.1-53.91,18.03-106.38,31.64-155.33,43.46-80.75,19.5-137.62,37.96-226.7,23.51" style="fill: none; stroke: #fff; stroke-miterlimit: 10; stroke-width: 1.12px;"/>
            <path d="M2543.46,440.36c-32.09,67.9-183.03,135.36-315.2,181.26-126.73,44.01-225.91,93.99-309.34,155.06-75.41,55.2-148.33,130.61-249.33,158.39s-185.44-7.69-297.3-57.27c-19.48-8.63-38.29-17.72-57.03-25.61-106.5-44.83-207.48-55.84-309.03-48.03-27.21,2.09-55.19,7.73-84.73,15.83-50.26,13.77-100.1,33.01-150.29,50.07-53.28,18.09-104.97,32.81-152.87,46.37-79.48,22.5-132.89,45.98-222.46,33.6" style="fill: none; stroke: #fff; stroke-miterlimit: 10; stroke-width: 1.12px;"/>
            <path d="M2530.87,433c-25.2,78.34-172.44,149.68-306.52,197.48-125.73,44.82-228.93,92.62-314.75,149.16-78.11,51.46-151.14,124.57-249.43,154.32s-183.28,2.28-296.29-45.47c-19.43-8.21-38.13-17.06-56.68-24.96-105.39-44.81-203.03-63.74-304.44-59.75-26.95,1.06-54.82,5.72-84.36,13.08-50.13,12.49-99.75,30.91-149.39,48.03-52.66,18.15-103.57,34-150.41,49.29-78.19,25.52-128.16,54.01-218.23,43.69" style="fill: none; stroke: #fff; stroke-miterlimit: 10; stroke-width: 1.12px;"/>
            <path d="M2518.28,425.64c-18.31,88.78-161.85,163.98-297.83,213.69-124.74,45.6-231.96,91.22-320.17,143.26-80.83,47.69-153.94,118.56-249.52,150.26-94.94,31.48-181.11,12.22-295.28-33.67-19.38-7.79-37.97-16.41-56.34-24.3-104.28-44.8-198.57-71.6-299.85-71.47-26.7.03-54.45,3.71-84,10.33-49.99,11.2-99.41,28.8-148.48,46-52.03,18.21-102.15,35.19-147.96,52.21-76.9,28.56-123.43,62.03-214,53.78" style="fill: none; stroke: #fff; stroke-miterlimit: 10; stroke-width: 1.12px;"/>
            <path d="M2505.69,418.28c-11.42,99.22-151.27,178.25-289.15,229.91-123.75,46.37-235,89.78-325.58,137.35-83.56,43.88-156.73,112.57-249.62,146.19-93.26,33.75-178.93,22.14-294.27-21.88-19.33-7.38-37.82-15.75-56-23.65-103.17-44.79-194.12-79.43-295.26-83.19-26.44-.98-54.08,1.7-83.64,7.58-49.85,9.92-99.06,26.7-147.58,43.96-51.4,18.27-100.74,36.4-145.5,55.12-75.6,31.62-118.71,70.06-209.76,63.87" style="fill: none; stroke: #fff; stroke-miterlimit: 10; stroke-width: 1.12px;"/>
            <path d="M2493.09,410.92c-4.53,109.66-140.7,192.49-280.46,246.12-122.78,47.11-238.05,88.32-330.99,131.45-86.29,40.05-159.51,106.61-249.71,142.12-91.57,36.05-176.74,32.03-293.26-10.08-19.28-6.97-37.66-15.09-55.66-22.99-102.06-44.78-189.68-87.22-290.67-94.91-26.19-1.99-53.71-.31-83.27,4.83-49.71,8.65-98.71,24.59-146.67,41.92-50.78,18.34-99.31,37.61-143.05,58.04-74.29,34.7-113.98,78.08-205.53,73.96" style="fill: none; stroke: #fff; stroke-miterlimit: 10; stroke-width: 1.12px;"/>
            <path d="M2480.5,403.56c2.36,120.1-130.15,206.71-271.78,262.33-121.81,47.84-241.1,86.82-336.4,125.55-89.03,36.18-162.27,100.67-249.81,138.05-89.86,38.37-174.55,41.89-292.25,1.72-19.23-6.56-37.5-14.43-55.32-22.34-100.95-44.77-185.24-94.99-286.08-106.63-25.94-2.99-53.34-2.31-82.91,2.09-49.57,7.38-98.36,22.49-145.76,39.89-50.15,18.4-97.88,38.83-140.59,60.95-72.97,37.79-109.25,86.11-201.3,84.04" style="fill: none; stroke: #fff; stroke-miterlimit: 10; stroke-width: 1.12px;"/>
            <path d="M2467.91,396.2c9.25,130.55-119.6,220.91-263.09,278.55-120.86,48.55-244.15,85.28-341.82,119.65-91.76,32.28-165.02,94.76-249.9,133.98-88.13,40.72-172.35,51.72-291.24,13.52-19.17-6.16-37.35-13.77-54.98-21.68-99.84-44.76-180.83-102.72-281.49-118.35-25.7-3.99-52.97-4.32-82.55-.66-49.43,6.11-98.02,20.38-144.86,37.85-49.53,18.46-96.44,40.06-138.14,63.87-71.63,40.89-104.52,94.13-197.06,94.13" style="fill: none; stroke: #fff; stroke-miterlimit: 10; stroke-width: 1.12px;"/>
            <path d="M2455.32,388.83c16.14,140.99-109.07,235.08-254.41,294.76-119.91,49.24-247.18,83.72-347.23,113.74-94.49,28.36-167.74,88.87-250,129.91-86.38,43.1-170.15,61.52-290.23,25.31-19.12-5.76-37.19-13.12-54.64-21.03-98.73-44.74-176.43-110.43-276.89-130.07-25.46-4.98-52.6-6.26-82.18-3.41-49.28,4.94-97.67,18.27-143.95,35.82-48.9,18.52-94.98,41.3-135.68,66.78-70.27,44-99.79,102.16-192.83,104.22" style="fill: none; stroke: #fff; stroke-miterlimit: 10; stroke-width: 1.12px;"/>
            <path d="M2442.72,381.47c23.03,151.43-98.56,249.22-245.73,310.98-118.97,49.92-250.21,82.13-352.64,107.84s-170.44,83-250.1,125.85c-84.6,45.5-167.95,71.29-289.22,37.11-19.06-5.37-37.03-12.46-54.3-20.37-97.62-44.73-172.05-118.11-272.3-141.79-25.22-5.96-52.23-8.28-81.82-6.16-49.15,3.65-97.32,16.17-143.05,33.78-48.27,18.58-93.52,42.54-133.22,69.7-68.9,47.13-95.07,110.18-188.59,114.31" style="fill: none; stroke: #fff; stroke-miterlimit: 10; stroke-width: 1.12px;"/>
            <path d="M2430.13,374.11c29.92,161.87-88.17,263.09-237.04,327.19-118.13,50.39-253.22,80.51-358.06,101.94-99.91,20.42-173.11,77.16-250.19,121.78-82.8,47.93-165.74,81.02-288.21,48.91-19.01-4.98-36.88-11.8-53.96-19.72-96.51-44.72-167.7-125.76-267.71-153.51-24.99-6.93-51.86-10.29-81.46-8.91-49.02,2.36-96.97,14.06-142.14,31.74-47.65,18.64-92.05,43.79-130.77,72.61-67.51,50.26-90.34,118.21-184.36,124.4" style="fill: none; stroke: #fff; stroke-miterlimit: 10; stroke-width: 1.12px;"/>
            <path d="M2417.54,366.75c65.4,306.15-346.47,400.19-591.82,439.44-214.05,34.25-299.98,236.05-537.49,178.41-152.5-37.01-227.94-199.67-397.83-195.95-100.41,2.21-195.99,45.81-269.55,105.24-66.09,53.4-85.61,126.23-180.13,134.49" style="fill: none; stroke: #fff; stroke-miterlimit: 10; stroke-width: 1.12px;"/>
          </g>
        </g>
        <g style="opacity: .15;">
          <path d="M192.04,143.99v107.2c9.54-12.67,15.83-28.04,17.48-44.98,2.24-23.11-4.55-45.01-17.48-62.21Z" style="fill: #fff; mix-blend-mode: overlay; opacity: .6;"/>
          <path d="M218.77,1256.04c-5.21-14.94-14.71-27.33-26.73-36.15v36.15h26.73Z" style="fill: url(#radial-gradient); mix-blend-mode: overlay; opacity: .6;"/>
          <path d="M247.81,965.79c-6.5-23.94-31.17-38.09-55.11-31.6-.22.06-.44.13-.66.2v86.33c7.63,2.2,15.93,2.41,24.15.18,23.96-6.49,38.1-31.16,31.62-55.1Z" style="fill: #fff; mix-blend-mode: overlay; opacity: .6;"/>
          <path d="M340.67,511.16c0-48.2,39.06-87.27,87.27-87.27s87.27,39.07,87.27,87.27-39.07,87.26-87.27,87.26-87.27-39.07-87.27-87.26Z" style="fill: url(#radial-gradient-2); mix-blend-mode: overlay; opacity: .6;"/>
          <path d="M213.27,455.42c0-28.74,23.29-52.04,52.04-52.04s52.03,23.29,52.03,52.04-23.3,52.03-52.03,52.03-52.04-23.3-52.04-52.03Z" style="fill: url(#radial-gradient-3); mix-blend-mode: overlay; opacity: .6;"/>
          <path d="M888.81,744.33c0-20.41,16.54-36.96,36.96-36.96s36.96,16.55,36.96,36.96-16.55,36.96-36.96,36.96-36.96-16.55-36.96-36.96Z" style="fill: url(#radial-gradient-4); mix-blend-mode: overlay; opacity: .6;"/>
          <path d="M602.88,745.34c0-36.08,29.26-65.33,65.34-65.33s65.34,29.25,65.34,65.33-29.25,65.34-65.34,65.34-65.34-29.26-65.34-65.34Z" style="fill: url(#radial-gradient-5); mix-blend-mode: overlay; opacity: .6;"/>
          <path d="M837.15,1044.11c0-24.04,19.49-43.53,43.53-43.53s43.52,19.49,43.52,43.53-19.49,43.52-43.52,43.52-43.53-19.49-43.53-43.52Z" style="fill: url(#radial-gradient-6); mix-blend-mode: overlay; opacity: .6;"/>
          <path d="M644.09,1034.79c0-40.77,33.06-73.82,73.83-73.82s73.83,33.05,73.83,73.82-33.06,73.83-73.83,73.83-73.83-33.05-73.83-73.83Z" style="fill: url(#radial-gradient-7); mix-blend-mode: overlay; opacity: .6;"/>
          <path d="M270.72,896.58c0-28.5,23.11-51.61,51.6-51.61s51.61,23.11,51.61,51.61-23.1,51.6-51.61,51.6-51.6-23.1-51.6-51.6Z" style="fill: url(#radial-gradient-8); mix-blend-mode: overlay; opacity: .6;"/>
          <path d="M786.86,1256.04h51.46c6.92-6.72,11.23-16.11,11.23-26.51,0-20.42-16.54-36.96-36.96-36.96s-36.96,16.54-36.96,36.96c0,10.4,4.31,19.8,11.23,26.51Z" style="fill: url(#radial-gradient-9); mix-blend-mode: overlay; opacity: .6;"/>
          <path d="M432.44,933.3c0-48.2,39.06-87.26,87.26-87.26s87.27,39.07,87.27,87.26-39.07,87.27-87.27,87.27-87.26-39.07-87.26-87.27Z" style="fill: url(#radial-gradient-10); mix-blend-mode: overlay; opacity: .6;"/>
          <path d="M790.46,580.17c0-25.78,20.9-46.69,46.69-46.69s46.7,20.91,46.7,46.69-20.9,46.7-46.7,46.7-46.69-20.91-46.69-46.7Z" style="fill: url(#radial-gradient-11); mix-blend-mode: overlay; opacity: .6;"/>
          <path d="M554.92,606.46c0-28.74,23.3-52.03,52.04-52.03s52.04,23.29,52.04,52.03-23.3,52.04-52.04,52.04-52.04-23.3-52.04-52.04Z" style="fill: url(#radial-gradient-12); mix-blend-mode: overlay; opacity: .6;"/>
          <path d="M195.88,933.3c-1.3,0-2.58.07-3.84.2v73.53c1.26.13,2.54.2,3.84.2,20.42,0,36.98-16.55,36.98-36.97s-16.56-36.96-36.98-36.96Z" style="fill: url(#radial-gradient-13); mix-blend-mode: overlay; opacity: .6;"/>
          <path d="M373.92,1034.79c0-20.41,16.55-36.96,36.97-36.96s36.94,16.55,36.94,36.96-16.54,36.97-36.94,36.97-36.97-16.55-36.97-36.97Z" style="fill: url(#radial-gradient-14); mix-blend-mode: overlay; opacity: .6;"/>
          <path d="M578.77,1108.62c0-36.09,29.26-65.34,65.34-65.34s65.35,29.25,65.35,65.34-29.27,65.33-65.35,65.33-65.34-29.25-65.34-65.33Z" style="fill: url(#radial-gradient-15); mix-blend-mode: overlay; opacity: .6;"/>
          <path d="M303.71,781.29c0-48.2,39.07-87.27,87.27-87.27s87.27,39.07,87.27,87.27-39.07,87.27-87.27,87.27-87.27-39.07-87.27-87.27Z" style="fill: url(#radial-gradient-16); mix-blend-mode: overlay; opacity: .6;"/>
          <path d="M448.87,1256.04c-6.4-2.85-13.48-4.44-20.94-4.44s-14.53,1.59-20.93,4.44h41.87Z" style="fill: #fff; mix-blend-mode: overlay; opacity: .6;"/>
          <path d="M784.5,727.74c0-29.01,23.52-52.54,52.53-52.54s52.55,23.53,52.55,52.54-23.53,52.55-52.55,52.55-52.53-23.52-52.53-52.55Z" style="fill: url(#radial-gradient-17); mix-blend-mode: overlay; opacity: .6;"/>
          <path d="M285.58,49.56c9.68,39.36,45.2,68.57,87.54,68.57s77.87-29.21,87.56-68.57h-175.1Z" style="fill: url(#radial-gradient-18); mix-blend-mode: overlay; opacity: .6;"/>
          <path d="M874.42,49.56h-42.18c-39.78,11.45-63.15,52.73-52.28,92.84,10.97,40.49,52.7,64.43,93.18,53.45,40.5-10.97,64.42-52.69,53.45-93.19-7.19-26.53-27.58-45.95-52.17-53.1Z" style="fill: url(#radial-gradient-19); mix-blend-mode: overlay; opacity: .6;"/>
          <path d="M416.98,344.87c-30.32,8.22-61.56-9.7-69.77-40.01-8.21-30.32,9.71-61.56,40.02-69.78,30.32-8.22,61.56,9.7,69.78,40.02,8.2,30.31-9.71,61.55-40.03,69.76Z" style="fill: url(#radial-gradient-20); mix-blend-mode: overlay; opacity: .6;"/>
          <path d="M704.66,266.92c-30.32,8.22-61.55-9.7-69.77-40.02-8.2-30.32,9.7-61.55,40.03-69.77,30.3-8.22,61.54,9.7,69.77,40.02,8.21,30.31-9.7,61.56-40.03,69.77Z" style="fill: url(#radial-gradient-21); mix-blend-mode: overlay; opacity: .6;"/>
          <path d="M550.59,49.56c8.88,12.8,25.15,19.27,41.05,14.97,8.97-2.43,16.3-7.89,21.21-14.97h-62.26Z" style="fill: url(#radial-gradient-22); mix-blend-mode: overlay; opacity: .6;"/>
          <path d="M627.76,228.83c-34.25,9.29-69.55-10.95-78.82-45.21-9.28-34.25,10.96-69.54,45.21-78.83,34.25-9.28,69.54,10.96,78.83,45.22,9.28,34.25-10.96,69.54-45.22,78.82Z" style="fill: url(#radial-gradient-23); mix-blend-mode: overlay; opacity: .6;"/>
          <path d="M914.23,392.7c-23.95,6.48-48.61-7.66-55.11-31.6-6.49-23.95,7.66-48.61,31.6-55.1,23.96-6.49,48.62,7.66,55.11,31.61,6.48,23.94-7.67,48.6-31.61,55.09Z" style="fill: url(#radial-gradient-24); mix-blend-mode: overlay; opacity: .6;"/>
          <path d="M596.65,574c-23.94,6.49-48.61-7.66-55.1-31.6-6.49-23.94,7.66-48.61,31.61-55.1,23.94-6.48,48.61,7.66,55.1,31.61,6.49,23.95-7.67,48.62-31.61,55.1Z" style="fill: #fff; mix-blend-mode: overlay; opacity: .6;"/>
          <path d="M721.52,49.56c.13.6.27,1.2.43,1.81,4.65,17.15,22.31,27.28,39.47,22.64,12.07-3.27,20.66-13,23.07-24.44h-62.97Z" style="fill: #fff; mix-blend-mode: overlay; opacity: .6;"/>
          <path d="M492.27,572.54c-40.48,10.97-82.21-12.96-93.17-53.46-10.98-40.49,12.95-82.21,53.44-93.19,40.49-10.97,82.21,12.96,93.18,53.46,10.98,40.49-12.96,82.21-53.46,93.18Z" style="fill: #fff; mix-blend-mode: overlay; opacity: .6;"/>
          <path d="M590.68,429.78c-40.49,10.97-82.21-12.95-93.18-53.44-10.97-40.5,12.96-82.23,53.45-93.2,40.49-10.96,82.21,12.96,93.19,53.46,10.97,40.49-12.97,82.2-53.46,93.17Z" style="fill: #fff; mix-blend-mode: overlay; opacity: .6;"/>
          <path d="M241.09,159.51c-5.8-21.4-27.64-34.15-49.05-28.8v78.87c6.51,1.63,13.51,1.67,20.45-.21,21.67-5.87,34.49-28.19,28.6-49.86Z" style="fill: #fff; mix-blend-mode: overlay; opacity: .6;"/>
          <path d="M288.2,401.27c-24.15,6.54-49.02-7.73-55.56-31.86-6.54-24.15,7.73-49.03,31.87-55.57,24.14-6.55,49.02,7.73,55.57,31.88,6.54,24.15-7.74,49.01-31.87,55.56Z" style="fill: #fff; mix-blend-mode: overlay; opacity: .6;"/>
          <path d="M684.01,651.15c-17.15,4.64-34.83-5.49-39.47-22.64-4.65-17.15,5.48-34.82,22.63-39.47,17.15-4.64,34.82,5.5,39.47,22.64,4.64,17.16-5.5,34.82-22.64,39.47Z" style="fill: #fff; mix-blend-mode: overlay; opacity: .6;"/>
          <path d="M689.27,455.83c-17.14,4.64-34.82-5.49-39.45-22.65-4.65-17.15,5.48-34.81,22.63-39.46,17.16-4.65,34.83,5.49,39.48,22.64,4.64,17.15-5.5,34.81-22.65,39.46Z" style="fill: none; mix-blend-mode: overlay; opacity: .6; stroke: #fff; stroke-miterlimit: 10; stroke-width: 4.66px;"/>
          <path d="M261.98,866.13c-31.09-3.02-59.3,15.44-69.94,43.27v48.56c8.93,23.25,30.34,40.71,56.81,43.28,37.32,3.63,70.5-23.68,74.12-60.99,3.63-37.31-23.68-70.5-60.99-74.12Z" style="fill: url(#radial-gradient-25); mix-blend-mode: overlay; opacity: .6;"/>
          <path d="M379.7,465.97c37.3,3.62,64.6,36.81,60.99,74.13-3.63,37.31-36.8,64.61-74.12,60.99-37.31-3.63-64.62-36.82-60.99-74.13,3.63-37.3,36.82-64.62,74.12-60.99Z" style="fill: url(#radial-gradient-26); mix-blend-mode: overlay; opacity: .6;"/>
          <path d="M690.33,885.74c27.94,2.72,48.38,27.56,45.67,55.5-2.72,27.93-27.56,48.38-55.5,45.67-27.93-2.72-48.38-27.57-45.67-55.5,2.72-27.94,27.56-48.38,55.5-45.67Z" style="fill: url(#radial-gradient-27); mix-blend-mode: overlay; opacity: .6;"/>
          <path d="M310.49,476.37c27.94,2.71,48.38,27.57,45.66,55.5-2.71,27.94-27.56,48.37-55.5,45.66-27.94-2.71-48.38-27.57-45.66-55.5,2.72-27.94,27.55-48.38,55.5-45.67Z" style="fill: url(#radial-gradient-28); mix-blend-mode: overlay; opacity: .6;"/>
          <path d="M425.26,859.97c27.94,2.72,48.37,27.56,45.66,55.5-2.72,27.93-27.57,48.38-55.51,45.66-27.92-2.72-48.37-27.56-45.65-55.49,2.71-27.94,27.57-48.39,55.5-45.67Z" style="fill: url(#radial-gradient-29); mix-blend-mode: overlay; opacity: .6;"/>
          <path d="M455.75,1064.85c18.61,1.81,32.23,18.36,30.42,36.97-1.81,18.62-18.36,32.23-36.96,30.42-18.62-1.81-32.24-18.36-30.43-36.97,1.81-18.61,18.36-32.23,36.97-30.42Z" style="fill: url(#radial-gradient-30); mix-blend-mode: overlay; opacity: .6;"/>
          <path d="M477.5,916.1c31.56,3.07,54.66,31.14,51.59,62.71-3.07,31.56-31.13,54.66-62.7,51.6-31.57-3.08-54.67-31.14-51.6-62.71,3.07-31.56,31.14-54.66,62.7-51.59Z" style="fill: #fff; mix-blend-mode: overlay; opacity: .6;"/>
          <path d="M289.86,688.62c22.06,2.14,38.21,21.77,36.06,43.82-2.15,22.06-21.77,38.21-43.83,36.07-22.06-2.14-38.21-21.77-36.07-43.84,2.15-22.05,21.78-38.2,43.84-36.05Z" style="fill: url(#radial-gradient-31); mix-blend-mode: overlay; opacity: .6;"/>
          <path d="M316.85,1003.27c15.8,1.53,27.36,15.59,25.82,31.39-1.53,15.8-15.59,27.36-31.38,25.83-15.81-1.54-27.37-15.59-25.84-31.39,1.54-15.81,15.6-27.37,31.4-25.83Z" style="fill: #fff; mix-blend-mode: overlay; opacity: .6;"/>
          <path d="M571.99,759.88c37.32,3.63,64.62,36.81,60.99,74.11-3.63,37.32-36.81,64.63-74.12,61-37.31-3.64-64.62-36.82-60.98-74.13,3.61-37.31,36.8-64.61,74.11-60.98Z" style="fill: #fff; mix-blend-mode: overlay; opacity: .6;"/>
          <path d="M818.42,1063.61c19.96,1.95,34.57,19.7,32.63,39.67-1.94,19.97-19.7,34.57-39.66,32.63-19.97-1.94-34.58-19.7-32.64-39.66,1.94-19.97,19.69-34.58,39.67-32.64Z" style="fill: #fff; mix-blend-mode: overlay; opacity: .6;"/>
          <path d="M815.8,879.3c22.24,2.16,38.52,21.94,36.37,44.19-2.17,22.25-21.96,38.54-44.21,36.37-22.25-2.16-38.53-21.95-36.36-44.2,2.16-22.25,21.95-38.53,44.2-36.37Z" style="fill: #fff; mix-blend-mode: overlay; opacity: .6;"/>
          <path d="M563.97,545.36c15.79,1.54,27.36,15.6,25.83,31.4-1.54,15.8-15.59,27.36-31.4,25.83-15.8-1.54-27.36-15.59-25.84-31.39,1.54-15.81,15.6-27.37,31.41-25.84Z" style="fill: #fff; mix-blend-mode: overlay; opacity: .6;"/>
          <path d="M497.83,706.95c15.79,1.54,27.36,15.6,25.83,31.39-1.53,15.8-15.59,27.37-31.4,25.83-15.8-1.54-27.36-15.59-25.83-31.39,1.53-15.8,15.59-27.37,31.39-25.84Z" style="fill: #fff; mix-blend-mode: overlay; opacity: .6;"/>
          <path d="M293.88,49.56c13.59,16.21,33.97,26.53,56.78,26.53s43.19-10.32,56.78-26.53h-113.56Z" style="fill: url(#radial-gradient-32); mix-blend-mode: overlay; opacity: .6;"/>
          <path d="M284.89,1134.83c21.1,0,38.2,17.1,38.2,38.2s-17.1,38.19-38.2,38.19-38.19-17.11-38.19-38.19,17.11-38.2,38.19-38.2Z" style="fill: #fff; mix-blend-mode: overlay; opacity: .6;"/>
          <path d="M996.6,462.8c-3.58,36.72-36.23,63.6-72.96,60.03-36.72-3.57-63.59-36.23-60.03-72.95,3.58-36.72,36.24-63.59,72.96-60.03,36.72,3.57,63.6,36.24,60.03,72.94Z" style="fill: url(#radial-gradient-33); mix-blend-mode: overlay; opacity: .6;"/>
          <path d="M996.5,49.56h-65.01c-18.49,10.31-31.79,29.22-33.99,51.89-3.58,36.73,23.29,69.38,60.01,72.96,36.72,3.56,69.39-23.3,72.96-60.03,2.64-27.26-11.49-52.27-33.97-64.82Z" style="fill: url(#radial-gradient-34); mix-blend-mode: overlay; opacity: .6;"/>
          <path d="M761.17,154.45c-2.38,24.46-24.14,42.37-48.6,39.99-24.46-2.38-42.36-24.14-39.98-48.59,2.38-24.47,24.13-42.37,48.6-40,24.46,2.39,42.36,24.14,39.99,48.6Z" style="fill: url(#radial-gradient-35); mix-blend-mode: overlay; opacity: .6;"/>
          <path d="M956.69,183.03c-4.03,41.5-40.94,71.86-82.42,67.82-41.49-4.02-71.85-40.93-67.82-82.42,4.03-41.49,40.93-71.86,82.41-67.82,41.49,4.04,71.86,40.93,67.83,82.42Z" style="fill: url(#radial-gradient-36); mix-blend-mode: overlay; opacity: .6;"/>
          <path d="M1162.04,307.24c-4.77,49.04-48.39,84.93-97.43,80.17-49.05-4.78-84.94-48.4-80.17-97.44,4.77-49.03,48.4-84.93,97.44-80.16,49.03,4.76,84.93,48.39,80.16,97.43Z" style="fill: #fff; mix-blend-mode: overlay; opacity: .2;"/>
          <path d="M762.79,631.17c-2.56,26.24-25.88,45.45-52.14,42.9-26.25-2.56-45.45-25.9-42.89-52.15,2.55-26.24,25.89-45.44,52.13-42.89,26.25,2.56,45.45,25.89,42.9,52.14Z" style="fill: none; mix-blend-mode: overlay; opacity: .6; stroke: #fff; stroke-miterlimit: 10; stroke-width: 4.66px;"/>
          <path d="M679.06,92.14c-2.84,29.25-28.86,50.65-58.1,47.81-29.25-2.84-50.65-28.85-47.81-58.1,2.85-29.25,28.86-50.64,58.1-47.81,29.25,2.86,50.65,28.86,47.81,58.1Z" style="fill: #fff; mix-blend-mode: overlay; opacity: .6;"/>
          <path d="M1113.62,1090.33c-6.48-23.95,7.66-48.62,31.61-55.1,23.95-6.49,48.62,7.67,55.11,31.6,6.48,23.94-7.67,48.62-31.62,55.1-23.94,6.49-48.61-7.66-55.1-31.6Z" style="fill: none; mix-blend-mode: overlay; opacity: .6; stroke: #fff; stroke-miterlimit: 10; stroke-width: 4.66px;"/>
          <path d="M1036.46,1177.67c-4.65-17.14,5.5-34.82,22.64-39.47,17.15-4.64,34.82,5.49,39.47,22.64,4.64,17.15-5.48,34.81-22.63,39.47-17.17,4.66-34.84-5.48-39.49-22.64Z" style="fill: #fff; mix-blend-mode: overlay; opacity: .6;"/>
          <path d="M821.49,755.66c-3.62,37.31-36.81,64.62-74.12,60.99-37.31-3.62-64.62-36.81-60.99-74.11,3.62-37.32,36.82-64.62,74.12-60.99,37.32,3.62,64.62,36.81,60.99,74.12Z" style="fill: #fff; mix-blend-mode: overlay; opacity: .6;"/>
          <path d="M801.89,1184.01c-2.72,27.93-27.56,48.38-55.51,45.66-27.93-2.72-48.38-27.56-45.65-55.5,2.71-27.93,27.56-48.38,55.5-45.66,27.93,2.71,48.38,27.56,45.67,55.5Z" style="fill: url(#radial-gradient-37); mix-blend-mode: overlay; opacity: .6;"/>
          <path d="M827.65,918.94c-2.72,27.93-27.56,48.38-55.5,45.67-27.94-2.72-48.39-27.56-45.67-55.51,2.73-27.93,27.57-48.38,55.51-45.66,27.93,2.71,48.38,27.57,45.66,55.5Z" style="fill: url(#radial-gradient-38); mix-blend-mode: overlay; opacity: .6;"/>
          <path d="M622.77,949.43c-1.81,18.6-18.36,32.23-36.97,30.42-18.62-1.81-32.23-18.36-30.42-36.97,1.81-18.61,18.35-32.23,36.97-30.42,18.61,1.81,32.23,18.36,30.42,36.98Z" style="fill: url(#radial-gradient-39); mix-blend-mode: overlay; opacity: .6;"/>
          <path d="M771.52,971.17c-3.07,31.57-31.14,54.66-62.71,51.6-31.57-3.06-54.65-31.14-51.6-62.71,3.07-31.55,31.15-54.66,62.71-51.59,31.55,3.07,54.66,31.14,51.59,62.7Z" style="fill: #fff; mix-blend-mode: overlay; opacity: .6;"/>
          <path d="M1618.76,1123.14c-3.07,31.57-31.14,54.66-62.71,51.6-31.57-3.06-54.65-31.14-51.59-62.71,3.06-31.55,31.14-54.66,62.71-51.59,31.56,3.07,54.66,31.14,51.59,62.7Z" style="fill: none; mix-blend-mode: overlay; opacity: .6; stroke: #fff; stroke-miterlimit: 10; stroke-width: 4.66px;"/>
          <path d="M999.01,783.54c-2.15,22.06-21.78,38.21-43.84,36.06-22.06-2.14-38.21-21.77-36.05-43.82,2.13-22.07,21.76-38.22,43.82-36.07,22.06,2.15,38.2,21.77,36.07,43.83Z" style="fill: url(#radial-gradient-40); mix-blend-mode: overlay; opacity: .6;"/>
          <path d="M1050.17,1106.27c-2.15,22.06-21.77,38.21-43.84,36.06-22.06-2.14-38.2-21.77-36.07-43.83,2.16-22.06,21.78-38.21,43.83-36.07,22.06,2.15,38.21,21.78,36.07,43.84Z" style="fill: #fff; mix-blend-mode: overlay; opacity: .6;"/>
          <path d="M684.35,810.53c-1.53,15.8-15.59,27.36-31.39,25.82-15.8-1.53-27.37-15.58-25.84-31.39,1.53-15.8,15.6-27.37,31.4-25.83,15.8,1.53,27.37,15.59,25.82,31.39Z" style="fill: #fff; mix-blend-mode: overlay; opacity: .6;"/>
          <path d="M1015.95,1193.03c-3.63,37.31-36.81,64.62-74.11,60.98-37.32-3.62-64.63-36.81-61-74.12,3.63-37.31,36.82-64.62,74.13-60.99,37.31,3.63,64.61,36.82,60.98,74.12Z" style="fill: #fff; mix-blend-mode: overlay; opacity: .6;"/>
          <path d="M927.75,1065.66c-3.64,37.31-36.82,64.62-74.12,60.99-37.32-3.64-64.63-36.82-60.99-74.13,3.63-37.31,36.81-64.61,74.12-60.98,37.31,3.63,64.62,36.81,60.99,74.12Z" style="fill: none; mix-blend-mode: overlay; opacity: .6; stroke: #fff; stroke-miterlimit: 10; stroke-width: 4.66px;"/>
          <path d="M1142.25,1057.63c-1.53,15.81-15.59,27.37-31.39,25.84-15.8-1.54-27.37-15.6-25.83-31.4,1.55-15.8,15.59-27.37,31.4-25.83,15.8,1.53,27.37,15.6,25.82,31.4Z" style="fill: #fff; mix-blend-mode: overlay; opacity: .6;"/>
          <path d="M980.68,991.5c-1.55,15.8-15.59,27.36-31.4,25.83-15.8-1.54-27.37-15.6-25.83-31.4,1.54-15.8,15.6-27.36,31.4-25.83,15.79,1.53,27.36,15.59,25.83,31.4Z" style="fill: #fff; mix-blend-mode: overlay; opacity: .6;"/>
          <path d="M1895.86,763.56c0,48.19-39.06,87.26-87.27,87.26s-87.27-39.07-87.27-87.26,39.07-87.27,87.27-87.27,87.27,39.08,87.27,87.27Z" style="fill: url(#radial-gradient-41); mix-blend-mode: overlay; opacity: .6;"/>
          <path d="M1985.53,769.28c-4.55-1.3-9.35-2.01-14.32-2.01-28.73,0-52.03,23.3-52.03,52.03s23.3,52.04,52.03,52.04c4.97,0,9.77-.71,14.32-2.01v-100.05Z" style="fill: url(#radial-gradient-42); mix-blend-mode: overlay; opacity: .6;"/>
          <path d="M1347.72,530.4c0,20.41-16.55,36.96-36.95,36.96s-36.97-16.55-36.97-36.96,16.55-36.96,36.97-36.96,36.95,16.55,36.95,36.96Z" style="fill: url(#radial-gradient-43); mix-blend-mode: overlay; opacity: .6;"/>
          <path d="M1633.65,529.38c0,36.09-29.25,65.34-65.34,65.34s-65.34-29.25-65.34-65.34,29.25-65.34,65.34-65.34,65.34,29.26,65.34,65.34Z" style="fill: url(#radial-gradient-44); mix-blend-mode: overlay; opacity: .6;"/>
          <path d="M1399.38,230.61c0,24.04-19.49,43.53-43.53,43.53s-43.52-19.49-43.52-43.53,19.49-43.53,43.52-43.53,43.53,19.49,43.53,43.53Z" style="fill: url(#radial-gradient-45); mix-blend-mode: overlay; opacity: .6;"/>
          <path d="M1592.43,239.93c0,40.77-33.06,73.82-73.83,73.82s-73.82-33.05-73.82-73.82,33.05-73.83,73.82-73.83,73.83,33.05,73.83,73.83Z" style="fill: url(#radial-gradient-46); mix-blend-mode: overlay; opacity: .6;"/>
          <path d="M1965.81,378.14c0,28.5-23.1,51.61-51.59,51.61s-51.61-23.11-51.61-51.61,23.09-51.6,51.61-51.6,51.59,23.1,51.59,51.6Z" style="fill: url(#radial-gradient-47); mix-blend-mode: overlay; opacity: .6;"/>
          <path d="M1387.24,49.56c2.16,18.36,17.75,32.6,36.7,32.6s34.54-14.24,36.69-32.6h-73.39Z" style="fill: url(#radial-gradient-48); mix-blend-mode: overlay; opacity: .6;"/>
          <path d="M1804.09,341.42c0,48.19-39.06,87.26-87.25,87.26s-87.28-39.07-87.28-87.26,39.07-87.27,87.28-87.27,87.25,39.07,87.25,87.27Z" style="fill: url(#radial-gradient-49); mix-blend-mode: overlay; opacity: .6;"/>
          <path d="M1446.07,694.55c0,25.79-20.91,46.7-46.69,46.7s-46.7-20.91-46.7-46.7,20.9-46.7,46.7-46.7,46.69,20.92,46.69,46.7Z" style="fill: url(#radial-gradient-50); mix-blend-mode: overlay; opacity: .6;"/>
          <path d="M1681.61,668.27c0,28.74-23.3,52.03-52.05,52.03s-52.04-23.3-52.04-52.03,23.3-52.04,52.04-52.04,52.05,23.29,52.05,52.04Z" style="fill: url(#radial-gradient-51); mix-blend-mode: overlay; opacity: .6;"/>
          <path d="M1862.61,239.93c0,20.41-16.55,36.96-36.98,36.96s-36.95-16.55-36.95-36.96,16.54-36.96,36.95-36.96,36.98,16.55,36.98,36.96Z" style="fill: url(#radial-gradient-52); mix-blend-mode: overlay; opacity: .6;"/>
          <path d="M1657.77,166.11c0,36.09-29.26,65.34-65.34,65.34s-65.34-29.26-65.34-65.34,29.27-65.33,65.34-65.33,65.34,29.25,65.34,65.33Z" style="fill: url(#radial-gradient-53); mix-blend-mode: overlay; opacity: .6;"/>
          <path d="M1932.82,493.44c0,48.2-39.07,87.27-87.27,87.27s-87.26-39.07-87.26-87.27,39.07-87.27,87.26-87.27,87.27,39.07,87.27,87.27Z" style="fill: url(#radial-gradient-54); mix-blend-mode: overlay; opacity: .6;"/>
          <path d="M1452.03,546.99c0,29.02-23.52,52.54-52.54,52.54s-52.55-23.53-52.55-52.54,23.53-52.55,52.55-52.55,52.54,23.53,52.54,52.55Z" style="fill: url(#radial-gradient-55); mix-blend-mode: overlay; opacity: .6;"/>
          <path d="M1953.1,1256.04c.31-3.05.47-6.14.47-9.27,0-49.79-40.37-90.17-90.17-90.17s-90.18,40.38-90.18,90.17c0,3.13.16,6.23.48,9.27h179.4Z" style="fill: url(#radial-gradient-56); mix-blend-mode: overlay; opacity: .6;"/>
          <path d="M1363.39,1078.87c40.48-10.97,82.21,12.97,93.18,53.45,10.98,40.5-12.95,82.21-53.45,93.18-40.48,10.98-82.21-12.95-93.18-53.44-10.97-40.5,12.96-82.21,53.45-93.19Z" style="fill: url(#radial-gradient-57); mix-blend-mode: overlay; opacity: .6;"/>
          <path d="M1819.55,929.85c30.32-8.22,61.56,9.7,69.77,40.01,8.21,30.32-9.71,61.56-40.02,69.78-30.32,8.22-61.56-9.7-69.78-40.02-8.2-30.32,9.72-61.55,40.03-69.76Z" style="fill: url(#radial-gradient-58); mix-blend-mode: overlay; opacity: .6;"/>
          <path d="M1531.87,1007.8c30.32-8.22,61.55,9.7,69.77,40.01,8.2,30.32-9.7,61.55-40.03,69.77-30.3,8.22-61.53-9.7-69.77-40.01-8.21-30.31,9.71-61.56,40.03-69.77Z" style="fill: url(#radial-gradient-59); mix-blend-mode: overlay; opacity: .6;"/>
          <path d="M1691.53,1256.04c1.55-6.1,1.6-12.67-.16-19.18-5.46-20.21-26.28-32.13-46.48-26.66-19.98,5.42-31.87,25.85-26.82,45.84h73.46Z" style="fill: url(#radial-gradient-60); mix-blend-mode: overlay; opacity: .6;"/>
          <path d="M1608.77,1045.89c34.25-9.29,69.55,10.95,78.82,45.21,9.28,34.25-10.96,69.54-45.22,78.83-34.25,9.28-69.54-10.96-78.83-45.22-9.28-34.25,10.96-69.54,45.22-78.83Z" style="fill: url(#radial-gradient-61); mix-blend-mode: overlay; opacity: .6;"/>
          <path d="M1322.3,882.03c23.95-6.49,48.61,7.66,55.1,31.6,6.49,23.95-7.66,48.61-31.6,55.1-23.96,6.49-48.62-7.66-55.11-31.61-6.48-23.94,7.67-48.6,31.61-55.09Z" style="fill: url(#radial-gradient-62); mix-blend-mode: overlay; opacity: .6;"/>
          <path d="M1639.88,700.72c23.94-6.49,48.61,7.65,55.1,31.61,6.5,23.94-7.65,48.61-31.61,55.1-23.94,6.48-48.61-7.66-55.1-31.61-6.49-23.95,7.67-48.62,31.61-55.1Z" style="fill: #fff; mix-blend-mode: overlay; opacity: .6;"/>
          <path d="M1462.39,1256.04h42.26c9-7.84,13.26-20.4,9.92-32.68-4.65-17.15-22.31-27.28-39.47-22.64-17.16,4.65-27.28,22.32-22.64,39.47,1.73,6.39,5.27,11.81,9.92,15.85Z" style="fill: #fff; mix-blend-mode: overlay; opacity: .6;"/>
          <path d="M1744.26,702.18c40.49-10.97,82.21,12.96,93.16,53.46,10.98,40.49-12.95,82.21-53.44,93.18-40.48,10.97-82.21-12.96-93.18-53.46-10.98-40.49,12.96-82.2,53.45-93.18Z" style="fill: #fff; mix-blend-mode: overlay; opacity: .6;"/>
          <path d="M1645.84,844.95c40.5-10.98,82.21,12.95,93.19,53.44,10.97,40.5-12.96,82.22-53.46,93.2-40.49,10.96-82.21-12.96-93.19-53.46-10.96-40.49,12.98-82.2,53.46-93.17Z" style="fill: #fff; mix-blend-mode: overlay; opacity: .25;"/>
          <path d="M1985.53,879.65c-10.53-7.11-23.97-9.78-37.2-6.2-24.13,6.55-38.41,31.41-31.87,55.56,6.56,24.14,31.43,38.42,55.57,31.87,4.95-1.34,9.48-3.46,13.5-6.18v-75.05Z" style="fill: #fff; mix-blend-mode: overlay; opacity: .6;"/>
          <path d="M1552.52,623.57c17.16-4.64,34.83,5.49,39.47,22.64,4.65,17.15-5.48,34.82-22.64,39.47-17.15,4.64-34.82-5.49-39.47-22.64-4.64-17.16,5.5-34.82,22.64-39.47Z" style="fill: #fff; mix-blend-mode: overlay; opacity: .6;"/>
          <path d="M1547.26,818.89c17.15-4.64,34.82,5.49,39.46,22.65,4.65,17.15-5.48,34.81-22.63,39.46-17.16,4.65-34.83-5.49-39.48-22.64-4.64-17.15,5.5-34.81,22.65-39.46Z" style="fill: none; mix-blend-mode: overlay; opacity: .6; stroke: #fff; stroke-miterlimit: 10; stroke-width: 4.66px;"/>
          <path d="M1856.83,808.75c-56-5.44-66.81-14.11-60.99-74.13,3.63-37.31,36.8-64.61,74.12-60.99,37.32,3.63,64.62,36.81,60.99,74.12-3.63,37.3-36.82,64.62-74.13,60.99Z" style="fill: url(#radial-gradient-63); mix-blend-mode: overlay; opacity: .6;"/>
          <path d="M1546.19,388.98c-27.94-2.72-48.39-27.56-45.67-55.5,2.72-27.93,27.56-48.38,55.5-45.67,27.93,2.72,48.38,27.57,45.67,55.5-2.72,27.94-27.56,48.38-55.5,45.67Z" style="fill: url(#radial-gradient-64); mix-blend-mode: overlay; opacity: .6;"/>
          <path d="M1926.04,798.35c-27.94-2.71-48.38-27.57-45.66-55.5,2.71-27.94,27.56-48.37,55.49-45.66,27.94,2.72,48.38,27.57,45.67,55.5-2.72,27.94-27.55,48.39-55.5,45.67Z" style="fill: url(#radial-gradient-65); mix-blend-mode: overlay; opacity: .6;"/>
          <path d="M1811.26,414.75c-27.94-2.71-48.37-27.56-45.66-55.5,2.72-27.93,27.56-48.38,55.51-45.66,27.91,2.72,48.36,27.56,45.65,55.49-2.71,27.94-27.56,48.38-55.5,45.67Z" style="fill: url(#radial-gradient-66); mix-blend-mode: overlay; opacity: .6;"/>
          <path d="M1780.77,209.87c-18.61-1.81-32.23-18.36-30.42-36.97,1.81-18.62,18.37-32.24,36.96-30.42,18.62,1.81,32.24,18.36,30.43,36.97-1.81,18.61-18.36,32.23-36.97,30.42Z" style="fill: url(#radial-gradient-67); mix-blend-mode: overlay; opacity: .6;"/>
          <path d="M1759.03,358.62c-31.56-3.08-54.66-31.15-51.59-62.71,3.07-31.56,31.14-54.66,62.7-51.6,31.57,3.07,54.67,31.14,51.6,62.71-3.07,31.56-31.14,54.66-62.7,51.6Z" style="fill: #fff; mix-blend-mode: overlay; opacity: .6;"/>
          <path d="M1985.53,526.5c-6.21-11.04-17.53-18.97-31.09-20.29-22.06-2.14-41.68,14.01-43.82,36.07-2.16,22.06,13.99,41.69,36.05,43.82,16.31,1.59,31.3-6.84,38.86-20.26v-39.34Z" style="fill: url(#radial-gradient-68); mix-blend-mode: overlay; opacity: .6;"/>
          <path d="M1623.95,637.27c-22.07-2.14-38.22-21.77-36.07-43.83,2.14-22.06,21.77-38.21,43.83-36.07,22.08,2.15,38.21,21.77,36.07,43.84-2.15,22.06-21.77,38.21-43.82,36.06Z" style="fill: #fff; mix-blend-mode: overlay; opacity: .6;"/>
          <path d="M1919.68,271.45c-15.8-1.53-27.36-15.59-25.83-31.39,1.54-15.8,15.59-27.36,31.39-25.83,15.82,1.54,27.37,15.59,25.84,31.39-1.54,15.81-15.6,27.37-31.4,25.83Z" style="fill: #fff; mix-blend-mode: overlay; opacity: .6;"/>
          <path d="M1420.72,395.42c-22.24-2.16-38.52-21.95-36.37-44.19,2.17-22.25,21.96-38.54,44.21-36.37,22.25,2.16,38.53,21.95,36.36,44.2-2.16,22.25-21.94,38.53-44.2,36.36Z" style="fill: #fff; mix-blend-mode: overlay; opacity: .6;"/>
          <path d="M1672.56,729.36c-15.79-1.54-27.36-15.6-25.83-31.4,1.54-15.8,15.59-27.36,31.39-25.82,15.8,1.54,27.37,15.59,25.84,31.39-1.55,15.8-15.6,27.37-31.41,25.83Z" style="fill: #fff; mix-blend-mode: overlay; opacity: .6;"/>
          <path d="M1738.7,567.77c-15.8-1.53-27.36-15.6-25.83-31.39,1.53-15.8,15.59-27.37,31.39-25.83,15.81,1.54,27.36,15.59,25.83,31.39-1.53,15.8-15.59,27.37-31.39,25.83Z" style="fill: #fff; mix-blend-mode: overlay; opacity: .6;"/>
          <path d="M1958.02,1256.04c-7.56-32.88-36.99-57.4-72.16-57.4s-64.59,24.52-72.15,57.4h144.31Z" style="fill: url(#radial-gradient-69); mix-blend-mode: overlay; opacity: .6;"/>
          <path d="M1985.53,84.1c-6.37-12.24-19.15-20.6-33.89-20.6-21.09,0-38.2,17.11-38.2,38.2s17.1,38.19,38.2,38.19c14.74,0,27.53-8.36,33.89-20.59v-35.2Z" style="fill: #fff; mix-blend-mode: overlay; opacity: .6;"/>
          <path d="M1239.93,811.92c3.57-36.73,36.23-63.61,72.96-60.03,36.72,3.57,63.59,36.23,60.03,72.95-3.58,36.72-36.24,63.59-72.96,60.03-36.72-3.57-63.6-36.24-60.02-72.94Z" style="fill: url(#radial-gradient-70); mix-blend-mode: overlay; opacity: .6;"/>
          <path d="M1206.05,1160.35c3.57-36.73,36.24-63.59,72.96-60.03,36.72,3.57,63.59,36.23,60.02,72.96-3.57,36.72-36.23,63.58-72.95,60.02-36.71-3.57-63.58-36.23-60.02-72.95Z" style="fill: url(#radial-gradient-71); mix-blend-mode: overlay; opacity: .6;"/>
          <path d="M1475.36,1120.27c2.38-24.46,24.14-42.36,48.6-39.99,24.46,2.38,42.36,24.14,39.99,48.59-2.37,24.47-24.13,42.37-48.6,40-24.46-2.39-42.36-24.14-39.98-48.6Z" style="fill: url(#radial-gradient-72); mix-blend-mode: overlay; opacity: .6;"/>
          <path d="M1279.84,1091.69c4.03-41.49,40.94-71.86,82.42-67.82,41.49,4.02,71.85,40.93,67.82,82.42-4.03,41.49-40.94,71.86-82.41,67.82-41.49-4.03-71.86-40.93-67.83-82.42Z" style="fill: url(#radial-gradient-73); mix-blend-mode: overlay; opacity: .6;"/>
          <path d="M1074.48,967.48c4.77-49.05,48.39-84.93,97.43-80.17,49.05,4.78,84.94,48.4,80.17,97.44-4.77,49.03-48.4,84.93-97.44,80.16-49.04-4.77-84.93-48.4-80.17-97.43Z" style="fill: #fff; mix-blend-mode: overlay; opacity: .35;"/>
          <path d="M1231.47,647c2.84-29.25,28.86-50.65,58.1-47.81,29.25,2.84,50.65,28.85,47.8,58.1-2.84,29.25-28.85,50.64-58.09,47.8-29.25-2.86-50.65-28.85-47.81-58.09Z" style="fill: none; mix-blend-mode: overlay; opacity: .25; stroke: #fff; stroke-miterlimit: 10; stroke-width: 2.33px;"/>
          <path d="M1122.91,184.4c6.48,23.95-7.66,48.62-31.61,55.1-23.95,6.49-48.62-7.66-55.11-31.6-6.48-23.94,7.67-48.62,31.62-55.1,23.94-6.49,48.61,7.66,55.1,31.6Z" style="fill: #fff; mix-blend-mode: overlay; opacity: .6;"/>
          <path d="M1200.06,97.05c4.66,17.14-5.49,34.81-22.64,39.46-17.15,4.64-34.82-5.49-39.47-22.64-4.64-17.15,5.48-34.81,22.63-39.47,17.17-4.65,34.83,5.48,39.48,22.64Z" style="fill: #fff; mix-blend-mode: overlay; opacity: .6;"/>
          <path d="M1415.04,519.06c3.62-37.31,36.81-64.62,74.12-60.98,37.3,3.62,64.62,36.81,60.99,74.11-3.62,37.32-36.82,64.62-74.12,60.99-37.32-3.63-64.61-36.82-60.99-74.13Z" style="fill: #fff; mix-blend-mode: overlay; opacity: .25;"/>
          <path d="M1506.69,49.56h-42.91c-15.76,7.35-27.33,22.6-29.14,41.15-2.71,27.93,17.73,52.78,45.67,55.5,27.94,2.72,52.78-17.73,55.5-45.67,2.15-22.03-10.12-42.14-29.11-50.98Z" style="fill: url(#radial-gradient-74); mix-blend-mode: overlay; opacity: .6;"/>
          <path d="M1408.88,355.78c2.72-27.93,27.56-48.38,55.49-45.67,27.94,2.72,48.39,27.56,45.67,55.51-2.72,27.93-27.56,48.38-55.5,45.66-27.93-2.71-48.38-27.57-45.66-55.5Z" style="fill: url(#radial-gradient-75); mix-blend-mode: overlay; opacity: .6;"/>
          <path d="M1613.75,325.29c1.81-18.6,18.37-32.23,36.98-30.42,18.61,1.81,32.22,18.36,30.41,36.97-1.81,18.61-18.35,32.23-36.97,30.42-18.61-1.81-32.22-18.36-30.42-36.98Z" style="fill: url(#radial-gradient-76); mix-blend-mode: overlay; opacity: .6;"/>
          <path d="M1465.01,303.55c3.07-31.57,31.14-54.66,62.71-51.6,31.56,3.07,54.65,31.14,51.59,62.71-3.06,31.55-31.14,54.66-62.71,51.59-31.56-3.07-54.67-31.14-51.59-62.7Z" style="fill: none; mix-blend-mode: overlay; opacity: .6; stroke: #fff; stroke-miterlimit: 10; stroke-width: 4.66px;"/>
          <path d="M1237.52,491.19c2.16-22.06,21.78-38.21,43.84-36.07,22.06,2.14,38.21,21.77,36.05,43.83-2.13,22.07-21.77,38.21-43.82,36.07-22.06-2.14-38.2-21.77-36.07-43.83Z" style="fill: url(#radial-gradient-77); mix-blend-mode: overlay; opacity: .6;"/>
          <path d="M1186.36,168.46c2.15-22.06,21.77-38.21,43.84-36.06,22.07,2.14,38.2,21.77,36.07,43.83-2.16,22.06-21.78,38.21-43.84,36.07-22.06-2.15-38.21-21.77-36.07-43.84Z" style="fill: none; mix-blend-mode: overlay; opacity: .6; stroke: #fff; stroke-miterlimit: 10; stroke-width: 4.66px;"/>
          <path d="M1552.19,464.2c1.53-15.8,15.58-27.37,31.39-25.83,15.8,1.53,27.37,15.59,25.84,31.39-1.53,15.8-15.59,27.37-31.4,25.83-15.8-1.54-27.36-15.59-25.82-31.39Z" style="fill: none; mix-blend-mode: overlay; opacity: .6; stroke: #fff; stroke-miterlimit: 10; stroke-width: 4.66px;"/>
          <path d="M766.66,44.9c-6.41,9.22-10.63,20.16-11.8,32.13-3.63,37.31,23.68,70.5,60.98,74.12,37.31,3.62,70.51-23.68,74.13-60.99,1.62-16.67-2.95-32.51-11.82-45.27h-111.5Z" style="fill: none; mix-blend-mode: overlay; opacity: .6; stroke: #fff; stroke-miterlimit: 10; stroke-width: 4.66px;"/>
          <path d="M1094.28,217.09c1.53-15.8,15.59-27.37,31.39-25.84,15.8,1.54,27.37,15.6,25.83,31.4-1.55,15.8-15.59,27.37-31.4,25.83-15.8-1.53-27.37-15.59-25.82-31.39Z" style="fill: #fff; mix-blend-mode: overlay; opacity: .6;"/>
          <path d="M1255.85,283.22c1.54-15.8,15.59-27.36,31.4-25.83,15.8,1.54,27.37,15.59,25.83,31.39-1.54,15.8-15.6,27.37-31.4,25.83-15.8-1.53-27.37-15.59-25.84-31.39Z" style="fill: #fff; mix-blend-mode: overlay; opacity: .3;"/>
        </g>
      </g>
    </g>
  </g>
</svg>